Aleo-Hairline.ufo
<glyph name="exclam" format="2">
	<advance width="241"/>
	<unicode hex="0021"/>
	<note>
		exclam
	</note>
	<outline>
		<contour>
			<point x="116" y="700" type="line"/>
			<point x="116" y="414" type="line" smooth="yes"/>
			<point x="116" y="380"/>
			<point x="118" y="277"/>
			<point x="119" y="238" type="curve"/>
			<point x="127" y="238" type="line"/>
			<point x="128" y="270"/>
			<point x="130" y="387"/>
			<point x="130" y="414" type="curve" smooth="yes"/>
			<point x="130" y="700" type="line"/>
			<point x="116" y="700" type="line"/>
		</contour>
		<contour>
			<point x="89" y="24" type="curve"/>
			<point x="89" y="24" type="line"/>
			<point x="89" y="7"/>
			<point x="104" y="-8"/>
			<point x="121" y="-8" type="curve" smooth="yes"/>
			<point x="140" y="-8"/>
			<point x="154" y="7"/>
			<point x="154" y="24" type="curve" smooth="yes"/>
			<point x="154" y="43"/>
			<point x="140" y="57"/>
			<point x="121" y="57" type="curve" smooth="yes"/>
			<point x="104" y="57"/>
			<point x="89" y="43"/>
		</contour>
	</outline>
</glyph>
<glyph name="quotedbl" format="2">
	<advance width="277"/>
	<unicode hex="0022"/>
	<note>
		quotedbl
	</note>
	<outline>
		<contour>
			<point x="70" y="700" type="line"/>
			<point x="70" y="553" type="line"/>
			<point x="71" y="477" type="line" smooth="yes"/>
			<point x="71" y="474"/>
			<point x="72" y="473"/>
			<point x="75" y="473" type="curve" smooth="yes"/>
			<point x="78" y="473"/>
			<point x="79" y="474"/>
			<point x="79" y="477" type="curve" smooth="yes"/>
			<point x="80" y="553" type="line"/>
			<point x="80" y="700" type="line"/>
			<point x="70" y="700" type="line"/>
		</contour>
		<contour>
			<point x="197" y="700" type="line"/>
			<point x="197" y="553" type="line"/>
			<point x="198" y="477" type="line" smooth="yes"/>
			<point x="198" y="474"/>
			<point x="199" y="473"/>
			<point x="202" y="473" type="curve" smooth="yes"/>
			<point x="205" y="473"/>
			<point x="206" y="474"/>
			<point x="206" y="477" type="curve" smooth="yes"/>
			<point x="207" y="553" type="line"/>
			<point x="207" y="700" type="line"/>
			<point x="197" y="700" type="line"/>
		</contour>
	</outline>
</glyph>
<glyph name="numbersign" format="2">
	<advance width="552"/>
	<unicode hex="0023"/>
	<note>
		numbersign
	</note>
	<outline>
		<contour>
			<point x="101" y="0" type="line"/>
			<point x="106" y="0" type="line" smooth="yes"/>
			<point x="111" y="0"/>
			<point x="113" y="3"/>
			<point x="114" y="8" type="curve" smooth="yes"/>
			<point x="164" y="230" type="line"/>
			<point x="335" y="230" type="line"/>
			<point x="285" y="4" type="line" smooth="yes"/>
			<point x="284" y="1"/>
			<point x="286" y="0"/>
			<point x="288" y="0" type="curve" smooth="yes"/>
			<point x="294" y="0" type="line"/>
			<point x="346" y="230" type="line"/>
			<point x="486" y="230" type="line"/>
			<point x="486" y="233" type="line" smooth="yes"/>
			<point x="486" y="237"/>
			<point x="484" y="239"/>
			<point x="479" y="239" type="curve" smooth="yes"/>
			<point x="347" y="239" type="line"/>
			<point x="396" y="461" type="line"/>
			<point x="507" y="461" type="line" smooth="yes"/>
			<point x="512" y="461"/>
			<point x="514" y="463"/>
			<point x="514" y="467" type="curve" smooth="yes"/>
			<point x="514" y="470" type="line"/>
			<point x="397" y="470" type="line"/>
			<point x="446" y="690" type="line" smooth="yes"/>
			<point x="448" y="697"/>
			<point x="447" y="700"/>
			<point x="442" y="700" type="curve" smooth="yes"/>
			<point x="437" y="700" type="line"/>
			<point x="386" y="470" type="line"/>
			<point x="215" y="470" type="line"/>
			<point x="266" y="700" type="line"/>
			<point x="262" y="700" type="line" smooth="yes"/>
			<point x="257" y="700"/>
			<point x="254" y="697"/>
			<point x="253" y="692" type="curve" smooth="yes"/>
			<point x="204" y="470" type="line"/>
			<point x="73" y="470" type="line" smooth="yes"/>
			<point x="68" y="470"/>
			<point x="66" y="468"/>
			<point x="66" y="464" type="curve" smooth="yes"/>
			<point x="66" y="461" type="line"/>
			<point x="203" y="461" type="line"/>
			<point x="154" y="239" type="line"/>
			<point x="38" y="239" type="line"/>
			<point x="38" y="236" type="line" smooth="yes"/>
			<point x="38" y="232"/>
			<point x="40" y="230"/>
			<point x="45" y="230" type="curve" smooth="yes"/>
			<point x="153" y="230" type="line"/>
		</contour>
		<contour>
			<point x="165" y="239" type="line"/>
			<point x="214" y="461" type="line"/>
			<point x="385" y="461" type="line"/>
			<point x="336" y="239" type="line"/>
		</contour>
	</outline>
</glyph>
<glyph name="dollar" format="2">
	<advance width="515"/>
	<unicode hex="0024"/>
	<note>
		dollar
	</note>
	<outline>
		<contour>
			<point x="247" y="-137" type="line"/>
			<point x="252" y="-137" type="line" smooth="yes"/>
			<point x="256" y="-137"/>
			<point x="258" y="-134"/>
			<point x="258" y="-129" type="curve" smooth="yes"/>
			<point x="291" y="809" type="line"/>
			<point x="286" y="809" type="line" smooth="yes"/>
			<point x="282" y="809"/>
			<point x="280" y="806"/>
			<point x="280" y="801" type="curve" smooth="yes"/>
		</contour>
		<component base="S"/>
	</outline>
</glyph>
<glyph name="percent" format="2">
	<advance width="746"/>
	<unicode hex="0025"/>
	<note>
		percent
	</note>
	<outline>
		<contour>
			<point x="328" y="532" type="curve"/>
			<point x="328" y="532" type="line"/>
			<point x="328" y="644"/>
			<point x="272" y="708"/>
			<point x="188" y="708" type="curve" smooth="yes"/>
			<point x="104" y="708"/>
			<point x="48" y="644"/>
			<point x="48" y="532" type="curve" smooth="yes"/>
			<point x="48" y="421"/>
			<point x="104" y="357"/>
			<point x="188" y="357" type="curve" smooth="yes"/>
			<point x="272" y="357"/>
			<point x="328" y="421"/>
		</contour>
		<contour>
			<point x="317" y="532" type="curve"/>
			<point x="317" y="532" type="line"/>
			<point x="317" y="426"/>
			<point x="266" y="366"/>
			<point x="188" y="366" type="curve" smooth="yes"/>
			<point x="111" y="366"/>
			<point x="59" y="425"/>
			<point x="59" y="532" type="curve" smooth="yes"/>
			<point x="59" y="640"/>
			<point x="111" y="699"/>
			<point x="188" y="699" type="curve" smooth="yes"/>
			<point x="266" y="699"/>
			<point x="317" y="640"/>
		</contour>
		<contour>
			<point x="116" y="0" type="line"/>
			<point x="123" y="0" type="line" smooth="yes"/>
			<point x="127" y="0"/>
			<point x="130" y="1"/>
			<point x="131" y="4" type="curve"/>
			<point x="625" y="700" type="line"/>
			<point x="618" y="700" type="line" smooth="yes"/>
			<point x="615" y="700"/>
			<point x="612" y="699"/>
			<point x="610" y="696" type="curve" smooth="yes"/>
			<point x="116" y="0" type="line"/>
		</contour>
		<contour>
			<point x="698" y="167" type="curve"/>
			<point x="698" y="167" type="line"/>
			<point x="698" y="279"/>
			<point x="642" y="343"/>
			<point x="558" y="343" type="curve" smooth="yes"/>
			<point x="474" y="343"/>
			<point x="418" y="279"/>
			<point x="418" y="167" type="curve" smooth="yes"/>
			<point x="418" y="56"/>
			<point x="474" y="-8"/>
			<point x="558" y="-8" type="curve" smooth="yes"/>
			<point x="642" y="-8"/>
			<point x="698" y="56"/>
		</contour>
		<contour>
			<point x="687" y="167" type="curve"/>
			<point x="687" y="167" type="line"/>
			<point x="687" y="61"/>
			<point x="636" y="1"/>
			<point x="558" y="1" type="curve" smooth="yes"/>
			<point x="481" y="1"/>
			<point x="429" y="60"/>
			<point x="429" y="167" type="curve" smooth="yes"/>
			<point x="429" y="275"/>
			<point x="481" y="334"/>
			<point x="558" y="334" type="curve" smooth="yes"/>
			<point x="636" y="334"/>
			<point x="687" y="275"/>
		</contour>
	</outline>
</glyph>
<glyph name="ampersand" format="2">
	<advance width="666"/>
	<unicode hex="0026"/>
	<note>
		ampersand
	</note>
	<outline>
		<contour>
			<point x="235" y="-8" type="curve" smooth="yes"/>
			<point x="345" y="-8"/>
			<point x="433" y="52"/>
			<point x="491" y="132" type="curve"/>
			<point x="621" y="5" type="line" smooth="yes"/>
			<point x="628" y="0"/>
			<point x="631" y="0"/>
			<point x="636" y="0" type="curve" smooth="yes"/>
			<point x="644" y="0" type="line"/>
			<point x="497" y="141" type="line"/>
			<point x="537" y="198"/>
			<point x="558" y="262"/>
			<point x="559" y="311" type="curve"/>
			<point x="555" y="311" type="line" smooth="yes"/>
			<point x="550" y="311"/>
			<point x="549" y="308"/>
			<point x="548" y="303" type="curve"/>
			<point x="543" y="255"/>
			<point x="524" y="199"/>
			<point x="489" y="148" type="curve"/>
			<point x="251" y="376" type="line" smooth="yes"/>
			<point x="186" y="439"/>
			<point x="152" y="494"/>
			<point x="152" y="555" type="curve" smooth="yes"/>
			<point x="152" y="640"/>
			<point x="217" y="698"/>
			<point x="307" y="698" type="curve" smooth="yes"/>
			<point x="391" y="698"/>
			<point x="445" y="632"/>
			<point x="448" y="584" type="curve" smooth="yes"/>
			<point x="449" y="576"/>
			<point x="453" y="576"/>
			<point x="456" y="576" type="curve" smooth="yes"/>
			<point x="459" y="576" type="line"/>
			<point x="459" y="648"/>
			<point x="383" y="708"/>
			<point x="307" y="708" type="curve" smooth="yes"/>
			<point x="211" y="708"/>
			<point x="140" y="645"/>
			<point x="140" y="555" type="curve" smooth="yes"/>
			<point x="140" y="492"/>
			<point x="172" y="442"/>
			<point x="223" y="389" type="curve"/>
			<point x="122" y="354"/>
			<point x="41" y="274"/>
			<point x="41" y="172" type="curve" smooth="yes"/>
			<point x="41" y="61"/>
			<point x="135" y="-8"/>
		</contour>
		<contour>
			<point x="235" y="2" type="curve" smooth="yes"/>
			<point x="148" y="2"/>
			<point x="53" y="64"/>
			<point x="53" y="172" type="curve"/>
			<point x="53" y="172" type="line"/>
			<point x="53" y="267"/>
			<point x="131" y="350"/>
			<point x="231" y="381" type="curve"/>
			<point x="483" y="139" type="line"/>
			<point x="430" y="62"/>
			<point x="341" y="2"/>
		</contour>
	</outline>
</glyph>
<glyph name="quotesingle" format="2">
	<advance width="150"/>
	<unicode hex="0027"/>
	<note>
		quotesingle
	</note>
	<outline>
		<contour>
			<point x="75" y="473" type="curve" smooth="yes"/>
			<point x="78" y="473"/>
			<point x="79" y="474"/>
			<point x="79" y="477" type="curve" smooth="yes"/>
			<point x="80" y="553" type="line"/>
			<point x="80" y="700" type="line"/>
			<point x="70" y="700" type="line"/>
			<point x="70" y="553" type="line"/>
			<point x="71" y="477" type="line" smooth="yes"/>
			<point x="71" y="474"/>
			<point x="72" y="473"/>
		</contour>
	</outline>
</glyph>
<glyph name="parenleft" format="2">
	<advance width="230"/>
	<unicode hex="0028"/>
	<note>
		parenleft
	</note>
	<outline>
		<contour>
			<point x="188" y="-120" type="curve"/>
			<point x="193" y="-117" type="line" smooth="yes"/>
			<point x="194" y="-116"/>
			<point x="195" y="-115"/>
			<point x="195" y="-114" type="curve" smooth="yes"/>
			<point x="195" y="-113"/>
			<point x="194" y="-111"/>
			<point x="193" y="-109" type="curve" smooth="yes"/>
			<point x="105" y="23"/>
			<point x="61" y="161"/>
			<point x="61" y="316" type="curve" smooth="yes"/>
			<point x="61" y="471"/>
			<point x="105" y="609"/>
			<point x="193" y="741" type="curve" smooth="yes"/>
			<point x="194" y="743"/>
			<point x="195" y="745"/>
			<point x="195" y="746" type="curve" smooth="yes"/>
			<point x="195" y="747"/>
			<point x="194" y="748"/>
			<point x="193" y="749" type="curve" smooth="yes"/>
			<point x="188" y="752" type="line"/>
			<point x="136" y="673"/>
			<point x="101" y="602"/>
			<point x="80" y="531" type="curve" smooth="yes"/>
			<point x="59" y="460"/>
			<point x="50" y="391"/>
			<point x="50" y="316" type="curve" smooth="yes"/>
			<point x="50" y="241"/>
			<point x="59" y="172"/>
			<point x="80" y="102" type="curve" smooth="yes"/>
			<point x="101" y="32"/>
			<point x="136" y="-41"/>
		</contour>
	</outline>
</glyph>
<glyph name="parenright" format="2">
	<advance width="230"/>
	<unicode hex="0029"/>
	<note>
		parenright
	</note>
	<outline>
		<contour>
			<point x="42" y="-120" type="line"/>
			<point x="94" y="-41"/>
			<point x="129" y="32"/>
			<point x="150" y="102" type="curve" smooth="yes"/>
			<point x="171" y="172"/>
			<point x="180" y="241"/>
			<point x="180" y="316" type="curve" smooth="yes"/>
			<point x="180" y="391"/>
			<point x="171" y="460"/>
			<point x="150" y="531" type="curve" smooth="yes"/>
			<point x="129" y="602"/>
			<point x="94" y="673"/>
			<point x="42" y="752" type="curve"/>
			<point x="37" y="749" type="line" smooth="yes"/>
			<point x="36" y="748"/>
			<point x="35" y="747"/>
			<point x="35" y="746" type="curve" smooth="yes"/>
			<point x="35" y="745"/>
			<point x="36" y="743"/>
			<point x="37" y="741" type="curve" smooth="yes"/>
			<point x="125" y="609"/>
			<point x="169" y="471"/>
			<point x="169" y="316" type="curve" smooth="yes"/>
			<point x="169" y="161"/>
			<point x="125" y="23"/>
			<point x="37" y="-109" type="curve" smooth="yes"/>
			<point x="36" y="-111"/>
			<point x="35" y="-113"/>
			<point x="35" y="-114" type="curve" smooth="yes"/>
			<point x="35" y="-115"/>
			<point x="36" y="-116"/>
			<point x="37" y="-117" type="curve" smooth="yes"/>
		</contour>
	</outline>
</glyph>
<glyph name="asterisk" format="2">
	<advance width="389"/>
	<unicode hex="002A"/>
	<note>
		asterisk
	</note>
	<outline>
		<contour>
			<point x="189" y="463" type="line"/>
			<point x="199" y="463" type="line"/>
			<point x="199" y="463" type="line"/>
			<point x="199" y="577" type="line" smooth="yes"/>
			<point x="199" y="585"/>
			<point x="199" y="587"/>
			<point x="196" y="599" type="curve"/>
			<point x="200" y="595"/>
			<point x="212" y="587"/>
			<point x="214" y="585" type="curve"/>
			<point x="316" y="526" type="line"/>
			<point x="321" y="535" type="line"/>
			<point x="219" y="594" type="line" smooth="yes"/>
			<point x="216" y="596"/>
			<point x="208" y="599"/>
			<point x="199" y="602" type="curve"/>
			<point x="210" y="605"/>
			<point x="212" y="606"/>
			<point x="219" y="610" type="curve" smooth="yes"/>
			<point x="320" y="669" type="line"/>
			<point x="315" y="678" type="line"/>
			<point x="214" y="619" type="line" smooth="yes"/>
			<point x="207" y="615"/>
			<point x="205" y="613"/>
			<point x="196" y="604" type="curve"/>
			<point x="199" y="612"/>
			<point x="199" y="618"/>
			<point x="199" y="627" type="curve" smooth="yes"/>
			<point x="199" y="741" type="line"/>
			<point x="189" y="741" type="line"/>
			<point x="189" y="627" type="line" smooth="yes"/>
			<point x="189" y="624"/>
			<point x="191" y="615"/>
			<point x="193" y="604" type="curve"/>
			<point x="189" y="608"/>
			<point x="178" y="618"/>
			<point x="175" y="619" type="curve"/>
			<point x="73" y="678" type="line"/>
			<point x="68" y="669" type="line"/>
			<point x="170" y="610" type="line" smooth="yes"/>
			<point x="173" y="608"/>
			<point x="180" y="606"/>
			<point x="191" y="602" type="curve"/>
			<point x="188" y="601"/>
			<point x="176" y="597"/>
			<point x="170" y="594" type="curve" smooth="yes"/>
			<point x="69" y="535" type="line"/>
			<point x="74" y="526" type="line"/>
			<point x="175" y="585" type="line" smooth="yes"/>
			<point x="180" y="588"/>
			<point x="187" y="593"/>
			<point x="193" y="599" type="curve"/>
			<point x="191" y="590"/>
			<point x="189" y="583"/>
			<point x="189" y="577" type="curve" smooth="yes"/>
		</contour>
	</outline>
</glyph>
<glyph name="plus" format="2">
	<advance width="573"/>
	<unicode hex="002B"/>
	<note>
		plus
	</note>
	<outline>
		<contour>
			<point x="281" y="575" type="line"/>
			<point x="281" y="340" type="line"/>
			<point x="56" y="340" type="line"/>
			<point x="56" y="330" type="line"/>
			<point x="281" y="330" type="line"/>
			<point x="281" y="94" type="line"/>
			<point x="291" y="94" type="line"/>
			<point x="291" y="330" type="line"/>
			<point x="517" y="330" type="line"/>
			<point x="517" y="340" type="line"/>
			<point x="291" y="340" type="line"/>
			<point x="291" y="575" type="line"/>
			<point x="281" y="575" type="line"/>
		</contour>
	</outline>
</glyph>
<glyph name="comma" format="2">
	<advance width="172"/>
	<unicode hex="002C"/>
	<note>
		comma
	</note>
	<outline>
		<contour>
			<point x="58" y="-119" type="line"/>
			<point x="93" y="-83"/>
			<point x="117" y="-34"/>
			<point x="117" y="18" type="curve" smooth="yes"/>
			<point x="117" y="43"/>
			<point x="105" y="57"/>
			<point x="86" y="57" type="curve" smooth="yes"/>
			<point x="69" y="57"/>
			<point x="56" y="42"/>
			<point x="56" y="26" type="curve" smooth="yes"/>
			<point x="56" y="9"/>
			<point x="68" y="-4"/>
			<point x="84" y="-4" type="curve" smooth="yes"/>
			<point x="94" y="-4"/>
			<point x="102" y="-1"/>
			<point x="107" y="6" type="curve"/>
			<point x="107" y="-46"/>
			<point x="83" y="-75"/>
			<point x="58" y="-110" type="curve"/>
			<point x="56" y="-112"/>
			<point x="55" y="-114"/>
			<point x="55" y="-115" type="curve" smooth="yes"/>
			<point x="55" y="-116"/>
			<point x="56" y="-117"/>
			<point x="57" y="-118" type="curve" smooth="yes"/>
		</contour>
	</outline>
</glyph>
<glyph name="period" format="2">
	<advance width="175"/>
	<unicode hex="002E"/>
	<note>
		period
	</note>
	<outline>
		<contour>
			<point x="87" y="-8" type="curve" smooth="yes"/>
			<point x="106" y="-8"/>
			<point x="120" y="7"/>
			<point x="120" y="24" type="curve" smooth="yes"/>
			<point x="120" y="43"/>
			<point x="106" y="57"/>
			<point x="87" y="57" type="curve" smooth="yes"/>
			<point x="70" y="57"/>
			<point x="55" y="43"/>
			<point x="55" y="24" type="curve" smooth="yes"/>
			<point x="55" y="7"/>
			<point x="70" y="-8"/>
		</contour>
	</outline>
</glyph>
<glyph name="slash" format="2">
	<advance width="390"/>
	<unicode hex="002F"/>
	<note>
		slash
	</note>
	<outline>
		<contour>
			<point x="27" y="-39" type="line"/>
			<point x="31" y="-39" type="line" smooth="yes"/>
			<point x="35" y="-39"/>
			<point x="41" y="-38"/>
			<point x="42" y="-33" type="curve"/>
			<point x="362" y="720" type="line"/>
			<point x="357" y="720" type="line" smooth="yes"/>
			<point x="352" y="720"/>
			<point x="349" y="718"/>
			<point x="347" y="714" type="curve" smooth="yes"/>
		</contour>
	</outline>
</glyph>
<glyph name="zero" format="2">
	<advance width="578"/>
	<unicode hex="0030"/>
	<note>
		zero
	</note>
	<outline>
		<contour>
			<point x="537" y="350" type="curve"/>
			<point x="537" y="350" type="line"/>
			<point x="537" y="473"/>
			<point x="509" y="562"/>
			<point x="464" y="621" type="curve" smooth="yes"/>
			<point x="419" y="680"/>
			<point x="357" y="708"/>
			<point x="289" y="708" type="curve" smooth="yes"/>
			<point x="222" y="708"/>
			<point x="159" y="680"/>
			<point x="115" y="621" type="curve" smooth="yes"/>
			<point x="70" y="562"/>
			<point x="41" y="473"/>
			<point x="41" y="350" type="curve" smooth="yes"/>
			<point x="41" y="227"/>
			<point x="70" y="139"/>
			<point x="115" y="80" type="curve" smooth="yes"/>
			<point x="159" y="21"/>
			<point x="222" y="-7"/>
			<point x="289" y="-7" type="curve" smooth="yes"/>
			<point x="357" y="-7"/>
			<point x="419" y="21"/>
			<point x="464" y="80" type="curve" smooth="yes"/>
			<point x="509" y="139"/>
			<point x="537" y="227"/>
		</contour>
		<contour>
			<point x="524" y="350" type="curve"/>
			<point x="524" y="350" type="line"/>
			<point x="524" y="230"/>
			<point x="498" y="143"/>
			<point x="455" y="87" type="curve" smooth="yes"/>
			<point x="412" y="30"/>
			<point x="353" y="3"/>
			<point x="289" y="3" type="curve" smooth="yes"/>
			<point x="225" y="3"/>
			<point x="166" y="30"/>
			<point x="123" y="87" type="curve" smooth="yes"/>
			<point x="80" y="143"/>
			<point x="53" y="230"/>
			<point x="53" y="350" type="curve" smooth="yes"/>
			<point x="53" y="470"/>
			<point x="80" y="557"/>
			<point x="123" y="614" type="curve" smooth="yes"/>
			<point x="166" y="671"/>
			<point x="225" y="698"/>
			<point x="289" y="698" type="curve" smooth="yes"/>
			<point x="353" y="698"/>
			<point x="412" y="671"/>
			<point x="455" y="614" type="curve" smooth="yes"/>
			<point x="498" y="557"/>
			<point x="524" y="470"/>
		</contour>
	</outline>
</glyph>
<glyph name="one" format="2">
	<advance width="577"/>
	<unicode hex="0031"/>
	<note>
		one
	</note>
	<outline>
		<contour>
			<point x="125" y="0" type="line"/>
			<point x="473" y="0" type="line"/>
			<point x="473" y="4" type="line" smooth="yes"/>
			<point x="473" y="7"/>
			<point x="470" y="10"/>
			<point x="467" y="10" type="curve" smooth="yes"/>
			<point x="307" y="13" type="line"/>
			<point x="307" y="704" type="line"/>
			<point x="300" y="704" type="line"/>
			<point x="103" y="527" type="line"/>
			<point x="106" y="523" type="line" smooth="yes"/>
			<point x="107" y="521"/>
			<point x="109" y="521"/>
			<point x="111" y="521" type="curve" smooth="yes"/>
			<point x="113" y="521"/>
			<point x="115" y="522"/>
			<point x="116" y="523" type="curve" smooth="yes"/>
			<point x="297" y="687" type="line"/>
			<point x="296" y="678"/>
			<point x="295" y="667"/>
			<point x="295" y="658" type="curve" smooth="yes"/>
			<point x="295" y="13" type="line"/>
			<point x="131" y="10" type="line" smooth="yes"/>
			<point x="128" y="10"/>
			<point x="125" y="7"/>
			<point x="125" y="4" type="curve" smooth="yes"/>
		</contour>
	</outline>
</glyph>
<glyph name="three" format="2">
	<advance width="609"/>
	<unicode hex="0033"/>
	<note>
		three
	</note>
	<outline>
		<contour>
			<point x="301" y="-8" type="curve" smooth="yes"/>
			<point x="424" y="-8"/>
			<point x="519" y="80"/>
			<point x="519" y="185" type="curve" smooth="yes"/>
			<point x="519" y="284"/>
			<point x="453" y="353"/>
			<point x="339" y="361" type="curve"/>
			<point x="424" y="375"/>
			<point x="499" y="440"/>
			<point x="499" y="533" type="curve" smooth="yes"/>
			<point x="499" y="651"/>
			<point x="413" y="708"/>
			<point x="310" y="708" type="curve" smooth="yes"/>
			<point x="199" y="708"/>
			<point x="120" y="638"/>
			<point x="104" y="526" type="curve"/>
			<point x="107" y="526"/>
			<point x="109" y="526"/>
			<point x="109" y="526" type="curve" smooth="yes"/>
			<point x="113" y="526"/>
			<point x="115" y="529"/>
			<point x="116" y="534" type="curve" smooth="yes"/>
			<point x="132" y="632"/>
			<point x="208" y="698"/>
			<point x="310" y="698" type="curve" smooth="yes"/>
			<point x="408" y="698"/>
			<point x="487" y="644"/>
			<point x="487" y="533" type="curve" smooth="yes"/>
			<point x="487" y="430"/>
			<point x="404" y="369"/>
			<point x="285" y="364" type="curve"/>
			<point x="285" y="356" type="line"/>
			<point x="430" y="356"/>
			<point x="507" y="290"/>
			<point x="507" y="185" type="curve" smooth="yes"/>
			<point x="507" y="94"/>
			<point x="428" y="2"/>
			<point x="301" y="2" type="curve" smooth="yes"/>
			<point x="189" y="2"/>
			<point x="125" y="54"/>
			<point x="95" y="158" type="curve" smooth="yes"/>
			<point x="94" y="166"/>
			<point x="91" y="170"/>
			<point x="86" y="170" type="curve" smooth="yes"/>
			<point x="84" y="170"/>
			<point x="82" y="169"/>
			<point x="80" y="168" type="curve"/>
			<point x="107" y="53"/>
			<point x="175" y="-8"/>
		</contour>
	</outline>
</glyph>
<glyph name="four" format="2">
	<advance width="593"/>
	<unicode hex="0034"/>
	<note>
		four
	</note>
	<outline>
		<contour>
			<point x="390" y="0" type="line"/>
			<point x="402" y="0" type="line"/>
			<point x="402" y="216" type="line"/>
			<point x="542" y="216" type="line" smooth="yes"/>
			<point x="547" y="216"/>
			<point x="550" y="218"/>
			<point x="550" y="222" type="curve" smooth="yes"/>
			<point x="550" y="226" type="line"/>
			<point x="402" y="226" type="line"/>
			<point x="402" y="701" type="line"/>
			<point x="402" y="701" type="line"/>
			<point x="395" y="701" type="line"/>
			<point x="33" y="225" type="line"/>
			<point x="34" y="221" type="line" smooth="yes"/>
			<point x="35" y="218"/>
			<point x="36" y="216"/>
			<point x="43" y="216" type="curve" smooth="yes"/>
			<point x="390" y="216" type="line"/>
		</contour>
		<contour>
			<point x="47" y="226" type="line"/>
			<point x="391" y="679" type="line"/>
			<point x="390" y="676"/>
			<point x="390" y="673"/>
			<point x="390" y="670" type="curve"/>
			<point x="390" y="226" type="line"/>
		</contour>
	</outline>
</glyph>
<glyph name="five" format="2">
	<advance width="574"/>
	<unicode hex="0035"/>
	<note>
		five
	</note>
	<outline>
		<contour>
			<point x="467" y="700" type="line"/>
			<point x="167" y="700" type="line"/>
			<point x="114" y="405" type="line"/>
			<point x="123" y="401" type="line"/>
			<point x="176" y="414"/>
			<point x="223" y="421"/>
			<point x="263" y="421" type="curve" smooth="yes"/>
			<point x="401" y="421"/>
			<point x="470" y="343"/>
			<point x="470" y="224" type="curve" smooth="yes"/>
			<point x="470" y="87"/>
			<point x="376" y="4"/>
			<point x="250" y="4" type="curve" smooth="yes"/>
			<point x="195" y="4"/>
			<point x="101" y="51"/>
			<point x="89" y="51" type="curve" smooth="yes"/>
			<point x="86" y="51"/>
			<point x="84" y="50"/>
			<point x="83" y="48" type="curve" smooth="yes"/>
			<point x="80" y="44" type="line"/>
			<point x="118" y="17"/>
			<point x="185" y="-8"/>
			<point x="250" y="-8" type="curve" smooth="yes"/>
			<point x="379" y="-8"/>
			<point x="483" y="81"/>
			<point x="483" y="223" type="curve" smooth="yes"/>
			<point x="483" y="350"/>
			<point x="404" y="431"/>
			<point x="263" y="431" type="curve" smooth="yes"/>
			<point x="223" y="431"/>
			<point x="178" y="425"/>
			<point x="127" y="412" type="curve"/>
			<point x="177" y="689" type="line"/>
			<point x="460" y="689" type="line" smooth="yes"/>
			<point x="464" y="689"/>
			<point x="467" y="692"/>
			<point x="467" y="695" type="curve" smooth="yes"/>
			<point x="467" y="700" type="line"/>
		</contour>
	</outline>
</glyph>
<glyph name="six" format="2">
	<advance width="571"/>
	<unicode hex="0036"/>
	<note>
		six
	</note>
	<outline>
		<contour>
			<point x="282" y="-8" type="curve" smooth="yes"/>
			<point x="412" y="-8"/>
			<point x="505" y="77"/>
			<point x="505" y="202" type="curve" smooth="yes"/>
			<point x="505" y="324"/>
			<point x="423" y="409"/>
			<point x="297" y="409" type="curve" smooth="yes"/>
			<point x="215" y="409"/>
			<point x="135" y="366"/>
			<point x="101" y="295" type="curve"/>
			<point x="116" y="331"/>
			<point x="139" y="370"/>
			<point x="175" y="418" type="curve" smooth="yes"/>
			<point x="384" y="700" type="line"/>
			<point x="372" y="700" type="line" smooth="yes"/>
			<point x="371" y="700"/>
			<point x="369" y="699"/>
			<point x="368" y="697" type="curve" smooth="yes"/>
			<point x="165" y="423" type="line" smooth="yes"/>
			<point x="98" y="334"/>
			<point x="73" y="264"/>
			<point x="73" y="215" type="curve" smooth="yes"/>
			<point x="73" y="78"/>
			<point x="157" y="-8"/>
		</contour>
		<contour>
			<point x="282" y="2" type="curve" smooth="yes"/>
			<point x="164" y="2"/>
			<point x="85" y="89"/>
			<point x="85" y="207" type="curve" smooth="yes"/>
			<point x="85" y="304"/>
			<point x="172" y="399"/>
			<point x="298" y="399" type="curve" smooth="yes"/>
			<point x="416" y="399"/>
			<point x="493" y="323"/>
			<point x="493" y="202" type="curve" smooth="yes"/>
			<point x="493" y="84"/>
			<point x="410" y="2"/>
		</contour>
	</outline>
</glyph>
<glyph name="seven" format="2">
	<advance width="585"/>
	<unicode hex="0037"/>
	<note>
		seven
	</note>
	<outline>
		<contour>
			<point x="174" y="0" type="line"/>
			<point x="180" y="0" type="line" smooth="yes"/>
			<point x="185" y="0"/>
			<point x="189" y="2"/>
			<point x="191" y="6" type="curve" smooth="yes"/>
			<point x="539" y="687" type="line" smooth="yes"/>
			<point x="540" y="690"/>
			<point x="541" y="692"/>
			<point x="541" y="694" type="curve" smooth="yes"/>
			<point x="541" y="700" type="line"/>
			<point x="84" y="700" type="line"/>
			<point x="84" y="695" type="line" smooth="yes"/>
			<point x="84" y="691"/>
			<point x="86" y="689"/>
			<point x="90" y="689" type="curve" smooth="yes"/>
			<point x="527" y="689" type="line"/>
			<point x="526" y="687"/>
			<point x="524" y="685"/>
			<point x="523" y="682" type="curve" smooth="yes"/>
		</contour>
		<contour>
			<point x="84" y="685" type="line"/>
			<point x="93" y="685" type="line"/>
			<point x="93" y="697" type="line"/>
			<point x="84" y="697" type="line"/>
		</contour>
		<component base="SerifUpLeftCaps" xScale="-1" yScale="-1" xOffset="84" yOffset="689"/>
	</outline>
</glyph>
<glyph name="eight" format="2">
	<advance width="576"/>
	<unicode hex="0038"/>
	<note>
		eight
	</note>
	<outline>
		<contour>
			<point x="288" y="-8" type="curve"/>
			<point x="416" y="-8"/>
			<point x="508" y="63"/>
			<point x="508" y="179" type="curve" smooth="yes"/>
			<point x="508" y="293"/>
			<point x="434" y="349"/>
			<point x="335" y="366" type="curve"/>
			<point x="425" y="382"/>
			<point x="482" y="449"/>
			<point x="482" y="534" type="curve" smooth="yes"/>
			<point x="482" y="635"/>
			<point x="406" y="708"/>
			<point x="288" y="708" type="curve" smooth="yes"/>
			<point x="171" y="708"/>
			<point x="94" y="635"/>
			<point x="94" y="534" type="curve" smooth="yes"/>
			<point x="94" y="449"/>
			<point x="151" y="382"/>
			<point x="241" y="366" type="curve"/>
			<point x="145" y="349"/>
			<point x="68" y="292"/>
			<point x="68" y="179" type="curve" smooth="yes"/>
			<point x="68" y="62"/>
			<point x="162" y="-8"/>
		</contour>
		<contour>
			<point x="288" y="2" type="curve"/>
			<point x="169" y="2"/>
			<point x="80" y="70"/>
			<point x="80" y="179" type="curve" smooth="yes"/>
			<point x="80" y="296"/>
			<point x="168" y="360"/>
			<point x="288" y="360" type="curve" smooth="yes"/>
			<point x="405" y="360"/>
			<point x="496" y="300"/>
			<point x="496" y="179" type="curve" smooth="yes"/>
			<point x="496" y="70"/>
			<point x="408" y="2"/>
		</contour>
		<contour>
			<point x="288" y="370" type="curve"/>
			<point x="174" y="370"/>
			<point x="106" y="443"/>
			<point x="106" y="534" type="curve" smooth="yes"/>
			<point x="106" y="631"/>
			<point x="178" y="698"/>
			<point x="288" y="698" type="curve" smooth="yes"/>
			<point x="399" y="698"/>
			<point x="470" y="631"/>
			<point x="470" y="534" type="curve" smooth="yes"/>
			<point x="470" y="443"/>
			<point x="404" y="370"/>
		</contour>
	</outline>
</glyph>
<glyph name="nine" format="2">
	<advance width="555"/>
	<unicode hex="0039"/>
	<note>
		nine
	</note>
	<outline>
		<contour>
			<point x="181" y="0" type="line"/>
			<point x="191" y="0" type="line" smooth="yes"/>
			<point x="194" y="0"/>
			<point x="195" y="0"/>
			<point x="197" y="3" type="curve" smooth="yes"/>
			<point x="392" y="293" type="line" smooth="yes"/>
			<point x="442" y="368"/>
			<point x="481" y="429"/>
			<point x="481" y="494" type="curve" smooth="yes"/>
			<point x="481" y="622"/>
			<point x="398" y="708"/>
			<point x="280" y="708" type="curve" smooth="yes"/>
			<point x="159" y="708"/>
			<point x="65" y="624"/>
			<point x="65" y="506" type="curve" smooth="yes"/>
			<point x="65" y="390"/>
			<point x="145" y="307"/>
			<point x="266" y="307" type="curve" smooth="yes"/>
			<point x="348" y="307"/>
			<point x="423" y="351"/>
			<point x="458" y="422" type="curve"/>
			<point x="442" y="383"/>
			<point x="416" y="347"/>
			<point x="383" y="298" type="curve" smooth="yes"/>
		</contour>
		<contour>
			<point x="265" y="317" type="curve" smooth="yes"/>
			<point x="154" y="317"/>
			<point x="77" y="392"/>
			<point x="77" y="506" type="curve" smooth="yes"/>
			<point x="77" y="621"/>
			<point x="162" y="698"/>
			<point x="280" y="698" type="curve" smooth="yes"/>
			<point x="390" y="698"/>
			<point x="469" y="615"/>
			<point x="469" y="501" type="curve" smooth="yes"/>
			<point x="469" y="409"/>
			<point x="387" y="317"/>
		</contour>
	</outline>
</glyph>
<glyph name="colon" format="2">
	<advance width="175"/>
	<unicode hex="003A"/>
	<note>
		colon
	</note>
	<outline>
		<contour>
			<point x="55" y="24" type="curve"/>
			<point x="55" y="24" type="line"/>
			<point x="55" y="7"/>
			<point x="70" y="-8"/>
			<point x="87" y="-8" type="curve" smooth="yes"/>
			<point x="106" y="-8"/>
			<point x="120" y="7"/>
			<point x="120" y="24" type="curve" smooth="yes"/>
			<point x="120" y="43"/>
			<point x="106" y="57"/>
			<point x="87" y="57" type="curve" smooth="yes"/>
			<point x="70" y="57"/>
			<point x="55" y="43"/>
		</contour>
		<contour>
			<point x="55" y="443" type="curve"/>
			<point x="55" y="443" type="line"/>
			<point x="55" y="426"/>
			<point x="70" y="411"/>
			<point x="87" y="411" type="curve" smooth="yes"/>
			<point x="106" y="411"/>
			<point x="120" y="426"/>
			<point x="120" y="443" type="curve" smooth="yes"/>
			<point x="120" y="462"/>
			<point x="106" y="476"/>
			<point x="87" y="476" type="curve" smooth="yes"/>
			<point x="70" y="476"/>
			<point x="55" y="462"/>
		</contour>
	</outline>
</glyph>
<glyph name="semicolon" format="2">
	<advance width="180"/>
	<unicode hex="003B"/>
	<note>
		semicolon
	</note>
	<outline>
		<contour>
			<point x="92" y="411" type="curve" smooth="yes"/>
			<point x="111" y="411"/>
			<point x="125" y="426"/>
			<point x="125" y="443" type="curve" smooth="yes"/>
			<point x="125" y="462"/>
			<point x="111" y="476"/>
			<point x="92" y="476" type="curve" smooth="yes"/>
			<point x="75" y="476"/>
			<point x="60" y="462"/>
			<point x="60" y="443" type="curve" smooth="yes"/>
			<point x="60" y="426"/>
			<point x="75" y="411"/>
		</contour>
		<component base="comma"/>
	</outline>
</glyph>
<glyph name="less" format="2">
	<advance width="501"/>
	<unicode hex="003C"/>
	<note>
		less
	</note>
	<outline>
		<contour>
			<point x="34" y="332" type="line"/>
			<point x="399" y="146" type="line"/>
			<point x="399" y="152" type="line" smooth="yes"/>
			<point x="399" y="155"/>
			<point x="396" y="159"/>
			<point x="390" y="162" type="curve" smooth="yes"/>
			<point x="68" y="325" type="line" smooth="yes"/>
			<point x="60" y="329"/>
			<point x="53" y="332"/>
			<point x="45" y="335" type="curve"/>
			<point x="53" y="338"/>
			<point x="60" y="341"/>
			<point x="68" y="345" type="curve" smooth="yes"/>
			<point x="390" y="508" type="line" smooth="yes"/>
			<point x="396" y="511"/>
			<point x="399" y="515"/>
			<point x="399" y="519" type="curve" smooth="yes"/>
			<point x="399" y="524" type="line"/>
			<point x="34" y="338" type="line"/>
			<point x="34" y="332" type="line"/>
		</contour>
	</outline>
</glyph>
<glyph name="equal" format="2">
	<advance width="540"/>
	<unicode hex="003D"/>
	<note>
		equal
	</note>
	<outline>
		<contour>
			<point x="70" y="260" type="line"/>
			<point x="470" y="260" type="line"/>
			<point x="470" y="270" type="line"/>
			<point x="70" y="270" type="line"/>
			<point x="70" y="260" type="line"/>
		</contour>
		<contour>
			<point x="70" y="407" type="line"/>
			<point x="470" y="407" type="line"/>
			<point x="470" y="417" type="line"/>
			<point x="70" y="417" type="line"/>
			<point x="70" y="407" type="line"/>
		</contour>
	</outline>
</glyph>
<glyph name="question" format="2">
	<advance width="384"/>
	<unicode hex="003F"/>
	<note>
		question
	</note>
	<outline>
		<contour>
			<point x="167" y="238" type="line"/>
			<point x="175" y="238" type="line"/>
			<point x="178" y="324" type="line" smooth="yes"/>
			<point x="179" y="359"/>
			<point x="225" y="387"/>
			<point x="264" y="416" type="curve" smooth="yes"/>
			<point x="309" y="450"/>
			<point x="346" y="496"/>
			<point x="346" y="566" type="curve" smooth="yes"/>
			<point x="346" y="654"/>
			<point x="270" y="708"/>
			<point x="186" y="708" type="curve" smooth="yes"/>
			<point x="121" y="708"/>
			<point x="70" y="678"/>
			<point x="35" y="640" type="curve"/>
			<point x="38" y="637" type="line" smooth="yes"/>
			<point x="40" y="635"/>
			<point x="41" y="634"/>
			<point x="44" y="634" type="curve" smooth="yes"/>
			<point x="50" y="634"/>
			<point x="94" y="698"/>
			<point x="186" y="698" type="curve" smooth="yes"/>
			<point x="264" y="698"/>
			<point x="334" y="647"/>
			<point x="334" y="566" type="curve" smooth="yes"/>
			<point x="334" y="498"/>
			<point x="296" y="453"/>
			<point x="251" y="420" type="curve" smooth="yes"/>
			<point x="212" y="392"/>
			<point x="167" y="363"/>
			<point x="167" y="325" type="curve" smooth="yes"/>
			<point x="167" y="324"/>
			<point x="167" y="324"/>
			<point x="167" y="323" type="curve"/>
		</contour>
		<component base="period" xOffset="79"/>
	</outline>
</glyph>
<glyph name="at" format="2">
	<advance width="781"/>
	<unicode hex="0040"/>
	<note>
		at
	</note>
	<outline>
		<contour>
			<point x="422" y="-118" type="curve" smooth="yes"/>
			<point x="527" y="-118"/>
			<point x="615" y="-93"/>
			<point x="691" y="-41" type="curve"/>
			<point x="688" y="-36" type="line" smooth="yes"/>
			<point x="687" y="-34"/>
			<point x="686" y="-33"/>
			<point x="683" y="-33" type="curve" smooth="yes"/>
			<point x="682" y="-33"/>
			<point x="680" y="-33"/>
			<point x="679" y="-34" type="curve" smooth="yes"/>
			<point x="603" y="-85"/>
			<point x="519" y="-107"/>
			<point x="422" y="-107" type="curve" smooth="yes"/>
			<point x="323" y="-107"/>
			<point x="231" y="-75"/>
			<point x="164" y="-12" type="curve" smooth="yes"/>
			<point x="96" y="52"/>
			<point x="54" y="145"/>
			<point x="54" y="266" type="curve" smooth="yes"/>
			<point x="54" y="368"/>
			<point x="91" y="468"/>
			<point x="161" y="539" type="curve" smooth="yes"/>
			<point x="225" y="603"/>
			<point x="311" y="643"/>
			<point x="407" y="643" type="curve" smooth="yes"/>
			<point x="492" y="643"/>
			<point x="571" y="619"/>
			<point x="631" y="568" type="curve" smooth="yes"/>
			<point x="690" y="517"/>
			<point x="727" y="440"/>
			<point x="727" y="335" type="curve" smooth="yes"/>
			<point x="727" y="204"/>
			<point x="658" y="105"/>
			<point x="564" y="105" type="curve" smooth="yes"/>
			<point x="520" y="105"/>
			<point x="489" y="126"/>
			<point x="489" y="186" type="curve" smooth="yes"/>
			<point x="489" y="207"/>
			<point x="493" y="234"/>
			<point x="502" y="269" type="curve" smooth="yes"/>
			<point x="546" y="437" type="line"/>
			<point x="526" y="448"/>
			<point x="496" y="452"/>
			<point x="468" y="452" type="curve" smooth="yes"/>
			<point x="338" y="452"/>
			<point x="233" y="342"/>
			<point x="233" y="215" type="curve" smooth="yes"/>
			<point x="233" y="151"/>
			<point x="266" y="98"/>
			<point x="335" y="98" type="curve" smooth="yes"/>
			<point x="395" y="98"/>
			<point x="446" y="132"/>
			<point x="481" y="209" type="curve"/>
			<point x="471" y="142"/>
			<point x="493" y="95"/>
			<point x="563" y="95" type="curve" smooth="yes"/>
			<point x="665" y="95"/>
			<point x="738" y="199"/>
			<point x="738" y="335" type="curve" smooth="yes"/>
			<point x="738" y="407"/>
			<point x="720" y="466"/>
			<point x="691" y="514" type="curve" smooth="yes"/>
			<point x="634" y="606"/>
			<point x="522" y="653"/>
			<point x="407" y="653" type="curve" smooth="yes"/>
			<point x="308" y="653"/>
			<point x="218" y="613"/>
			<point x="151" y="545" type="curve" smooth="yes"/>
			<point x="84" y="477"/>
			<point x="43" y="379"/>
			<point x="43" y="266" type="curve" smooth="yes"/>
			<point x="43" y="142"/>
			<point x="86" y="46"/>
			<point x="155" y="-19" type="curve" smooth="yes"/>
			<point x="223" y="-84"/>
			<point x="318" y="-118"/>
		</contour>
		<contour>
			<point x="337" y="108" type="curve"/>
			<point x="277" y="108"/>
			<point x="245" y="155"/>
			<point x="245" y="215" type="curve" smooth="yes"/>
			<point x="245" y="333"/>
			<point x="342" y="442"/>
			<point x="468" y="442" type="curve" smooth="yes"/>
			<point x="497" y="442"/>
			<point x="513" y="438"/>
			<point x="533" y="433" type="curve"/>
			<point x="491" y="271" type="line" smooth="yes"/>
			<point x="461" y="156"/>
			<point x="406" y="108"/>
		</contour>
	</outline>
</glyph>
<glyph name="A" format="2">
	<advance width="760"/>
	<unicode hex="0041"/>
	<anchor x="665" y="2" name="ogonek"/>
	<anchor x="380" y="0" name="bottom"/>
	<anchor x="380" y="700" name="top"/>
	<note>
		A
	</note>
	<outline>
		<contour>
			<point x="83" y="0" type="line"/>
			<point x="91" y="0" type="line" smooth="yes"/>
			<point x="95" y="0"/>
			<point x="97" y="2"/>
			<point x="98" y="5" type="curve"/>
			<point x="372" y="663" type="line" smooth="yes"/>
			<point x="374" y="668"/>
			<point x="379" y="680"/>
			<point x="380" y="684" type="curve"/>
			<point x="381" y="680"/>
			<point x="386" y="668"/>
			<point x="388" y="663" type="curve" smooth="yes"/>
			<point x="662" y="5" type="line"/>
			<point x="663" y="2"/>
			<point x="665" y="0"/>
			<point x="668" y="0" type="curve" smooth="yes"/>
			<point x="677" y="0" type="line"/>
			<point x="385" y="700" type="line"/>
			<point x="375" y="700" type="line"/>
		</contour>
		<contour>
			<point x="89" y="0" type="line"/>
			<point x="102" y="0" type="line"/>
			<point x="102" y="11" type="line"/>
			<point x="89" y="11" type="line"/>
		</contour>
		<contour>
			<point x="194" y="250" type="line"/>
			<point x="565" y="250" type="line"/>
			<point x="563" y="260" type="line"/>
			<point x="196" y="260" type="line"/>
		</contour>
		<contour>
			<point x="656" y="0" type="line"/>
			<point x="669" y="0" type="line"/>
			<point x="669" y="11" type="line"/>
			<point x="656" y="11" type="line"/>
		</contour>
		<component base="SerifBottomLeft" xOffset="98"/>
		<component base="SerifBottomRight" xOffset="102"/>
		<component base="SerifBottomLeft" xOffset="658"/>
		<component base="SerifBottomRight" xOffset="662"/>
	</outline>
</glyph>
<glyph name="B" format="2">
	<advance width="600"/>
	<unicode hex="0042"/>
	<anchor x="300" y="700" name="top"/>
	<anchor x="300" y="0" name="bottom"/>
	<note>
		B
	</note>
	<outline>
		<contour>
			<point x="124" y="0" type="line"/>
			<point x="333" y="0" type="line" smooth="yes"/>
			<point x="473" y="0"/>
			<point x="560" y="62"/>
			<point x="560" y="184" type="curve" smooth="yes"/>
			<point x="560" y="286"/>
			<point x="482" y="349"/>
			<point x="367" y="357" type="curve"/>
			<point x="457" y="368"/>
			<point x="527" y="441"/>
			<point x="527" y="526" type="curve" smooth="yes"/>
			<point x="527" y="639"/>
			<point x="455" y="700"/>
			<point x="306" y="700" type="curve" smooth="yes"/>
			<point x="124" y="700" type="line"/>
		</contour>
		<contour>
			<point x="136" y="10" type="line"/>
			<point x="136" y="350" type="line"/>
			<point x="334" y="350" type="line" smooth="yes"/>
			<point x="460" y="350"/>
			<point x="548" y="290"/>
			<point x="548" y="184" type="curve" smooth="yes"/>
			<point x="548" y="67"/>
			<point x="465" y="10"/>
			<point x="333" y="10" type="curve" smooth="yes"/>
		</contour>
		<contour>
			<point x="136" y="360" type="line"/>
			<point x="136" y="690" type="line"/>
			<point x="306" y="690" type="line" smooth="yes"/>
			<point x="449" y="690"/>
			<point x="516" y="630"/>
			<point x="516" y="526" type="curve" smooth="yes"/>
			<point x="516" y="438"/>
			<point x="445" y="360"/>
			<point x="311" y="360" type="curve" smooth="yes"/>
		</contour>
		<component base="SerifBottomLeft" xOffset="124"/>
		<component base="SerifSpurLeft" xOffset="124" yOffset="700"/>
	</outline>
</glyph>
<glyph name="C" format="2">
	<advance width="658"/>
	<unicode hex="0043"/>
	<anchor x="373" y="700" name="top"/>
	<anchor x="373" y="0" name="bottom"/>
	<note>
		C
	</note>
	<outline>
		<contour>
			<point x="373" y="-8" type="curve" smooth="yes"/>
			<point x="476" y="-8"/>
			<point x="553" y="29"/>
			<point x="616" y="89" type="curve"/>
			<point x="612" y="93" type="line" smooth="yes"/>
			<point x="611" y="94"/>
			<point x="610" y="95"/>
			<point x="609" y="95" type="curve" smooth="yes"/>
			<point x="607" y="95"/>
			<point x="606" y="94"/>
			<point x="604" y="92" type="curve" smooth="yes"/>
			<point x="555" y="43"/>
			<point x="478" y="2"/>
			<point x="373" y="2" type="curve" smooth="yes"/>
			<point x="176" y="2"/>
			<point x="55" y="148"/>
			<point x="55" y="350" type="curve" smooth="yes"/>
			<point x="55" y="553"/>
			<point x="175" y="698"/>
			<point x="388" y="698" type="curve" smooth="yes"/>
			<point x="478" y="698"/>
			<point x="560" y="672"/>
			<point x="604" y="640" type="curve"/>
			<point x="613" y="639" type="line"/>
			<point x="613" y="645" type="line"/>
			<point x="571" y="683"/>
			<point x="475" y="708"/>
			<point x="384" y="708" type="curve" smooth="yes"/>
			<point x="276" y="708"/>
			<point x="195" y="673"/>
			<point x="136" y="610" type="curve" smooth="yes"/>
			<point x="77" y="546"/>
			<point x="43" y="457"/>
			<point x="43" y="350" type="curve" smooth="yes"/>
			<point x="43" y="239"/>
			<point x="78" y="151"/>
			<point x="136" y="89" type="curve" smooth="yes"/>
			<point x="194" y="27"/>
			<point x="273" y="-8"/>
		</contour>
		<component base="SerifUpRightCaps" xScale="-1" yScale="-1" xOffset="613" yOffset="639"/>
	</outline>
</glyph>
<glyph name="D" format="2">
	<advance width="741"/>
	<unicode hex="0044"/>
	<anchor x="130" y="357" name="center"/>
	<anchor x="347" y="0" name="bottom"/>
	<anchor x="361" y="700" name="top"/>
	<note>
		D
	</note>
	<outline>
		<contour>
			<point x="124" y="0" type="line"/>
			<point x="374" y="0" type="line" smooth="yes"/>
			<point x="470" y="0"/>
			<point x="551" y="32"/>
			<point x="608" y="92" type="curve" smooth="yes"/>
			<point x="665" y="152"/>
			<point x="698" y="239"/>
			<point x="698" y="350" type="curve" smooth="yes"/>
			<point x="698" y="461"/>
			<point x="665" y="548"/>
			<point x="608" y="608" type="curve" smooth="yes"/>
			<point x="551" y="668"/>
			<point x="470" y="700"/>
			<point x="374" y="700" type="curve" smooth="yes"/>
			<point x="124" y="700" type="line"/>
		</contour>
		<contour>
			<point x="136" y="10" type="line"/>
			<point x="136" y="690" type="line"/>
			<point x="374" y="690" type="line" smooth="yes"/>
			<point x="569" y="690"/>
			<point x="685" y="557"/>
			<point x="685" y="350" type="curve" smooth="yes"/>
			<point x="685" y="146"/>
			<point x="572" y="10"/>
			<point x="374" y="10" type="curve" smooth="yes"/>
		</contour>
		<component base="SerifBottomLeft" xOffset="124"/>
		<component base="SerifSpurLeft" xOffset="124" yOffset="700"/>
	</outline>
</glyph>
<glyph name="E" format="2">
	<advance width="582"/>
	<unicode hex="0045"/>
	<anchor x="417" y="3" name="ogonek"/>
	<anchor x="315" y="0" name="bottom"/>
	<anchor x="315" y="700" name="top"/>
	<note>
		E
	</note>
	<outline>
		<contour>
			<point x="124" y="0" type="line"/>
			<point x="534" y="0" type="line"/>
			<point x="534" y="11" type="line"/>
			<point x="136" y="11" type="line"/>
			<point x="136" y="350" type="line"/>
			<point x="445" y="350" type="line"/>
			<point x="445" y="361" type="line"/>
			<point x="136" y="361" type="line"/>
			<point x="136" y="689" type="line"/>
			<point x="533" y="689" type="line"/>
			<point x="533" y="700" type="line"/>
			<point x="124" y="700" type="line"/>
		</contour>
		<component base="SerifUpLeftCaps" xOffset="534" yOffset="11"/>
		<component base="SerifUpRightCaps" xScale="-1" yScale="-1" xOffset="533" yOffset="689"/>
		<component base="SerifSpurLeft" xOffset="124" yOffset="700"/>
		<component base="SerifBottomLeft" xOffset="124"/>
	</outline>
</glyph>
<glyph name="F" format="2">
	<advance width="566"/>
	<unicode hex="0046"/>
	<note>
		F
	</note>
	<outline>
		<contour>
			<point x="124" y="0" type="line"/>
			<point x="136" y="0" type="line"/>
			<point x="136" y="340" type="line"/>
			<point x="445" y="340" type="line"/>
			<point x="445" y="351" type="line"/>
			<point x="136" y="351" type="line"/>
			<point x="136" y="689" type="line"/>
			<point x="533" y="689" type="line"/>
			<point x="533" y="700" type="line"/>
			<point x="124" y="700" type="line"/>
		</contour>
		<component base="SerifUpRightCaps" xScale="-1" yScale="-1" xOffset="533" yOffset="689"/>
		<component base="SerifSpurLeft" xOffset="124" yOffset="700"/>
		<component base="SerifBottomLeft" xOffset="124"/>
		<component base="SerifBottomRight" xOffset="136"/>
	</outline>
</glyph>
<glyph name="G" format="2">
	<advance width="718"/>
	<unicode hex="0047"/>
	<anchor x="388" y="700" name="top"/>
	<anchor x="400" y="0" name="bottom"/>
	<note>
		G
	</note>
	<outline>
		<contour>
			<point x="377" y="-8" type="curve" smooth="yes"/>
			<point x="489" y="-8"/>
			<point x="563" y="18"/>
			<point x="641" y="69" type="curve"/>
			<point x="641" y="301" type="line"/>
			<point x="467" y="301" type="line"/>
			<point x="467" y="296" type="line" smooth="yes"/>
			<point x="467" y="293"/>
			<point x="469" y="291"/>
			<point x="473" y="291" type="curve" smooth="yes"/>
			<point x="630" y="291" type="line"/>
			<point x="630" y="74" type="line"/>
			<point x="554" y="26"/>
			<point x="485" y="2"/>
			<point x="377" y="2" type="curve" smooth="yes"/>
			<point x="179" y="2"/>
			<point x="55" y="141"/>
			<point x="55" y="350" type="curve" smooth="yes"/>
			<point x="55" y="562"/>
			<point x="179" y="698"/>
			<point x="388" y="698" type="curve" smooth="yes"/>
			<point x="489" y="698"/>
			<point x="572" y="678"/>
			<point x="628" y="641" type="curve"/>
			<point x="638" y="639" type="line"/>
			<point x="638" y="645" type="line"/>
			<point x="588" y="686"/>
			<point x="487" y="708"/>
			<point x="388" y="708" type="curve" smooth="yes"/>
			<point x="286" y="708"/>
			<point x="199" y="676"/>
			<point x="136" y="612" type="curve" smooth="yes"/>
			<point x="73" y="546"/>
			<point x="43" y="456"/>
			<point x="43" y="350" type="curve" smooth="yes"/>
			<point x="43" y="238"/>
			<point x="77" y="150"/>
			<point x="135" y="89" type="curve" smooth="yes"/>
			<point x="196" y="24"/>
			<point x="281" y="-8"/>
		</contour>
		<component base="SerifUpRightCaps" xScale="-1" yScale="-1" xOffset="638" yOffset="639"/>
	</outline>
</glyph>
<glyph name="H" format="2">
	<advance width="764"/>
	<unicode hex="0048"/>
	<anchor x="382" y="356" name="center"/>
	<anchor x="382" y="700" name="top"/>
	<anchor x="58" y="700" name="topleft"/>
	<anchor x="382" y="0" name="bottom"/>
	<note>
		H
	</note>
	<outline>
		<contour>
			<point x="124" y="0" type="line"/>
			<point x="136" y="0" type="line"/>
			<point x="136" y="350" type="line"/>
			<point x="628" y="350" type="line"/>
			<point x="628" y="0" type="line"/>
			<point x="640" y="0" type="line"/>
			<point x="640" y="700" type="line"/>
			<point x="628" y="700" type="line"/>
			<point x="628" y="361" type="line"/>
			<point x="136" y="361" type="line"/>
			<point x="136" y="700" type="line"/>
			<point x="124" y="700" type="line"/>
		</contour>
		<component base="SerifBottomLeft" xOffset="124"/>
		<component base="SerifBottomRight" xOffset="136"/>
		<component base="SerifSpurLeft" xOffset="124" yOffset="700"/>
		<component base="SerifSpurRight" xOffset="136" yOffset="700"/>
		<component base="SerifBottomLeft" xOffset="628"/>
		<component base="SerifBottomRight" xOffset="640"/>
		<component base="SerifSpurLeft" xOffset="628" yOffset="700"/>
		<component base="SerifSpurRight" xOffset="640" yOffset="700"/>
	</outline>
</glyph>
<glyph name="I" format="2">
	<advance width="260"/>
	<unicode hex="0049"/>
	<anchor x="127" y="2" name="ogonek"/>
	<anchor x="130" y="0" name="bottom"/>
	<anchor x="130" y="700" name="top"/>
	<note>
		I
	</note>
	<outline>
		<contour>
			<point x="124" y="0" type="line"/>
			<point x="136" y="0" type="line"/>
			<point x="136" y="700" type="line"/>
			<point x="124" y="700" type="line"/>
		</contour>
		<component base="SerifBottomLeft" xOffset="124"/>
		<component base="SerifBottomRight" xOffset="136"/>
		<component base="SerifSpurLeft" xOffset="124" yOffset="700"/>
		<component base="SerifSpurRight" xOffset="136" yOffset="700"/>
	</outline>
</glyph>
<glyph name="J" format="2">
	<advance width="394"/>
	<unicode hex="004A"/>
	<anchor x="280" y="700" name="top"/>
	<note>
		J
	</note>
	<outline>
		<contour>
			<point x="89" y="-8" type="curve" smooth="yes"/>
			<point x="210" y="-8"/>
			<point x="286" y="76"/>
			<point x="286" y="226" type="curve" smooth="yes"/>
			<point x="286" y="700" type="line"/>
			<point x="274" y="700" type="line"/>
			<point x="274" y="226" type="line" smooth="yes"/>
			<point x="274" y="83"/>
			<point x="203" y="2"/>
			<point x="95" y="2" type="curve" smooth="yes"/>
			<point x="77" y="2"/>
			<point x="61" y="4"/>
			<point x="48" y="7" type="curve" smooth="yes"/>
			<point x="30" y="11"/>
			<point x="17" y="15"/>
			<point x="10" y="15" type="curve" smooth="yes"/>
			<point x="5" y="15"/>
			<point x="3" y="13"/>
			<point x="2" y="10" type="curve" smooth="yes"/>
			<point x="1" y="7" type="line"/>
			<point x="31" y="-3"/>
			<point x="59" y="-8"/>
		</contour>
		<component base="SerifSpurLeft" xOffset="274" yOffset="700"/>
		<component base="SerifSpurRight" xOffset="286" yOffset="700"/>
	</outline>
</glyph>
<glyph name="K" format="2">
	<advance width="698"/>
	<unicode hex="004B"/>
	<anchor x="344" y="700" name="top"/>
	<anchor x="344" y="0" name="bottom"/>
	<note>
		K
	</note>
	<outline>
		<contour>
			<point x="124" y="0" type="line"/>
			<point x="136" y="0" type="line"/>
			<point x="136" y="352" type="line"/>
			<point x="183" y="352" type="line" smooth="yes"/>
			<point x="207" y="352"/>
			<point x="217" y="349"/>
			<point x="235" y="332" type="curve" smooth="yes"/>
			<point x="579" y="7" type="line" smooth="yes"/>
			<point x="584" y="2"/>
			<point x="588" y="0"/>
			<point x="597" y="0" type="curve" smooth="yes"/>
			<point x="602" y="0" type="line"/>
			<point x="241" y="341" type="line"/>
			<point x="233" y="350"/>
			<point x="224" y="356"/>
			<point x="212" y="357" type="curve"/>
			<point x="225" y="360"/>
			<point x="232" y="364"/>
			<point x="242" y="374" type="curve" smooth="yes"/>
			<point x="582" y="700" type="line"/>
			<point x="576" y="700" type="line" smooth="yes"/>
			<point x="569" y="700"/>
			<point x="566" y="699"/>
			<point x="558" y="692" type="curve" smooth="yes"/>
			<point x="232" y="379" type="line"/>
			<point x="215" y="364"/>
			<point x="208" y="362"/>
			<point x="183" y="362" type="curve" smooth="yes"/>
			<point x="136" y="362" type="line"/>
			<point x="136" y="700" type="line"/>
			<point x="124" y="700" type="line"/>
		</contour>
		<contour>
			<point x="555" y="687" type="line"/>
			<point x="577" y="688" type="line"/>
			<point x="600" y="700" type="line"/>
			<point x="576" y="700" type="line"/>
			<point x="564" y="692" type="line"/>
		</contour>
		<contour>
			<point x="597" y="0" type="line"/>
			<point x="598" y="12" type="line"/>
			<point x="574" y="13" type="line"/>
		</contour>
		<component base="SerifBottomLeft" xOffset="124"/>
		<component base="SerifBottomRight" xOffset="136"/>
		<component base="SerifSpurLeft" xOffset="124" yOffset="700"/>
		<component base="SerifSpurRight" xOffset="136" yOffset="700"/>
		<component base="SerifBottomRight" xOffset="600"/>
		<component base="SerifSpurRight" xOffset="579" yOffset="700"/>
		<component base="SerifSpurLeft" xOffset="574" yOffset="700"/>
	</outline>
</glyph>
<glyph name="L" format="2">
	<advance width="513"/>
	<unicode hex="004C"/>
	<anchor x="130" y="357" name="center"/>
	<anchor x="289" y="0" name="bottom"/>
	<anchor x="130" y="700" name="top"/>
	<note>
		L
	</note>
	<outline>
		<contour>
			<point x="124" y="0" type="line"/>
			<point x="503" y="0" type="line"/>
			<point x="503" y="11" type="line"/>
			<point x="136" y="11" type="line"/>
			<point x="136" y="700" type="line"/>
			<point x="124" y="700" type="line"/>
		</contour>
		<component base="SerifUpLeftCaps" xOffset="503" yOffset="11"/>
		<component base="SerifBottomLeft" xOffset="124"/>
		<component base="SerifSpurLeft" xOffset="124" yOffset="700"/>
		<component base="SerifSpurRight" xOffset="136" yOffset="700"/>
	</outline>
</glyph>
<glyph name="M" format="2">
	<advance width="907"/>
	<unicode hex="004D"/>
	<anchor x="454" y="700" name="top"/>
	<anchor x="454" y="0" name="bottom"/>
	<note>
		M
	</note>
	<outline>
		<contour>
			<point x="124" y="0" type="line"/>
			<point x="134" y="0" type="line"/>
			<point x="134" y="669" type="line" smooth="yes"/>
			<point x="134" y="672"/>
			<point x="134" y="674"/>
			<point x="134" y="679" type="curve"/>
			<point x="450" y="145" type="line" smooth="yes"/>
			<point x="452" y="142"/>
			<point x="454" y="140"/>
			<point x="457" y="140" type="curve" smooth="yes"/>
			<point x="461" y="140" type="line" smooth="yes"/>
			<point x="463" y="140"/>
			<point x="465" y="142"/>
			<point x="467" y="145" type="curve" smooth="yes"/>
			<point x="773" y="677" type="line" smooth="yes"/>
			<point x="773" y="677"/>
			<point x="773" y="669"/>
			<point x="773" y="669" type="curve" smooth="yes"/>
			<point x="773" y="0" type="line"/>
			<point x="783" y="0" type="line"/>
			<point x="783" y="700" type="line"/>
			<point x="779" y="700" type="line" smooth="yes"/>
			<point x="776" y="700"/>
			<point x="774" y="699"/>
			<point x="772" y="696" type="curve" smooth="yes"/>
			<point x="464" y="161" type="line" smooth="yes"/>
			<point x="462" y="157"/>
			<point x="460" y="153"/>
			<point x="459" y="150" type="curve"/>
			<point x="457" y="154"/>
			<point x="455" y="158"/>
			<point x="453" y="161" type="curve" smooth="yes"/>
			<point x="135" y="696" type="line" smooth="yes"/>
			<point x="133" y="699"/>
			<point x="131" y="700"/>
			<point x="128" y="700" type="curve" smooth="yes"/>
			<point x="124" y="700" type="line"/>
		</contour>
		<component base="SerifBottomLeft" xOffset="124"/>
		<component base="SerifBottomRight" xOffset="134"/>
		<component base="SerifSpurLeft" xOffset="124" yOffset="700"/>
		<component base="SerifBottomLeft" xOffset="773"/>
		<component base="SerifBottomRight" xOffset="783"/>
		<component base="SerifSpurRight" xOffset="783" yOffset="700"/>
	</outline>
</glyph>
<glyph name="N" format="2">
	<advance width="765"/>
	<unicode hex="004E"/>
	<anchor x="372" y="700" name="top"/>
	<anchor x="372" y="0" name="bottom"/>
	<note>
		N
	</note>
	<outline>
		<contour>
			<point x="124" y="0" type="line"/>
			<point x="136" y="0" type="line"/>
			<point x="136" y="669" type="line" smooth="yes"/>
			<point x="136" y="677"/>
			<point x="136" y="678"/>
			<point x="136" y="681" type="curve"/>
			<point x="634" y="4" type="line" smooth="yes"/>
			<point x="636" y="1"/>
			<point x="638" y="0"/>
			<point x="639" y="0" type="curve" smooth="yes"/>
			<point x="644" y="0" type="line"/>
			<point x="644" y="700" type="line"/>
			<point x="632" y="700" type="line"/>
			<point x="632" y="32" type="line" smooth="yes"/>
			<point x="632" y="29"/>
			<point x="634" y="20"/>
			<point x="633" y="22" type="curve" smooth="yes"/>
			<point x="137" y="696" type="line"/>
			<point x="136" y="698"/>
			<point x="134" y="700"/>
			<point x="130" y="700" type="curve"/>
			<point x="124" y="700" type="line"/>
		</contour>
		<component base="SerifBottomLeft" xOffset="124"/>
		<component base="SerifBottomRight" xOffset="136"/>
		<component base="SerifSpurLeft" xOffset="124" yOffset="700"/>
		<component base="SerifSpurLeft" xOffset="632" yOffset="700"/>
		<component base="SerifSpurRight" xOffset="644" yOffset="700"/>
	</outline>
</glyph>
<glyph name="O" format="2">
	<advance width="733"/>
	<unicode hex="004F"/>
	<anchor x="367" y="350" name="center"/>
	<anchor x="365" y="-4" name="ogonek"/>
	<anchor x="367" y="700" name="top"/>
	<anchor x="745" y="700" name="topright"/>
	<anchor x="-12" y="700" name="topleft"/>
	<anchor x="367" y="0" name="bottom"/>
	<note>
		O
	</note>
	<outline>
		<contour>
			<point x="366" y="-7" type="curve" smooth="yes"/>
			<point x="462" y="-7"/>
			<point x="543" y="28"/>
			<point x="600" y="89" type="curve" smooth="yes"/>
			<point x="657" y="150"/>
			<point x="690" y="239"/>
			<point x="690" y="350" type="curve" smooth="yes"/>
			<point x="690" y="461"/>
			<point x="657" y="551"/>
			<point x="600" y="613" type="curve" smooth="yes"/>
			<point x="543" y="675"/>
			<point x="462" y="708"/>
			<point x="366" y="708" type="curve" smooth="yes"/>
			<point x="271" y="708"/>
			<point x="190" y="674"/>
			<point x="134" y="612" type="curve" smooth="yes"/>
			<point x="77" y="550"/>
			<point x="43" y="461"/>
			<point x="43" y="350" type="curve" smooth="yes"/>
			<point x="43" y="239"/>
			<point x="77" y="150"/>
			<point x="134" y="89" type="curve" smooth="yes"/>
			<point x="190" y="28"/>
			<point x="271" y="-7"/>
		</contour>
		<contour>
			<point x="366" y="3" type="curve" smooth="yes"/>
			<point x="176" y="3"/>
			<point x="55" y="146"/>
			<point x="55" y="350" type="curve" smooth="yes"/>
			<point x="55" y="552"/>
			<point x="171" y="698"/>
			<point x="366" y="698" type="curve" smooth="yes"/>
			<point x="561" y="698"/>
			<point x="677" y="558"/>
			<point x="677" y="350" type="curve" smooth="yes"/>
			<point x="677" y="145"/>
			<point x="560" y="3"/>
		</contour>
	</outline>
</glyph>
<glyph name="P" format="2">
	<advance width="552"/>
	<unicode hex="0050"/>
	<note>
		P
	</note>
	<outline>
		<contour>
			<point x="124" y="0" type="line"/>
			<point x="136" y="0" type="line"/>
			<point x="136" y="300" type="line"/>
			<point x="282" y="300" type="line" smooth="yes"/>
			<point x="419" y="300"/>
			<point x="519" y="381"/>
			<point x="519" y="500" type="curve" smooth="yes"/>
			<point x="519" y="635"/>
			<point x="435" y="700"/>
			<point x="282" y="700" type="curve" smooth="yes"/>
			<point x="124" y="700" type="line"/>
		</contour>
		<contour>
			<point x="136" y="310" type="line"/>
			<point x="136" y="690" type="line"/>
			<point x="282" y="690" type="line" smooth="yes"/>
			<point x="433" y="690"/>
			<point x="507" y="625"/>
			<point x="507" y="500" type="curve" smooth="yes"/>
			<point x="507" y="390"/>
			<point x="413" y="310"/>
			<point x="282" y="310" type="curve" smooth="yes"/>
		</contour>
		<component base="SerifBottomLeft" xOffset="124"/>
		<component base="SerifSpurLeft" xOffset="124" yOffset="700"/>
		<component base="SerifBottomRight" xOffset="136"/>
	</outline>
</glyph>
<glyph name="Q" format="2">
	<advance width="735"/>
	<unicode hex="0051"/>
	<note>
		Q
	</note>
	<outline>
		<contour>
			<point x="704" y="-163" type="curve" smooth="yes"/>
			<point x="715" y="-163" type="line"/>
			<point x="530" y="33" type="line"/>
			<point x="634" y="92"/>
			<point x="690" y="206"/>
			<point x="690" y="350" type="curve" smooth="yes"/>
			<point x="690" y="461"/>
			<point x="657" y="551"/>
			<point x="600" y="613" type="curve" smooth="yes"/>
			<point x="543" y="675"/>
			<point x="462" y="708"/>
			<point x="366" y="708" type="curve" smooth="yes"/>
			<point x="271" y="708"/>
			<point x="190" y="674"/>
			<point x="134" y="612" type="curve" smooth="yes"/>
			<point x="77" y="550"/>
			<point x="43" y="461"/>
			<point x="43" y="350" type="curve" smooth="yes"/>
			<point x="43" y="239"/>
			<point x="77" y="150"/>
			<point x="134" y="89" type="curve" smooth="yes"/>
			<point x="190" y="28"/>
			<point x="271" y="-7"/>
			<point x="366" y="-7" type="curve" smooth="yes"/>
			<point x="423" y="-7"/>
			<point x="475" y="5"/>
			<point x="519" y="28" type="curve"/>
			<point x="694" y="-159" type="line" smooth="yes"/>
			<point x="697" y="-162"/>
			<point x="699" y="-163"/>
		</contour>
		<contour>
			<point x="366" y="3" type="curve" smooth="yes"/>
			<point x="175" y="3"/>
			<point x="55" y="146"/>
			<point x="55" y="350" type="curve" smooth="yes"/>
			<point x="55" y="552"/>
			<point x="171" y="698"/>
			<point x="366" y="698" type="curve" smooth="yes"/>
			<point x="561" y="698"/>
			<point x="677" y="558"/>
			<point x="677" y="350" type="curve" smooth="yes"/>
			<point x="677" y="145"/>
			<point x="561" y="3"/>
		</contour>
	</outline>
</glyph>
<glyph name="R" format="2">
	<advance width="669"/>
	<unicode hex="0052"/>
	<anchor x="303" y="700" name="top"/>
	<anchor x="303" y="0" name="bottom"/>
	<note>
		R
	</note>
	<outline>
		<contour>
			<point x="124" y="0" type="line"/>
			<point x="136" y="0" type="line"/>
			<point x="136" y="338" type="line"/>
			<point x="245" y="338" type="line" smooth="yes"/>
			<point x="269" y="338"/>
			<point x="282" y="336"/>
			<point x="293" y="320" type="curve"/>
			<point x="555" y="6" type="line" smooth="yes"/>
			<point x="560" y="1"/>
			<point x="563" y="0"/>
			<point x="568" y="0" type="curve" smooth="yes"/>
			<point x="576" y="0" type="line"/>
			<point x="303" y="325" type="line" smooth="yes"/>
			<point x="297" y="332"/>
			<point x="293" y="335"/>
			<point x="286" y="338" type="curve"/>
			<point x="418" y="341"/>
			<point x="513" y="410"/>
			<point x="513" y="525" type="curve" smooth="yes"/>
			<point x="513" y="645"/>
			<point x="433" y="700"/>
			<point x="286" y="700" type="curve" smooth="yes"/>
			<point x="124" y="700" type="line"/>
		</contour>
		<contour>
			<point x="136" y="348" type="line"/>
			<point x="136" y="690" type="line"/>
			<point x="286" y="690" type="line" smooth="yes"/>
			<point x="425" y="690"/>
			<point x="501" y="640"/>
			<point x="501" y="525" type="curve" smooth="yes"/>
			<point x="501" y="413"/>
			<point x="411" y="348"/>
			<point x="277" y="348" type="curve" smooth="yes"/>
		</contour>
		<contour>
			<point x="568" y="0" type="line"/>
			<point x="569" y="12" type="line"/>
			<point x="550" y="13" type="line"/>
		</contour>
		<component base="SerifBottomLeft" xOffset="124"/>
		<component base="SerifSpurLeft" xOffset="124" yOffset="700"/>
		<component base="SerifBottomRight" xOffset="136"/>
		<component base="SerifBottomRight" xOffset="571"/>
	</outline>
</glyph>
<glyph name="S" format="2">
	<advance width="515"/>
	<unicode hex="0053"/>
	<anchor x="258" y="700" name="top"/>
	<anchor x="258" y="0" name="bottom"/>
	<note>
		S
	</note>
	<outline>
		<contour>
			<point x="245" y="-8" type="curve" smooth="yes"/>
			<point x="381" y="-8"/>
			<point x="465" y="78"/>
			<point x="465" y="196" type="curve" smooth="yes"/>
			<point x="465" y="301"/>
			<point x="393" y="337"/>
			<point x="283" y="371" type="curve" smooth="yes"/>
			<point x="179" y="403"/>
			<point x="100" y="441"/>
			<point x="100" y="535" type="curve" smooth="yes"/>
			<point x="100" y="628"/>
			<point x="168" y="698"/>
			<point x="281" y="698" type="curve" smooth="yes"/>
			<point x="344" y="698"/>
			<point x="388" y="676"/>
			<point x="431" y="634" type="curve"/>
			<point x="438" y="634" type="line"/>
			<point x="442" y="639" type="line"/>
			<point x="397" y="687"/>
			<point x="345" y="708"/>
			<point x="281" y="708" type="curve" smooth="yes"/>
			<point x="161" y="708"/>
			<point x="89" y="634"/>
			<point x="89" y="536" type="curve" smooth="yes"/>
			<point x="89" y="448"/>
			<point x="147" y="407"/>
			<point x="217" y="381" type="curve" smooth="yes"/>
			<point x="321" y="342"/>
			<point x="454" y="330"/>
			<point x="454" y="193" type="curve" smooth="yes"/>
			<point x="454" y="82"/>
			<point x="370" y="2"/>
			<point x="247" y="2" type="curve" smooth="yes"/>
			<point x="166" y="2"/>
			<point x="105" y="40"/>
			<point x="68" y="89" type="curve"/>
			<point x="59" y="91" type="line"/>
			<point x="55" y="83" type="line"/>
			<point x="105" y="24"/>
			<point x="162" y="-8"/>
		</contour>
		<component base="SerifUpRightCaps" xScale="-1" yScale="-1" xOffset="442" yOffset="639"/>
		<component base="SerifUpRightCaps" xOffset="55" yOffset="83"/>
	</outline>
</glyph>
<glyph name="T" format="2">
	<advance width="580"/>
	<unicode hex="0054"/>
	<anchor x="290" y="350" name="center"/>
	<anchor x="290" y="0" name="bottom"/>
	<anchor x="290" y="700" name="top"/>
	<note>
		T
	</note>
	<outline>
		<contour>
			<point x="285" y="0" type="line"/>
			<point x="297" y="0" type="line"/>
			<point x="297" y="689" type="line"/>
			<point x="560" y="689" type="line"/>
			<point x="560" y="700" type="line"/>
			<point x="20" y="700" type="line"/>
			<point x="20" y="689" type="line"/>
			<point x="285" y="689" type="line"/>
		</contour>
		<component base="SerifBottomLeft" xOffset="285"/>
		<component base="SerifBottomRight" xOffset="297"/>
		<component base="SerifUpRightCaps" xScale="-1" yScale="-1" xOffset="560" yOffset="689"/>
		<component base="SerifUpLeftCaps" xScale="-1" yScale="-1" xOffset="20" yOffset="689"/>
	</outline>
</glyph>
<glyph name="U" format="2">
	<advance width="722"/>
	<unicode hex="0055"/>
	<anchor x="359" y="-6" name="ogonek"/>
	<anchor x="361" y="700" name="top"/>
	<anchor x="675" y="700" name="topright"/>
	<anchor x="361" y="0" name="bottom"/>
	<note>
		U
	</note>
	<outline>
		<contour>
			<point x="361" y="-9" type="curve" smooth="yes"/>
			<point x="515" y="-9"/>
			<point x="614" y="112"/>
			<point x="614" y="260" type="curve" smooth="yes"/>
			<point x="614" y="700" type="line"/>
			<point x="602" y="700" type="line"/>
			<point x="602" y="260" type="line" smooth="yes"/>
			<point x="602" y="116"/>
			<point x="510" y="2"/>
			<point x="361" y="2" type="curve" smooth="yes"/>
			<point x="213" y="2"/>
			<point x="120" y="116"/>
			<point x="120" y="261" type="curve" smooth="yes"/>
			<point x="120" y="700" type="line"/>
			<point x="108" y="700" type="line"/>
			<point x="108" y="260" type="line" smooth="yes"/>
			<point x="108" y="111"/>
			<point x="207" y="-9"/>
		</contour>
		<component base="SerifSpurLeft" xOffset="108" yOffset="700"/>
		<component base="SerifSpurRight" xOffset="120" yOffset="700"/>
		<component base="SerifSpurLeft" xOffset="602" yOffset="700"/>
		<component base="SerifSpurRight" xOffset="614" yOffset="700"/>
	</outline>
</glyph>
<glyph name="V" format="2">
	<advance width="765"/>
	<unicode hex="0056"/>
	<anchor x="383" y="700" name="top"/>
	<anchor x="383" y="0" name="bottom"/>
	<note>
		V
	</note>
	<outline>
		<contour>
			<point x="377" y="0" type="line"/>
			<point x="387" y="0" type="line"/>
			<point x="679" y="700" type="line"/>
			<point x="671" y="700" type="line" smooth="yes"/>
			<point x="668" y="700"/>
			<point x="665" y="698"/>
			<point x="664" y="695" type="curve" smooth="yes"/>
			<point x="390" y="37" type="line" smooth="yes"/>
			<point x="386" y="28"/>
			<point x="383" y="22"/>
			<point x="382" y="17" type="curve"/>
			<point x="381" y="22"/>
			<point x="378" y="28"/>
			<point x="374" y="37" type="curve" smooth="yes"/>
			<point x="100" y="695" type="line" smooth="yes"/>
			<point x="99" y="698"/>
			<point x="97" y="700"/>
			<point x="94" y="700" type="curve" smooth="yes"/>
			<point x="85" y="700" type="line"/>
		</contour>
		<contour>
			<point x="89" y="692" type="line"/>
			<point x="105" y="692" type="line"/>
			<point x="105" y="700" type="line"/>
			<point x="89" y="700" type="line"/>
		</contour>
		<contour>
			<point x="659" y="692" type="line"/>
			<point x="675" y="692" type="line"/>
			<point x="675" y="700" type="line"/>
			<point x="659" y="700" type="line"/>
		</contour>
		<component base="SerifSpurLeft" xOffset="98" yOffset="700"/>
		<component base="SerifSpurRight" xOffset="94" yOffset="700"/>
		<component base="SerifSpurLeft" xOffset="671" yOffset="700"/>
		<component base="SerifSpurRight" xOffset="667" yOffset="700"/>
	</outline>
</glyph>
<glyph name="W" format="2">
	<advance width="1110"/>
	<unicode hex="0057"/>
	<anchor x="555" y="700" name="top"/>
	<anchor x="555" y="0" name="bottom"/>
	<note>
		W
	</note>
	<outline>
		<contour>
			<point x="307" y="0" type="line"/>
			<point x="317" y="0" type="line"/>
			<point x="550" y="672" type="line" smooth="yes"/>
			<point x="552" y="679"/>
			<point x="554" y="684"/>
			<point x="555" y="688" type="curve"/>
			<point x="556" y="684"/>
			<point x="557" y="679"/>
			<point x="559" y="672" type="curve" smooth="yes"/>
			<point x="792" y="0" type="line"/>
			<point x="802" y="0" type="line"/>
			<point x="1024" y="700" type="line"/>
			<point x="1016" y="700" type="line" smooth="yes"/>
			<point x="1013" y="700"/>
			<point x="1010" y="698"/>
			<point x="1009" y="695" type="curve" smooth="yes"/>
			<point x="805" y="42" type="line"/>
			<point x="802" y="34"/>
			<point x="799" y="25"/>
			<point x="797" y="15" type="curve"/>
			<point x="796" y="24"/>
			<point x="793" y="33"/>
			<point x="790" y="42" type="curve" smooth="yes"/>
			<point x="562" y="695" type="line"/>
			<point x="561" y="698"/>
			<point x="559" y="700"/>
			<point x="556" y="700" type="curve" smooth="yes"/>
			<point x="553" y="700" type="line" smooth="yes"/>
			<point x="550" y="700"/>
			<point x="548" y="698"/>
			<point x="547" y="695" type="curve" smooth="yes"/>
			<point x="320" y="42" type="line" smooth="yes"/>
			<point x="319" y="38"/>
			<point x="313" y="18"/>
			<point x="312" y="15" type="curve"/>
			<point x="311" y="19"/>
			<point x="309" y="29"/>
			<point x="305" y="42" type="curve" smooth="yes"/>
			<point x="100" y="695" type="line" smooth="yes"/>
			<point x="99" y="698"/>
			<point x="97" y="700"/>
			<point x="94" y="700" type="curve" smooth="yes"/>
			<point x="85" y="700" type="line"/>
		</contour>
		<contour>
			<point x="88" y="700" type="line"/>
			<point x="88" y="692" type="line"/>
			<point x="105" y="692" type="line"/>
			<point x="105" y="700" type="line"/>
		</contour>
		<contour>
			<point x="1004" y="700" type="line"/>
			<point x="1004" y="691" type="line"/>
			<point x="1020" y="691" type="line"/>
			<point x="1020" y="700" type="line"/>
		</contour>
		<component base="SerifSpurLeft" xOffset="98" yOffset="700"/>
		<component base="SerifSpurRight" xOffset="94" yOffset="700"/>
		<component base="SerifSpurLeft" xOffset="1016" yOffset="700"/>
		<component base="SerifSpurRight" xOffset="1012" yOffset="700"/>
	</outline>
</glyph>
<glyph name="X" format="2">
	<advance width="696"/>
	<unicode hex="0058"/>
	<anchor x="350" y="700" name="top"/>
	<anchor x="350" y="0" name="bottom"/>
	<note>
		X
	</note>
	<outline>
		<contour>
			<point x="77" y="0" type="line"/>
			<point x="88" y="0" type="line" smooth="yes"/>
			<point x="90" y="0"/>
			<point x="96" y="5"/>
			<point x="97" y="7" type="curve" smooth="yes"/>
			<point x="344" y="346" type="line" smooth="yes"/>
			<point x="346" y="349"/>
			<point x="348" y="352"/>
			<point x="348" y="353" type="curve"/>
			<point x="599" y="7" type="line" smooth="yes"/>
			<point x="602" y="2"/>
			<point x="604" y="0"/>
			<point x="608" y="0" type="curve" smooth="yes"/>
			<point x="619" y="0" type="line"/>
			<point x="357" y="360" type="line"/>
			<point x="607" y="700" type="line"/>
			<point x="596" y="700" type="line" smooth="yes"/>
			<point x="592" y="700"/>
			<point x="590" y="697"/>
			<point x="587" y="693" type="curve" smooth="yes"/>
			<point x="355" y="375" type="line" smooth="yes"/>
			<point x="353" y="372"/>
			<point x="351" y="368"/>
			<point x="349" y="365" type="curve"/>
			<point x="109" y="693" type="line" smooth="yes"/>
			<point x="106" y="697"/>
			<point x="105" y="700"/>
			<point x="100" y="700" type="curve" smooth="yes"/>
			<point x="89" y="700" type="line"/>
			<point x="340" y="358" type="line"/>
		</contour>
		<contour>
			<point x="85" y="0" type="line"/>
			<point x="102" y="0" type="line"/>
			<point x="102" y="9" type="line"/>
			<point x="85" y="9" type="line"/>
		</contour>
		<contour>
			<point x="597" y="0" type="line"/>
			<point x="612" y="0" type="line"/>
			<point x="612" y="8" type="line"/>
			<point x="597" y="8" type="line"/>
		</contour>
		<contour>
			<point x="96" y="692" type="line"/>
			<point x="111" y="692" type="line"/>
			<point x="111" y="700" type="line"/>
			<point x="96" y="700" type="line"/>
		</contour>
		<contour>
			<point x="587" y="694" type="line"/>
			<point x="600" y="694" type="line"/>
			<point x="600" y="700" type="line"/>
			<point x="587" y="700" type="line"/>
		</contour>
		<component base="SerifSpurLeft" xOffset="110" yOffset="700"/>
		<component base="SerifSpurRight" xOffset="106" yOffset="700"/>
		<component base="SerifSpurLeft" xOffset="590" yOffset="700"/>
		<component base="SerifSpurRight" xOffset="586" yOffset="700"/>
		<component base="SerifSpurRight" xScale="-1" yScale="-1" xOffset="98"/>
		<component base="SerifSpurLeft" xScale="-1" yScale="-1" xOffset="94"/>
		<component base="SerifSpurLeft" xScale="-1" yScale="-1" xOffset="598"/>
		<component base="SerifSpurRight" xScale="-1" yScale="-1" xOffset="602"/>
	</outline>
</glyph>
<glyph name="Y" format="2">
	<advance width="700"/>
	<unicode hex="0059"/>
	<anchor x="350" y="700" name="top"/>
	<anchor x="350" y="0" name="bottom"/>
	<anchor x="83" y="700" name="topleft"/>
	<note>
		Y
	</note>
	<outline>
		<contour>
			<point x="344" y="0" type="line"/>
			<point x="356" y="0" type="line"/>
			<point x="356" y="298" type="line"/>
			<point x="617" y="700" type="line"/>
			<point x="607" y="700" type="line" smooth="yes"/>
			<point x="604" y="700"/>
			<point x="602" y="699"/>
			<point x="600" y="696" type="curve" smooth="yes"/>
			<point x="365" y="331" type="line" smooth="yes"/>
			<point x="361" y="325"/>
			<point x="353" y="313"/>
			<point x="350" y="307" type="curve"/>
			<point x="346" y="315"/>
			<point x="341" y="323"/>
			<point x="336" y="331" type="curve" smooth="yes"/>
			<point x="100" y="696" type="line" smooth="yes"/>
			<point x="98" y="699"/>
			<point x="96" y="700"/>
			<point x="93" y="700" type="curve" smooth="yes"/>
			<point x="83" y="700" type="line"/>
			<point x="344" y="298" type="line"/>
		</contour>
		<contour>
			<point x="90" y="691" type="line"/>
			<point x="105" y="691" type="line"/>
			<point x="105" y="700" type="line"/>
			<point x="90" y="700" type="line"/>
		</contour>
		<contour>
			<point x="596" y="691" type="line"/>
			<point x="610" y="691" type="line"/>
			<point x="610" y="700" type="line"/>
			<point x="596" y="700" type="line"/>
		</contour>
		<component base="SerifSpurLeft" xOffset="98" yOffset="700"/>
		<component base="SerifSpurRight" xOffset="94" yOffset="700"/>
		<component base="SerifSpurLeft" xOffset="606" yOffset="700"/>
		<component base="SerifSpurRight" xOffset="602" yOffset="700"/>
		<component base="SerifBottomLeft" xOffset="344"/>
		<component base="SerifBottomRight" xOffset="356"/>
	</outline>
</glyph>
<glyph name="Z" format="2">
	<advance width="578"/>
	<unicode hex="005A"/>
	<anchor x="286" y="346" name="center"/>
	<anchor x="286" y="0" name="bottom"/>
	<anchor x="286" y="700" name="top"/>
	<note>
		Z
	</note>
	<outline>
		<contour>
			<point x="35" y="0" type="line"/>
			<point x="542" y="0" type="line"/>
			<point x="542" y="11" type="line"/>
			<point x="52" y="11" type="line"/>
			<point x="539" y="688" type="line" smooth="yes"/>
			<point x="542" y="692"/>
			<point x="543" y="695"/>
			<point x="543" y="698" type="curve" smooth="yes"/>
			<point x="543" y="700" type="line"/>
			<point x="43" y="700" type="line"/>
			<point x="43" y="689" type="line"/>
			<point x="526" y="689" type="line"/>
			<point x="38" y="11" type="line" smooth="yes"/>
			<point x="36" y="9"/>
			<point x="35" y="6"/>
			<point x="35" y="2" type="curve" smooth="yes"/>
		</contour>
		<component base="SerifUpLeftCaps" xOffset="542" yOffset="11"/>
		<component base="SerifUpLeftCaps" xScale="-1" yScale="-1" xOffset="43" yOffset="689"/>
	</outline>
</glyph>
<glyph name="bracketleft" format="2">
	<advance width="295"/>
	<unicode hex="005B"/>
	<note>
		bracketleft
	</note>
	<outline>
		<contour>
			<point x="234" y="-121" type="line"/>
			<point x="234" y="-118" type="line" smooth="yes"/>
			<point x="234" y="-114"/>
			<point x="232" y="-112"/>
			<point x="227" y="-112" type="curve" smooth="yes"/>
			<point x="108" y="-112" type="line"/>
			<point x="108" y="742" type="line"/>
			<point x="227" y="742" type="line" smooth="yes"/>
			<point x="232" y="742"/>
			<point x="234" y="744"/>
			<point x="234" y="748" type="curve" smooth="yes"/>
			<point x="234" y="751" type="line"/>
			<point x="97" y="751" type="line"/>
			<point x="97" y="-121" type="line"/>
			<point x="234" y="-121" type="line"/>
		</contour>
	</outline>
</glyph>
<glyph name="backslash" format="2">
	<advance width="388"/>
	<unicode hex="005C"/>
	<note>
		backslash
	</note>
	<outline>
		<contour>
			<point x="347" y="-33" type="line"/>
			<point x="350" y="-38"/>
			<point x="354" y="-39"/>
			<point x="358" y="-39" type="curve" smooth="yes"/>
			<point x="362" y="-39" type="line"/>
			<point x="42" y="714" type="line" smooth="yes"/>
			<point x="40" y="718"/>
			<point x="37" y="720"/>
			<point x="32" y="720" type="curve" smooth="yes"/>
			<point x="27" y="720" type="line"/>
			<point x="347" y="-33" type="line"/>
		</contour>
	</outline>
</glyph>
<glyph name="bracketright" format="2">
	<advance width="295"/>
	<unicode hex="005D"/>
	<note>
		bracketright
	</note>
	<outline>
		<contour>
			<point x="61" y="-121" type="line"/>
			<point x="198" y="-121" type="line"/>
			<point x="198" y="751" type="line"/>
			<point x="61" y="751" type="line"/>
			<point x="61" y="748" type="line" smooth="yes"/>
			<point x="61" y="744"/>
			<point x="63.333" y="742"/>
			<point x="68" y="742" type="curve" smooth="yes"/>
			<point x="187" y="742" type="line"/>
			<point x="187" y="-112" type="line"/>
			<point x="68" y="-112" type="line" smooth="yes"/>
			<point x="63.333" y="-112"/>
			<point x="61" y="-114"/>
			<point x="61" y="-118" type="curve" smooth="yes"/>
		</contour>
	</outline>
</glyph>
<glyph name="asciicircum" format="2">
	<advance width="424"/>
	<unicode hex="005E"/>
	<note>
		asciicircum
	</note>
	<outline>
		<contour>
			<point x="46" y="406" type="line"/>
			<point x="53" y="406" type="line" smooth="yes"/>
			<point x="58" y="406"/>
			<point x="62" y="410"/>
			<point x="63" y="413" type="curve" smooth="yes"/>
			<point x="203" y="666" type="line" smooth="yes"/>
			<point x="207" y="673"/>
			<point x="210" y="679"/>
			<point x="212" y="686" type="curve"/>
			<point x="213" y="684"/>
			<point x="221" y="667"/>
			<point x="221" y="666" type="curve" smooth="yes"/>
			<point x="361" y="413" type="line" smooth="yes"/>
			<point x="364" y="408"/>
			<point x="367" y="406"/>
			<point x="371" y="406" type="curve" smooth="yes"/>
			<point x="378" y="406" type="line"/>
			<point x="215" y="700" type="line"/>
			<point x="209" y="700" type="line"/>
		</contour>
	</outline>
</glyph>
<glyph name="underscore" format="2">
	<advance width="394"/>
	<unicode hex="005F"/>
	<note>
		underscore
	</note>
	<outline>
		<contour>
			<point x="0" y="-120" type="line"/>
			<point x="0" y="-131" type="line"/>
			<point x="394" y="-131" type="line"/>
			<point x="394" y="-120" type="line"/>
			<point x="0" y="-120" type="line"/>
		</contour>
	</outline>
</glyph>
<glyph name="grave" format="2">
	<advance width="216"/>
	<unicode hex="0060"/>
	<note>
		grave
	</note>
	<outline>
		<contour>
			<point x="50" y="708" type="line"/>
			<point x="151" y="583" type="line" smooth="yes"/>
			<point x="153" y="580"/>
			<point x="156" y="579"/>
			<point x="159" y="579" type="curve" smooth="yes"/>
			<point x="166" y="579" type="line"/>
			<point x="84" y="697" type="line"/>
			<point x="79" y="706"/>
			<point x="75" y="708"/>
			<point x="63" y="708" type="curve" smooth="yes"/>
			<point x="50" y="708" type="line"/>
		</contour>
	</outline>
</glyph>
<glyph name="a" format="2">
	<advance width="481"/>
	<unicode hex="0061"/>
	<anchor x="411" y="2" name="ogonek"/>
	<anchor x="218" y="0" name="bottom"/>
	<anchor x="228" y="490" name="top"/>
	<note>
		a
	</note>
	<outline>
		<contour>
			<point x="168" y="-8" type="curve" smooth="yes"/>
			<point x="254" y="-8"/>
			<point x="309" y="29"/>
			<point x="365" y="88" type="curve"/>
			<point x="368" y="8" type="line" smooth="yes"/>
			<point x="368" y="3"/>
			<point x="370" y="0"/>
			<point x="375" y="0" type="curve" smooth="yes"/>
			<point x="377" y="0" type="line"/>
			<point x="377" y="324" type="line" smooth="yes"/>
			<point x="377" y="431"/>
			<point x="333" y="498"/>
			<point x="232" y="498" type="curve" smooth="yes"/>
			<point x="164" y="498"/>
			<point x="116" y="471"/>
			<point x="68" y="420" type="curve"/>
			<point x="71" y="417" type="line" smooth="yes"/>
			<point x="74" y="414"/>
			<point x="77" y="416"/>
			<point x="80" y="419" type="curve" smooth="yes"/>
			<point x="124" y="461"/>
			<point x="169" y="488"/>
			<point x="232" y="488" type="curve" smooth="yes"/>
			<point x="322" y="488"/>
			<point x="365" y="426"/>
			<point x="365" y="324" type="curve" smooth="yes"/>
			<point x="365" y="261" type="line"/>
			<point x="254" y="258"/>
			<point x="174" y="244"/>
			<point x="122" y="220" type="curve" smooth="yes"/>
			<point x="69" y="195"/>
			<point x="43" y="159"/>
			<point x="43" y="115" type="curve" smooth="yes"/>
			<point x="43" y="34"/>
			<point x="103" y="-8"/>
		</contour>
		<contour>
			<point x="168" y="2" type="curve" smooth="yes"/>
			<point x="108" y="2"/>
			<point x="55" y="42"/>
			<point x="55" y="115" type="curve" smooth="yes"/>
			<point x="55" y="220"/>
			<point x="213" y="246"/>
			<point x="365" y="251" type="curve"/>
			<point x="365" y="100" type="line"/>
			<point x="310" y="45"/>
			<point x="258" y="2"/>
		</contour>
		<component base="SerifBottomRight" xOffset="377"/>
	</outline>
</glyph>
<glyph name="b" format="2">
	<advance width="522"/>
	<unicode hex="0062"/>
	<anchor x="261" y="720" name="top"/>
	<anchor x="261" y="0" name="bottom"/>
	<note>
		b
	</note>
	<outline>
		<contour>
			<point x="266" y="-6" type="curve" smooth="yes"/>
			<point x="407" y="-6"/>
			<point x="481" y="105"/>
			<point x="481" y="248" type="curve" smooth="yes"/>
			<point x="481" y="419"/>
			<point x="412" y="498"/>
			<point x="285" y="498" type="curve" smooth="yes"/>
			<point x="213" y="498"/>
			<point x="147" y="456"/>
			<point x="103" y="389" type="curve"/>
			<point x="103" y="720" type="line"/>
			<point x="91" y="720" type="line"/>
			<point x="91" y="29" type="line"/>
			<point x="134" y="0"/>
			<point x="194" y="-6"/>
		</contour>
		<contour>
			<point x="266" y="4" type="curve" smooth="yes"/>
			<point x="197" y="4"/>
			<point x="147" y="10"/>
			<point x="103" y="33" type="curve"/>
			<point x="103" y="373" type="line"/>
			<point x="148" y="445"/>
			<point x="214" y="488"/>
			<point x="285" y="488" type="curve" smooth="yes"/>
			<point x="406" y="488"/>
			<point x="469" y="411"/>
			<point x="469" y="248" type="curve" smooth="yes"/>
			<point x="469" y="110"/>
			<point x="402" y="4"/>
		</contour>
		<component base="SerifSpurLeft" xOffset="91" yOffset="720"/>
	</outline>
</glyph>
<glyph name="c" format="2">
	<advance width="435"/>
	<unicode hex="0063"/>
	<anchor x="250" y="490" name="top"/>
	<anchor x="249" y="0" name="bottom"/>
	<note>
		c
	</note>
	<outline>
		<contour>
			<point x="247" y="-6" type="curve" smooth="yes"/>
			<point x="319" y="-6"/>
			<point x="378" y="23"/>
			<point x="402" y="58" type="curve"/>
			<point x="400" y="60" type="line" smooth="yes"/>
			<point x="398" y="62"/>
			<point x="394" y="62"/>
			<point x="392" y="60" type="curve" smooth="yes"/>
			<point x="359" y="23"/>
			<point x="306" y="4"/>
			<point x="247" y="4" type="curve" smooth="yes"/>
			<point x="126" y="4"/>
			<point x="53" y="99"/>
			<point x="53" y="245" type="curve" smooth="yes"/>
			<point x="53" y="390"/>
			<point x="127" y="488"/>
			<point x="255" y="488" type="curve" smooth="yes"/>
			<point x="299" y="488"/>
			<point x="338" y="478"/>
			<point x="375" y="458" type="curve"/>
			<point x="384" y="458" type="line"/>
			<point x="384" y="465" type="line"/>
			<point x="342" y="488"/>
			<point x="299" y="498"/>
			<point x="255" y="498" type="curve" smooth="yes"/>
			<point x="119" y="498"/>
			<point x="41" y="395"/>
			<point x="41" y="245" type="curve" smooth="yes"/>
			<point x="41" y="94"/>
			<point x="117" y="-6"/>
		</contour>
		<component base="SerifUpRightLower" xScale="-1" yScale="-1" xOffset="384" yOffset="459"/>
	</outline>
</glyph>
<glyph name="d" format="2">
	<advance width="535"/>
	<unicode hex="0064"/>
	<anchor x="425" y="245" name="center"/>
	<anchor x="389" y="720" name="top"/>
	<anchor x="425" y="609" name="topright"/>
	<anchor x="287" y="0" name="bottom"/>
	<note>
		d
	</note>
	<outline>
		<contour>
			<point x="237" y="-6" type="curve" smooth="yes"/>
			<point x="312" y="-6"/>
			<point x="375" y="36"/>
			<point x="419" y="103" type="curve"/>
			<point x="421" y="8" type="line" smooth="yes"/>
			<point x="421" y="3"/>
			<point x="423" y="0"/>
			<point x="428" y="0" type="curve" smooth="yes"/>
			<point x="431" y="0" type="line"/>
			<point x="431" y="720" type="line"/>
			<point x="419" y="720" type="line"/>
			<point x="419" y="410" type="line"/>
			<point x="382" y="470"/>
			<point x="328" y="498"/>
			<point x="256" y="498" type="curve" smooth="yes"/>
			<point x="115" y="498"/>
			<point x="41" y="388"/>
			<point x="41" y="244" type="curve" smooth="yes"/>
			<point x="41" y="75"/>
			<point x="110" y="-6"/>
		</contour>
		<contour>
			<point x="237" y="4" type="curve"/>
			<point x="117" y="4"/>
			<point x="53" y="81"/>
			<point x="53" y="244" type="curve" smooth="yes"/>
			<point x="53" y="383"/>
			<point x="121" y="488"/>
			<point x="256" y="488" type="curve" smooth="yes"/>
			<point x="325" y="488"/>
			<point x="376" y="463"/>
			<point x="419" y="394" type="curve"/>
			<point x="419" y="119" type="line"/>
			<point x="374" y="47"/>
			<point x="310" y="4"/>
		</contour>
		<component base="SerifSpurLeft" xOffset="419" yOffset="720"/>
		<component base="SerifBottomRight" xOffset="431"/>
	</outline>
</glyph>
<glyph name="e" format="2">
	<advance width="479"/>
	<unicode hex="0065"/>
	<anchor x="264" y="0" name="ogonek"/>
	<anchor x="240" y="0" name="bottom"/>
	<anchor x="255" y="490" name="top"/>
	<note>
		e
	</note>
	<outline>
		<contour>
			<point x="257" y="-6" type="curve" smooth="yes"/>
			<point x="325" y="-6"/>
			<point x="401" y="26"/>
			<point x="427" y="58" type="curve"/>
			<point x="426" y="59" type="line" smooth="yes"/>
			<point x="424" y="61"/>
			<point x="421" y="61"/>
			<point x="418" y="59" type="curve" smooth="yes"/>
			<point x="399" y="46"/>
			<point x="338" y="4"/>
			<point x="257" y="4" type="curve" smooth="yes"/>
			<point x="128" y="4"/>
			<point x="53" y="101"/>
			<point x="53" y="255" type="curve" smooth="yes"/>
			<point x="53" y="268"/>
			<point x="53" y="273"/>
			<point x="54" y="282" type="curve"/>
			<point x="432" y="282" type="line" smooth="yes"/>
			<point x="436" y="282"/>
			<point x="438" y="284"/>
			<point x="438" y="287" type="curve" smooth="yes"/>
			<point x="438" y="418"/>
			<point x="364" y="498"/>
			<point x="255" y="498" type="curve" smooth="yes"/>
			<point x="119" y="498"/>
			<point x="41" y="399"/>
			<point x="41" y="255" type="curve" smooth="yes"/>
			<point x="41" y="98"/>
			<point x="120" y="-6"/>
		</contour>
		<contour>
			<point x="55" y="291" type="line"/>
			<point x="66" y="409"/>
			<point x="139" y="488"/>
			<point x="255" y="488" type="curve" smooth="yes"/>
			<point x="358" y="488"/>
			<point x="427" y="412"/>
			<point x="427" y="291" type="curve"/>
		</contour>
	</outline>
</glyph>
<glyph name="f" format="2">
	<advance width="351"/>
	<unicode hex="0066"/>
	<anchor x="169" y="700" name="top"/>
	<anchor x="126" y="0" name="bottom"/>
	<note>
		f
	</note>
	<outline>
		<contour>
			<point x="119" y="0" type="line"/>
			<point x="131" y="0" type="line"/>
			<point x="131" y="459" type="line"/>
			<point x="306" y="459" type="line"/>
			<point x="306" y="469" type="line"/>
			<point x="131" y="469" type="line"/>
			<point x="131" y="544" type="line" smooth="yes"/>
			<point x="131" y="647"/>
			<point x="178" y="697"/>
			<point x="253" y="697" type="curve" smooth="yes"/>
			<point x="268" y="697"/>
			<point x="280" y="696"/>
			<point x="288" y="693" type="curve" smooth="yes"/>
			<point x="299" y="689"/>
			<point x="307" y="688"/>
			<point x="308" y="692" type="curve" smooth="yes"/>
			<point x="309" y="696" type="line"/>
			<point x="296" y="704"/>
			<point x="273" y="707"/>
			<point x="253" y="707" type="curve" smooth="yes"/>
			<point x="170" y="707"/>
			<point x="119" y="650"/>
			<point x="119" y="544" type="curve" smooth="yes"/>
			<point x="119" y="469" type="line"/>
			<point x="31" y="469" type="line"/>
			<point x="31" y="465" type="line" smooth="yes"/>
			<point x="31" y="462"/>
			<point x="33" y="461"/>
			<point x="37" y="461" type="curve" smooth="yes"/>
			<point x="119" y="459" type="line"/>
		</contour>
		<component base="SerifBottomLeft" xOffset="119"/>
		<component base="SerifBottomRight" xOffset="131"/>
	</outline>
</glyph>
<glyph name="g" format="2">
	<advance width="467"/>
	<unicode hex="0067"/>
	<anchor x="218" y="490" name="top"/>
	<anchor x="219" y="-186" name="bottom"/>
	<note>
		g
	</note>
	<outline>
		<contour>
			<point x="213" y="498" type="curve"/>
			<point x="113" y="498"/>
			<point x="47" y="435"/>
			<point x="47" y="342" type="curve" smooth="yes"/>
			<point x="47" y="283"/>
			<point x="73" y="237"/>
			<point x="118" y="210" type="curve"/>
			<point x="86" y="192"/>
			<point x="59" y="157"/>
			<point x="59" y="129" type="curve" smooth="yes"/>
			<point x="59" y="92"/>
			<point x="84" y="72"/>
			<point x="121" y="63" type="curve"/>
			<point x="56" y="42"/>
			<point x="15" y="0"/>
			<point x="15" y="-56" type="curve" smooth="yes"/>
			<point x="15" y="-136"/>
			<point x="101" y="-188"/>
			<point x="219" y="-188" type="curve" smooth="yes"/>
			<point x="338" y="-188"/>
			<point x="432" y="-125"/>
			<point x="432" y="-39" type="curve" smooth="yes"/>
			<point x="432" y="46"/>
			<point x="345" y="55"/>
			<point x="251" y="60" type="curve" smooth="yes"/>
			<point x="163" y="63"/>
			<point x="70" y="63"/>
			<point x="70" y="129" type="curve" smooth="yes"/>
			<point x="70" y="156"/>
			<point x="97" y="188"/>
			<point x="127" y="205" type="curve"/>
			<point x="152" y="192"/>
			<point x="180" y="186"/>
			<point x="213" y="186" type="curve" smooth="yes"/>
			<point x="313" y="186"/>
			<point x="379" y="249"/>
			<point x="379" y="342" type="curve" smooth="yes"/>
			<point x="379" y="389"/>
			<point x="364" y="427"/>
			<point x="333" y="455" type="curve"/>
			<point x="431" y="457" type="line" smooth="yes"/>
			<point x="435" y="457"/>
			<point x="439" y="460"/>
			<point x="439" y="464" type="curve" smooth="yes"/>
			<point x="439" y="466" type="line"/>
			<point x="320" y="466" type="line"/>
			<point x="292" y="486"/>
			<point x="257" y="498"/>
		</contour>
		<contour>
			<point x="421" y="-39" type="curve"/>
			<point x="421" y="-124"/>
			<point x="322" y="-178"/>
			<point x="219" y="-178" type="curve" smooth="yes"/>
			<point x="112" y="-178"/>
			<point x="27" y="-130"/>
			<point x="27" y="-56" type="curve" smooth="yes"/>
			<point x="27" y="2"/>
			<point x="74" y="36"/>
			<point x="135" y="60" type="curve"/>
			<point x="170" y="53"/>
			<point x="288" y="48"/>
			<point x="319" y="45" type="curve" smooth="yes"/>
			<point x="377" y="38"/>
			<point x="421" y="16"/>
		</contour>
		<contour>
			<point x="213" y="196" type="curve"/>
			<point x="121" y="196"/>
			<point x="59" y="254"/>
			<point x="59" y="342" type="curve" smooth="yes"/>
			<point x="59" y="430"/>
			<point x="121" y="488"/>
			<point x="213" y="488" type="curve" smooth="yes"/>
			<point x="308" y="488"/>
			<point x="367" y="431"/>
			<point x="367" y="342" type="curve" smooth="yes"/>
			<point x="367" y="253"/>
			<point x="308" y="196"/>
		</contour>
	</outline>
</glyph>
<glyph name="h" format="2">
	<advance width="582"/>
	<unicode hex="0068"/>
	<anchor x="174" y="600" name="center"/>
	<anchor x="289" y="0" name="bottom"/>
	<anchor x="289" y="720" name="top"/>
	<note>
		h
	</note>
	<outline>
		<contour>
			<point x="113" y="0" type="line"/>
			<point x="125" y="0" type="line"/>
			<point x="125" y="373" type="line"/>
			<point x="174" y="445"/>
			<point x="240" y="488"/>
			<point x="316" y="488" type="curve" smooth="yes"/>
			<point x="419" y="488"/>
			<point x="466" y="424"/>
			<point x="466" y="314" type="curve" smooth="yes"/>
			<point x="466" y="0" type="line"/>
			<point x="478" y="0" type="line"/>
			<point x="478" y="314" type="line" smooth="yes"/>
			<point x="478" y="430"/>
			<point x="425" y="498"/>
			<point x="316" y="498" type="curve" smooth="yes"/>
			<point x="240" y="498"/>
			<point x="170" y="455"/>
			<point x="125" y="388" type="curve"/>
			<point x="125" y="720" type="line"/>
			<point x="113" y="720" type="line"/>
		</contour>
		<component base="SerifBottomRight" xOffset="478"/>
		<component base="SerifBottomLeft" xOffset="113"/>
		<component base="SerifSpurLeft" xOffset="113" yOffset="720"/>
		<component base="SerifBottomRight" xOffset="125"/>
	</outline>
</glyph>
<glyph name="k" format="2">
	<advance width="569"/>
	<unicode hex="006B"/>
	<anchor x="280" y="720" name="top"/>
	<anchor x="280" y="0" name="bottom"/>
	<note>
		k
	</note>
	<outline>
		<contour>
			<point x="113" y="0" type="line"/>
			<point x="125" y="0" type="line"/>
			<point x="125" y="259" type="line"/>
			<point x="145" y="259" type="line" smooth="yes"/>
			<point x="165" y="259"/>
			<point x="171" y="257"/>
			<point x="183" y="245" type="curve" smooth="yes"/>
			<point x="429" y="6" type="line" smooth="yes"/>
			<point x="434" y="1"/>
			<point x="438" y="0"/>
			<point x="443" y="0" type="curve" smooth="yes"/>
			<point x="452" y="0" type="line"/>
			<point x="193" y="252" type="line" smooth="yes"/>
			<point x="188" y="257"/>
			<point x="181" y="262"/>
			<point x="172" y="265" type="curve"/>
			<point x="176" y="266"/>
			<point x="180" y="269"/>
			<point x="184" y="273" type="curve" smooth="yes"/>
			<point x="432" y="490" type="line"/>
			<point x="423" y="490" type="line" smooth="yes"/>
			<point x="415" y="490"/>
			<point x="411" y="487"/>
			<point x="405" y="482" type="curve" smooth="yes"/>
			<point x="172" y="277" type="line" smooth="yes"/>
			<point x="162" y="268"/>
			<point x="155" y="268"/>
			<point x="148" y="268" type="curve" smooth="yes"/>
			<point x="125" y="268" type="line"/>
			<point x="125" y="720" type="line"/>
			<point x="113" y="720" type="line"/>
		</contour>
		<contour>
			<point x="400" y="477" type="line"/>
			<point x="422" y="478" type="line"/>
			<point x="445" y="490" type="line"/>
			<point x="421" y="490" type="line"/>
			<point x="409" y="482" type="line"/>
		</contour>
		<contour>
			<point x="446" y="0" type="line"/>
			<point x="447" y="12" type="line"/>
			<point x="423" y="13" type="line"/>
		</contour>
		<component base="SerifBottomLeft" xOffset="113"/>
		<component base="SerifBottomRight" xOffset="125"/>
		<component base="SerifSpurLeft" xOffset="113" yOffset="720"/>
		<component base="SerifSpurRight" xOffset="424" yOffset="490"/>
		<component base="SerifSpurLeft" xOffset="419" yOffset="490"/>
		<component base="SerifBottomRight" xOffset="449"/>
	</outline>
</glyph>
<glyph name="l" format="2">
	<advance width="229"/>
	<unicode hex="006C"/>
	<anchor x="119" y="360" name="center"/>
	<anchor x="119" y="720" name="top"/>
	<anchor x="210" y="720" name="topright"/>
	<anchor x="119" y="0" name="bottom"/>
	<note>
		l
	</note>
	<outline>
		<contour>
			<point x="113" y="0" type="line"/>
			<point x="125" y="0" type="line"/>
			<point x="125" y="720" type="line"/>
			<point x="113" y="720" type="line"/>
		</contour>
		<component base="SerifBottomLeft" xOffset="113"/>
		<component base="SerifBottomRight" xOffset="125"/>
		<component base="SerifSpurLeft" xOffset="113" yOffset="720"/>
	</outline>
</glyph>
<glyph name="m" format="2">
	<advance width="828"/>
	<unicode hex="006D"/>
	<anchor x="414" y="490" name="top"/>
	<anchor x="414" y="0" name="bottom"/>
	<note>
		m
	</note>
	<outline>
		<contour>
			<point x="113" y="0" type="line"/>
			<point x="125" y="0" type="line"/>
			<point x="125" y="374" type="line"/>
			<point x="165" y="446"/>
			<point x="219" y="488"/>
			<point x="282" y="488" type="curve" smooth="yes"/>
			<point x="369" y="488"/>
			<point x="410" y="420"/>
			<point x="410" y="314" type="curve" smooth="yes"/>
			<point x="410" y="0" type="line"/>
			<point x="422" y="0" type="line"/>
			<point x="422" y="314" type="line" smooth="yes"/>
			<point x="422" y="423"/>
			<point x="488" y="488"/>
			<point x="573" y="488" type="curve" smooth="yes"/>
			<point x="662" y="488"/>
			<point x="712" y="427"/>
			<point x="712" y="314" type="curve" smooth="yes"/>
			<point x="712" y="0" type="line"/>
			<point x="724" y="0" type="line"/>
			<point x="724" y="314" type="line" smooth="yes"/>
			<point x="724" y="429"/>
			<point x="670" y="498"/>
			<point x="573" y="498" type="curve" smooth="yes"/>
			<point x="494" y="498"/>
			<point x="432" y="448"/>
			<point x="417" y="358" type="curve"/>
			<point x="406" y="447"/>
			<point x="362" y="498"/>
			<point x="283" y="498" type="curve" smooth="yes"/>
			<point x="219" y="498"/>
			<point x="162" y="455"/>
			<point x="125" y="390" type="curve"/>
			<point x="123" y="482" type="line" smooth="yes"/>
			<point x="123" y="487"/>
			<point x="121" y="490"/>
			<point x="116" y="490" type="curve" smooth="yes"/>
			<point x="113" y="490" type="line"/>
		</contour>
		<component base="SerifBottomLeft" xOffset="113"/>
		<component base="SerifBottomRight" xOffset="125"/>
		<component base="SerifBottomRight" xOffset="422"/>
		<component base="SerifSpurLeft" xOffset="113" yOffset="490"/>
		<component base="SerifBottomRight" xOffset="724"/>
	</outline>
</glyph>
<glyph name="n" format="2">
	<advance width="582"/>
	<unicode hex="006E"/>
	<anchor x="298" y="490" name="top"/>
	<anchor x="298" y="0" name="bottom"/>
	<note>
		n
	</note>
	<outline>
		<contour>
			<point x="113" y="0" type="line"/>
			<point x="125" y="0" type="line"/>
			<point x="125" y="373" type="line"/>
			<point x="174" y="445"/>
			<point x="240" y="488"/>
			<point x="316" y="488" type="curve" smooth="yes"/>
			<point x="419" y="488"/>
			<point x="466" y="424"/>
			<point x="466" y="314" type="curve" smooth="yes"/>
			<point x="466" y="0" type="line"/>
			<point x="478" y="0" type="line"/>
			<point x="478" y="314" type="line" smooth="yes"/>
			<point x="478" y="430"/>
			<point x="425" y="498"/>
			<point x="316" y="498" type="curve" smooth="yes"/>
			<point x="238" y="498"/>
			<point x="171" y="455"/>
			<point x="125" y="388" type="curve"/>
			<point x="123" y="482" type="line" smooth="yes"/>
			<point x="123" y="487"/>
			<point x="121" y="490"/>
			<point x="116" y="490" type="curve" smooth="yes"/>
			<point x="113" y="490" type="line"/>
		</contour>
		<component base="SerifBottomLeft" xOffset="113"/>
		<component base="SerifBottomRight" xOffset="125"/>
		<component base="SerifBottomRight" xOffset="478"/>
		<component base="SerifSpurLeft" xOffset="113" yOffset="490"/>
	</outline>
</glyph>
<glyph name="o" format="2">
	<advance width="510"/>
	<unicode hex="006F"/>
	<anchor x="255" y="245" name="center"/>
	<anchor x="262" y="-1" name="ogonek"/>
	<anchor x="255" y="490" name="top"/>
	<anchor x="490" y="490" name="topright"/>
	<anchor x="255" y="0" name="bottom"/>
	<note>
		o
	</note>
	<outline>
		<contour>
			<point x="255" y="498" type="curve"/>
			<point x="255" y="498" type="line"/>
			<point x="115" y="498"/>
			<point x="41" y="395"/>
			<point x="41" y="245" type="curve" smooth="yes"/>
			<point x="41" y="96"/>
			<point x="116" y="-6"/>
			<point x="255" y="-6" type="curve" smooth="yes"/>
			<point x="395" y="-6"/>
			<point x="469" y="95"/>
			<point x="469" y="245" type="curve" smooth="yes"/>
			<point x="469" y="396"/>
			<point x="395" y="498"/>
		</contour>
		<contour>
			<point x="255" y="4" type="curve"/>
			<point x="122" y="4"/>
			<point x="53" y="102"/>
			<point x="53" y="245" type="curve" smooth="yes"/>
			<point x="53" y="389"/>
			<point x="121" y="488"/>
			<point x="255" y="488" type="curve" smooth="yes"/>
			<point x="390" y="488"/>
			<point x="457" y="389"/>
			<point x="457" y="245" type="curve" smooth="yes"/>
			<point x="457" y="102"/>
			<point x="390" y="4"/>
		</contour>
	</outline>
</glyph>
<glyph name="p" format="2">
	<advance width="544"/>
	<unicode hex="0070"/>
	<anchor x="286" y="490" name="top"/>
	<anchor x="286" y="0" name="bottom"/>
	<note>
		p
	</note>
	<outline>
		<contour>
			<point x="113" y="-180" type="line"/>
			<point x="125" y="-180" type="line"/>
			<point x="125" y="82" type="line"/>
			<point x="162" y="23"/>
			<point x="216" y="-6"/>
			<point x="288" y="-6" type="curve" smooth="yes"/>
			<point x="429" y="-6"/>
			<point x="503" y="105"/>
			<point x="503" y="248" type="curve" smooth="yes"/>
			<point x="503" y="419"/>
			<point x="434" y="498"/>
			<point x="307" y="498" type="curve" smooth="yes"/>
			<point x="232" y="498"/>
			<point x="169" y="457"/>
			<point x="125" y="389" type="curve"/>
			<point x="123" y="482" type="line" smooth="yes"/>
			<point x="123" y="487"/>
			<point x="121" y="490"/>
			<point x="116" y="490" type="curve" smooth="yes"/>
			<point x="113" y="490" type="line"/>
		</contour>
		<contour>
			<point x="288" y="4" type="curve" smooth="yes"/>
			<point x="219" y="4"/>
			<point x="168" y="29"/>
			<point x="125" y="98" type="curve"/>
			<point x="125" y="373" type="line"/>
			<point x="170" y="445"/>
			<point x="235" y="488"/>
			<point x="307" y="488" type="curve" smooth="yes"/>
			<point x="428" y="488"/>
			<point x="491" y="411"/>
			<point x="491" y="248" type="curve" smooth="yes"/>
			<point x="491" y="110"/>
			<point x="424" y="4"/>
		</contour>
		<component base="SerifSpurLeft" xOffset="113" yOffset="490"/>
		<component base="SerifBottomLeft" xOffset="113" yOffset="-180"/>
		<component base="SerifBottomRight" xOffset="125" yOffset="-180"/>
	</outline>
</glyph>
<glyph name="q" format="2">
	<advance width="535"/>
	<unicode hex="0071"/>
	<note>
		q
	</note>
	<outline>
		<contour>
			<point x="419" y="-180" type="line"/>
			<point x="431" y="-180" type="line"/>
			<point x="431" y="463" type="line"/>
			<point x="388" y="492"/>
			<point x="328" y="498"/>
			<point x="256" y="498" type="curve" smooth="yes"/>
			<point x="115" y="498"/>
			<point x="41" y="387"/>
			<point x="41" y="244" type="curve" smooth="yes"/>
			<point x="41" y="73"/>
			<point x="110" y="-6"/>
			<point x="237" y="-6" type="curve" smooth="yes"/>
			<point x="309" y="-6"/>
			<point x="375" y="36"/>
			<point x="419" y="103" type="curve"/>
		</contour>
		<contour>
			<point x="237" y="4" type="curve" smooth="yes"/>
			<point x="116" y="4"/>
			<point x="53" y="81"/>
			<point x="53" y="244" type="curve" smooth="yes"/>
			<point x="53" y="382"/>
			<point x="120" y="488"/>
			<point x="256" y="488" type="curve" smooth="yes"/>
			<point x="325" y="488"/>
			<point x="375" y="482"/>
			<point x="419" y="459" type="curve"/>
			<point x="419" y="119" type="line"/>
			<point x="374" y="47"/>
			<point x="308" y="4"/>
		</contour>
		<component base="SerifBottomLeft" xOffset="419" yOffset="-180"/>
		<component base="SerifBottomRight" xOffset="431" yOffset="-180"/>
	</outline>
</glyph>
<glyph name="r" format="2">
	<advance width="398"/>
	<unicode hex="0072"/>
	<anchor x="221" y="490" name="top"/>
	<anchor x="119" y="0" name="bottom"/>
	<note>
		r
	</note>
	<outline>
		<contour>
			<point x="113" y="0" type="line"/>
			<point x="125" y="0" type="line"/>
			<point x="125" y="322" type="line"/>
			<point x="157" y="427"/>
			<point x="208" y="487"/>
			<point x="295" y="487" type="curve" smooth="yes"/>
			<point x="327" y="487"/>
			<point x="357" y="475"/>
			<point x="369" y="471" type="curve" smooth="yes"/>
			<point x="372" y="470"/>
			<point x="375" y="472"/>
			<point x="377" y="475" type="curve" smooth="yes"/>
			<point x="379" y="479" type="line"/>
			<point x="354" y="491"/>
			<point x="327" y="498"/>
			<point x="295" y="498" type="curve" smooth="yes"/>
			<point x="206" y="498"/>
			<point x="151" y="441"/>
			<point x="125" y="346" type="curve"/>
			<point x="123" y="482" type="line" smooth="yes"/>
			<point x="123" y="487"/>
			<point x="121" y="490"/>
			<point x="116" y="490" type="curve" smooth="yes"/>
			<point x="113" y="490" type="line"/>
		</contour>
		<component base="SerifBottomRight" xOffset="125"/>
		<component base="SerifBottomLeft" xOffset="113"/>
		<component base="SerifSpurLeft" xOffset="113" yOffset="490"/>
	</outline>
</glyph>
<glyph name="s" format="2">
	<advance width="397"/>
	<unicode hex="0073"/>
	<anchor x="199" y="490" name="top"/>
	<anchor x="193" y="0" name="bottom"/>
	<note>
		s
	</note>
	<outline>
		<contour>
			<point x="191" y="-8" type="curve" smooth="yes"/>
			<point x="286" y="-8"/>
			<point x="351" y="53"/>
			<point x="351" y="137" type="curve" smooth="yes"/>
			<point x="351" y="217"/>
			<point x="282" y="239"/>
			<point x="207" y="263" type="curve" smooth="yes"/>
			<point x="133" y="286"/>
			<point x="62" y="304"/>
			<point x="62" y="374" type="curve" smooth="yes"/>
			<point x="62" y="437"/>
			<point x="123" y="488"/>
			<point x="202" y="488" type="curve" smooth="yes"/>
			<point x="235" y="488"/>
			<point x="289" y="477"/>
			<point x="320" y="461" type="curve"/>
			<point x="331" y="453" type="line"/>
			<point x="331" y="468" type="line"/>
			<point x="307" y="479"/>
			<point x="257" y="498"/>
			<point x="202" y="498" type="curve" smooth="yes"/>
			<point x="118" y="498"/>
			<point x="51" y="444"/>
			<point x="51" y="374" type="curve" smooth="yes"/>
			<point x="51" y="298"/>
			<point x="121" y="276"/>
			<point x="196" y="254" type="curve" smooth="yes"/>
			<point x="270" y="232"/>
			<point x="340" y="210"/>
			<point x="340" y="136" type="curve" smooth="yes"/>
			<point x="340" y="60"/>
			<point x="281" y="2"/>
			<point x="191" y="2" type="curve" smooth="yes"/>
			<point x="123" y="2"/>
			<point x="76" y="30"/>
			<point x="57" y="46" type="curve"/>
			<point x="46" y="56" type="line"/>
			<point x="46" y="38" type="line"/>
			<point x="77" y="18"/>
			<point x="120" y="-8"/>
		</contour>
		<component base="SerifUpRightLower" xScale="-1" yScale="-1" xOffset="331" yOffset="461"/>
		<component base="SerifUpRightLower" xOffset="46" yOffset="42"/>
	</outline>
</glyph>
<glyph name="t" format="2">
	<advance width="319"/>
	<unicode hex="0074"/>
	<anchor x="151" y="346" name="center"/>
	<anchor x="115" y="673" name="top"/>
	<anchor x="299" y="490" name="topright"/>
	<anchor x="200" y="0" name="bottom"/>
	<note>
		t
	</note>
	<outline>
		<contour>
			<point x="198" y="-8" type="curve"/>
			<point x="233" y="-8"/>
			<point x="276" y="12"/>
			<point x="295" y="39" type="curve"/>
			<point x="293" y="41" type="line" smooth="yes"/>
			<point x="292" y="42"/>
			<point x="290" y="43"/>
			<point x="289" y="43" type="curve" smooth="yes"/>
			<point x="281" y="43"/>
			<point x="233" y="2"/>
			<point x="198" y="2" type="curve" smooth="yes"/>
			<point x="151" y="2"/>
			<point x="118" y="32"/>
			<point x="118" y="93" type="curve" smooth="yes"/>
			<point x="118" y="459" type="line"/>
			<point x="285" y="459" type="line"/>
			<point x="285" y="469" type="line"/>
			<point x="118" y="469" type="line"/>
			<point x="118" y="673" type="line"/>
			<point x="115" y="673" type="line" smooth="yes"/>
			<point x="112" y="673"/>
			<point x="110" y="670"/>
			<point x="110" y="666" type="curve" smooth="yes"/>
			<point x="106" y="469" type="line"/>
			<point x="18" y="467" type="line"/>
			<point x="18" y="464" type="line" smooth="yes"/>
			<point x="18" y="461"/>
			<point x="20" y="459"/>
			<point x="25" y="459" type="curve" smooth="yes"/>
			<point x="106" y="459" type="line"/>
			<point x="106" y="93" type="line" smooth="yes"/>
			<point x="106" y="21"/>
			<point x="141" y="-8"/>
		</contour>
	</outline>
</glyph>
<glyph name="u" format="2">
	<advance width="560"/>
	<unicode hex="0075"/>
	<anchor x="491" y="2" name="ogonek"/>
	<anchor x="261" y="490" name="top"/>
	<anchor x="456" y="490" name="topright"/>
	<anchor x="257" y="0" name="bottom"/>
	<note>
		u
	</note>
	<outline>
		<contour>
			<point x="253" y="-8" type="curve" smooth="yes"/>
			<point x="330" y="-8"/>
			<point x="400" y="37"/>
			<point x="444" y="102" type="curve"/>
			<point x="446" y="8" type="line" smooth="yes"/>
			<point x="446" y="3"/>
			<point x="448" y="0"/>
			<point x="453" y="0" type="curve" smooth="yes"/>
			<point x="456" y="0" type="line"/>
			<point x="456" y="490" type="line"/>
			<point x="444" y="490" type="line"/>
			<point x="444" y="117" type="line"/>
			<point x="395" y="45"/>
			<point x="330" y="2"/>
			<point x="253" y="2" type="curve" smooth="yes"/>
			<point x="151" y="2"/>
			<point x="103" y="69"/>
			<point x="103" y="176" type="curve" smooth="yes"/>
			<point x="103" y="490" type="line"/>
			<point x="91" y="490" type="line"/>
			<point x="91" y="176" type="line" smooth="yes"/>
			<point x="91" y="60"/>
			<point x="144" y="-8"/>
		</contour>
		<component base="SerifBottomRight" xOffset="456"/>
		<component base="SerifSpurLeft" xOffset="91" yOffset="490"/>
		<component base="SerifSpurLeft" xOffset="444" yOffset="490"/>
	</outline>
</glyph>
<glyph name="v" format="2">
	<advance width="617"/>
	<unicode hex="0076"/>
	<anchor x="309" y="490" name="top"/>
	<anchor x="309" y="0" name="bottom"/>
	<note>
		v
	</note>
	<outline>
		<contour>
			<point x="304" y="0" type="line"/>
			<point x="313" y="0" type="line"/>
			<point x="526" y="490" type="line"/>
			<point x="519" y="490" type="line" smooth="yes"/>
			<point x="516" y="490"/>
			<point x="512" y="488"/>
			<point x="510" y="483" type="curve" smooth="yes"/>
			<point x="315" y="34" type="line" smooth="yes"/>
			<point x="312" y="28"/>
			<point x="310" y="23"/>
			<point x="309" y="16" type="curve"/>
			<point x="308" y="23"/>
			<point x="305" y="28"/>
			<point x="302" y="34" type="curve" smooth="yes"/>
			<point x="107" y="483" type="line" smooth="yes"/>
			<point x="105" y="487"/>
			<point x="103" y="490"/>
			<point x="98" y="490" type="curve" smooth="yes"/>
			<point x="91" y="490" type="line"/>
		</contour>
		<contour>
			<point x="98" y="482" type="line"/>
			<point x="114" y="482" type="line"/>
			<point x="114" y="490" type="line"/>
			<point x="98" y="490" type="line"/>
		</contour>
		<contour>
			<point x="505" y="482" type="line"/>
			<point x="521" y="482" type="line"/>
			<point x="521" y="490" type="line"/>
			<point x="505" y="490" type="line"/>
		</contour>
		<component base="SerifSpurLeft" xOffset="107" yOffset="490"/>
		<component base="SerifSpurRight" xOffset="103" yOffset="490"/>
		<component base="SerifSpurLeft" xOffset="514" yOffset="490"/>
		<component base="SerifSpurRight" xOffset="510" yOffset="490"/>
	</outline>
</glyph>
<glyph name="w" format="2">
	<advance width="866"/>
	<unicode hex="0077"/>
	<anchor x="433" y="490" name="top"/>
	<anchor x="433" y="0" name="bottom"/>
	<note>
		w
	</note>
	<outline>
		<contour>
			<point x="260" y="0" type="line"/>
			<point x="265" y="0" type="line" smooth="yes"/>
			<point x="268" y="0"/>
			<point x="269" y="2"/>
			<point x="270" y="5" type="curve"/>
			<point x="429" y="461" type="line" smooth="yes"/>
			<point x="431" y="466"/>
			<point x="433" y="471"/>
			<point x="434" y="475" type="curve"/>
			<point x="435" y="471"/>
			<point x="436" y="466"/>
			<point x="438" y="461" type="curve" smooth="yes"/>
			<point x="595" y="5" type="line" smooth="yes"/>
			<point x="596" y="2"/>
			<point x="598" y="0"/>
			<point x="601" y="0" type="curve" smooth="yes"/>
			<point x="606" y="0" type="line"/>
			<point x="774" y="490" type="line"/>
			<point x="767" y="490" type="line" smooth="yes"/>
			<point x="764" y="490"/>
			<point x="760" y="488"/>
			<point x="758" y="483" type="curve" smooth="yes"/>
			<point x="608" y="34" type="line" smooth="yes"/>
			<point x="606" y="27"/>
			<point x="604" y="20"/>
			<point x="602" y="14" type="curve"/>
			<point x="600" y="20"/>
			<point x="597" y="27"/>
			<point x="595" y="34" type="curve" smooth="yes"/>
			<point x="440" y="488" type="line" smooth="yes"/>
			<point x="439" y="491"/>
			<point x="438" y="493"/>
			<point x="435" y="493" type="curve" smooth="yes"/>
			<point x="432" y="493" type="line" smooth="yes"/>
			<point x="430" y="493"/>
			<point x="428" y="491"/>
			<point x="427" y="488" type="curve" smooth="yes"/>
			<point x="271" y="34" type="line" smooth="yes"/>
			<point x="269" y="27"/>
			<point x="266" y="21"/>
			<point x="265" y="13" type="curve"/>
			<point x="264" y="16"/>
			<point x="260" y="27"/>
			<point x="258" y="34" type="curve" smooth="yes"/>
			<point x="108" y="483" type="line" smooth="yes"/>
			<point x="107" y="486"/>
			<point x="105" y="490"/>
			<point x="103" y="490" type="curve" smooth="yes"/>
			<point x="92" y="490" type="line"/>
		</contour>
		<contour>
			<point x="98" y="482" type="line"/>
			<point x="114" y="482" type="line"/>
			<point x="114" y="490" type="line"/>
			<point x="98" y="490" type="line"/>
		</contour>
		<contour>
			<point x="754" y="482" type="line"/>
			<point x="770" y="482" type="line"/>
			<point x="770" y="490" type="line"/>
			<point x="754" y="490" type="line"/>
		</contour>
		<component base="SerifSpurLeft" xOffset="107" yOffset="490"/>
		<component base="SerifSpurRight" xOffset="103" yOffset="490"/>
		<component base="SerifSpurLeft" xOffset="763" yOffset="490"/>
		<component base="SerifSpurRight" xOffset="759" yOffset="490"/>
	</outline>
</glyph>
<glyph name="x" format="2">
	<advance width="581"/>
	<unicode hex="0078"/>
	<anchor x="291" y="490" name="top"/>
	<anchor x="291" y="0" name="bottom"/>
	<note>
		x
	</note>
	<outline>
		<contour>
			<point x="99" y="0" type="line"/>
			<point x="99" y="0" type="line"/>
			<point x="110" y="0" type="line" smooth="yes"/>
			<point x="113" y="0"/>
			<point x="115" y="1"/>
			<point x="119" y="7" type="curve" smooth="yes"/>
			<point x="286" y="237" type="line" smooth="yes"/>
			<point x="288" y="240"/>
			<point x="290" y="243"/>
			<point x="290" y="244" type="curve"/>
			<point x="462" y="7" type="line" smooth="yes"/>
			<point x="465" y="2"/>
			<point x="464" y="0"/>
			<point x="471" y="0" type="curve" smooth="yes"/>
			<point x="482" y="0" type="line"/>
			<point x="299" y="251" type="line"/>
			<point x="475" y="490" type="line"/>
			<point x="464" y="490" type="line" smooth="yes"/>
			<point x="460" y="490"/>
			<point x="458" y="487"/>
			<point x="455" y="483" type="curve" smooth="yes"/>
			<point x="295" y="263" type="line" smooth="yes"/>
			<point x="294" y="262"/>
			<point x="290" y="254"/>
			<point x="291" y="256" type="curve"/>
			<point x="126" y="483" type="line" smooth="yes"/>
			<point x="124" y="485"/>
			<point x="122" y="490"/>
			<point x="117" y="490" type="curve" smooth="yes"/>
			<point x="106" y="490" type="line"/>
			<point x="282" y="249" type="line"/>
		</contour>
		<contour>
			<point x="118" y="482" type="line"/>
			<point x="134" y="482" type="line"/>
			<point x="134" y="490" type="line"/>
			<point x="118" y="490" type="line"/>
		</contour>
		<contour>
			<point x="449" y="482" type="line"/>
			<point x="465" y="482" type="line"/>
			<point x="465" y="490" type="line"/>
			<point x="449" y="490" type="line"/>
		</contour>
		<contour>
			<point x="470" y="8" type="line"/>
			<point x="454" y="8" type="line"/>
			<point x="454" y="0" type="line"/>
			<point x="470" y="0" type="line"/>
		</contour>
		<contour>
			<point x="125" y="8" type="line"/>
			<point x="109" y="8" type="line"/>
			<point x="109" y="0" type="line"/>
			<point x="125" y="0" type="line"/>
		</contour>
		<component base="SerifSpurLeft" xOffset="127" yOffset="490"/>
		<component base="SerifSpurRight" xOffset="123" yOffset="490"/>
		<component base="SerifSpurLeft" xOffset="458" yOffset="490"/>
		<component base="SerifSpurRight" xOffset="454" yOffset="490"/>
		<component base="SerifSpurLeft" xScale="-1" yScale="-1" xOffset="461"/>
		<component base="SerifSpurLeft" xScale="-1" yScale="-1" xOffset="116"/>
		<component base="SerifSpurRight" xScale="-1" yScale="-1" xOffset="120"/>
		<component base="SerifSpurRight" xScale="-1" yScale="-1" xOffset="465"/>
	</outline>
</glyph>
<glyph name="y" format="2">
	<advance width="617"/>
	<unicode hex="0079"/>
	<anchor x="308" y="490" name="top"/>
	<anchor x="323" y="-25" name="bottom"/>
	<note>
		y
	</note>
	<outline>
		<contour>
			<point x="218" y="-180" type="line"/>
			<point x="225" y="-180" type="line" smooth="yes"/>
			<point x="232" y="-180"/>
			<point x="236" y="-174"/>
			<point x="237" y="-169" type="curve"/>
			<point x="526" y="490" type="line"/>
			<point x="519" y="490" type="line" smooth="yes"/>
			<point x="516" y="490"/>
			<point x="512" y="488"/>
			<point x="510" y="483" type="curve" smooth="yes"/>
			<point x="315" y="38" type="line" smooth="yes"/>
			<point x="313" y="33"/>
			<point x="310" y="27"/>
			<point x="309" y="20" type="curve"/>
			<point x="308" y="27"/>
			<point x="304" y="33"/>
			<point x="302" y="38" type="curve" smooth="yes"/>
			<point x="107" y="483" type="line" smooth="yes"/>
			<point x="105" y="487"/>
			<point x="102" y="490"/>
			<point x="97" y="490" type="curve" smooth="yes"/>
			<point x="90" y="490" type="line"/>
			<point x="302" y="9" type="line"/>
		</contour>
		<contour>
			<point x="98" y="482" type="line"/>
			<point x="114" y="482" type="line"/>
			<point x="114" y="490" type="line"/>
			<point x="98" y="490" type="line"/>
		</contour>
		<contour>
			<point x="505" y="482" type="line"/>
			<point x="521" y="482" type="line"/>
			<point x="521" y="490" type="line"/>
			<point x="505" y="490" type="line"/>
		</contour>
		<component base="SerifSpurLeft" xOffset="107" yOffset="490"/>
		<component base="SerifSpurRight" xOffset="103" yOffset="490"/>
		<component base="SerifSpurLeft" xOffset="514" yOffset="490"/>
		<component base="SerifSpurRight" xOffset="510" yOffset="490"/>
	</outline>
</glyph>
<glyph name="z" format="2">
	<advance width="459"/>
	<unicode hex="007A"/>
	<anchor x="231" y="490" name="top"/>
	<anchor x="231" y="0" name="bottom"/>
	<note>
		z
	</note>
	<outline>
		<contour>
			<point x="48" y="0" type="line"/>
			<point x="406" y="0" type="line"/>
			<point x="406" y="10" type="line"/>
			<point x="65" y="10" type="line"/>
			<point x="408" y="479" type="line" smooth="yes"/>
			<point x="410" y="482"/>
			<point x="411" y="483"/>
			<point x="411" y="485" type="curve" smooth="yes"/>
			<point x="411" y="490" type="line"/>
			<point x="65" y="490" type="line"/>
			<point x="65" y="480" type="line"/>
			<point x="395" y="480" type="line"/>
			<point x="51" y="10" type="line" smooth="yes"/>
			<point x="49" y="7"/>
			<point x="48" y="6"/>
			<point x="48" y="3" type="curve" smooth="yes"/>
		</contour>
		<component base="SerifUpLeftLower" xScale="-1" yScale="-1" xOffset="65" yOffset="480"/>
		<component base="SerifUpLeftLower" xOffset="406" yOffset="10"/>
	</outline>
</glyph>
<glyph name="braceleft" format="2">
	<advance width="324"/>
	<unicode hex="007B"/>
	<note>
		braceleft
	</note>
	<outline>
		<contour>
			<point x="240" y="-121" type="curve" smooth="yes"/>
			<point x="268" y="-121" type="line"/>
			<point x="268" y="-117" type="line" smooth="yes"/>
			<point x="268" y="-114"/>
			<point x="266" y="-112"/>
			<point x="262" y="-112" type="curve" smooth="yes"/>
			<point x="240" y="-112" type="line" smooth="yes"/>
			<point x="177" y="-112"/>
			<point x="131" y="-63"/>
			<point x="131" y="8" type="curve" smooth="yes"/>
			<point x="131" y="77"/>
			<point x="165" y="161"/>
			<point x="165" y="231" type="curve" smooth="yes"/>
			<point x="165" y="278"/>
			<point x="130" y="309"/>
			<point x="92" y="315" type="curve"/>
			<point x="130" y="321"/>
			<point x="165" y="352"/>
			<point x="165" y="399" type="curve" smooth="yes"/>
			<point x="165" y="471"/>
			<point x="131" y="551"/>
			<point x="131" y="622" type="curve" smooth="yes"/>
			<point x="131" y="693"/>
			<point x="177" y="742"/>
			<point x="240" y="742" type="curve" smooth="yes"/>
			<point x="262" y="742" type="line" smooth="yes"/>
			<point x="266" y="742"/>
			<point x="268" y="744"/>
			<point x="268" y="747" type="curve" smooth="yes"/>
			<point x="268" y="751" type="line"/>
			<point x="240" y="751" type="line" smooth="yes"/>
			<point x="170" y="751"/>
			<point x="120" y="695"/>
			<point x="120" y="622" type="curve" smooth="yes"/>
			<point x="120" y="547"/>
			<point x="154" y="474"/>
			<point x="154" y="399" type="curve" smooth="yes"/>
			<point x="154" y="354"/>
			<point x="117" y="320"/>
			<point x="68" y="320" type="curve"/>
			<point x="68" y="310" type="line"/>
			<point x="117" y="310"/>
			<point x="154" y="276"/>
			<point x="154" y="231" type="curve" smooth="yes"/>
			<point x="154" y="157"/>
			<point x="120" y="81"/>
			<point x="120" y="8" type="curve" smooth="yes"/>
			<point x="120" y="-65"/>
			<point x="170" y="-121"/>
		</contour>
	</outline>
</glyph>
<glyph name="bar" format="2">
	<advance width="200"/>
	<unicode hex="007C"/>
	<note>
		bar
	</note>
	<outline>
		<contour>
			<point x="95" y="-180" type="line"/>
			<point x="105" y="-180" type="line"/>
			<point x="105" y="751" type="line"/>
			<point x="95" y="751" type="line"/>
			<point x="95" y="-180" type="line"/>
		</contour>
	</outline>
</glyph>
<glyph name="asciitilde" format="2">
	<advance width="560"/>
	<unicode hex="007E"/>
	<note>
		asciitilde
	</note>
	<outline>
		<contour>
			<point x="388" y="264" type="curve"/>
			<point x="388" y="264" type="line"/>
			<point x="324" y="264"/>
			<point x="240" y="336"/>
			<point x="172" y="336" type="curve" smooth="yes"/>
			<point x="110" y="336"/>
			<point x="70" y="286"/>
			<point x="70" y="226" type="curve"/>
			<point x="80" y="226" type="line"/>
			<point x="83" y="283"/>
			<point x="116" y="326"/>
			<point x="172" y="326" type="curve" smooth="yes"/>
			<point x="234" y="326"/>
			<point x="326" y="254"/>
			<point x="388" y="254" type="curve" smooth="yes"/>
			<point x="452" y="254"/>
			<point x="490" y="304"/>
			<point x="490" y="364" type="curve"/>
			<point x="480" y="364" type="line"/>
			<point x="480" y="309"/>
			<point x="443" y="264"/>
		</contour>
	</outline>
</glyph>
<glyph name="exclamdown" format="2">
	<advance width="241"/>
	<unicode hex="00A1"/>
	<note>
		exclamdown
	</note>
	<outline>
		<contour>
			<point x="130" y="-180" type="line"/>
			<point x="130" y="99" type="line" smooth="yes"/>
			<point x="130" y="127"/>
			<point x="128" y="243"/>
			<point x="127" y="275" type="curve"/>
			<point x="119" y="275" type="line"/>
			<point x="118" y="237"/>
			<point x="116" y="133"/>
			<point x="116" y="99" type="curve" smooth="yes"/>
			<point x="116" y="-180" type="line"/>
			<point x="130" y="-180" type="line"/>
		</contour>
		<contour>
			<point x="89" y="466" type="curve"/>
			<point x="89" y="466" type="line"/>
			<point x="89" y="449"/>
			<point x="104" y="433"/>
			<point x="121" y="433" type="curve" smooth="yes"/>
			<point x="140" y="433"/>
			<point x="154" y="449"/>
			<point x="154" y="466" type="curve" smooth="yes"/>
			<point x="154" y="485"/>
			<point x="140" y="498"/>
			<point x="121" y="498" type="curve" smooth="yes"/>
			<point x="104" y="498"/>
			<point x="89" y="485"/>
		</contour>
	</outline>
</glyph>
<glyph name="cent" format="2">
	<advance width="435"/>
	<unicode hex="00A2"/>
	<note>
		cent
	</note>
	<outline>
		<contour>
			<point x="237" y="-134" type="line"/>
			<point x="242" y="-134" type="line" smooth="yes"/>
			<point x="246" y="-134"/>
			<point x="248" y="-131"/>
			<point x="248" y="-126" type="curve" smooth="yes"/>
			<point x="273" y="621" type="line"/>
			<point x="268" y="621" type="line" smooth="yes"/>
			<point x="264" y="621"/>
			<point x="262" y="618"/>
			<point x="262" y="613" type="curve" smooth="yes"/>
		</contour>
		<component base="c"/>
	</outline>
</glyph>
<glyph name="sterling" format="2">
	<advance width="604"/>
	<unicode hex="00A3"/>
	<note>
		sterling
	</note>
	<outline>
		<contour>
			<point x="61" y="0" type="line"/>
			<point x="556" y="0" type="line"/>
			<point x="556" y="11" type="line"/>
			<point x="97" y="11" type="line" smooth="yes"/>
			<point x="92" y="11"/>
			<point x="86" y="11"/>
			<point x="79" y="10" type="curve"/>
			<point x="131" y="35"/>
			<point x="163" y="81"/>
			<point x="163" y="145" type="curve" smooth="yes"/>
			<point x="163" y="324" type="line"/>
			<point x="413" y="324" type="line" smooth="yes"/>
			<point x="417" y="324"/>
			<point x="419" y="326"/>
			<point x="419" y="329" type="curve" smooth="yes"/>
			<point x="419" y="334" type="line"/>
			<point x="163" y="334" type="line"/>
			<point x="163" y="495" type="line" smooth="yes"/>
			<point x="163" y="614"/>
			<point x="228" y="697"/>
			<point x="346" y="697" type="curve" smooth="yes"/>
			<point x="437" y="697"/>
			<point x="473" y="656"/>
			<point x="504" y="600" type="curve" smooth="yes"/>
			<point x="506" y="597"/>
			<point x="508" y="595"/>
			<point x="510" y="595" type="curve" smooth="yes"/>
			<point x="511" y="595"/>
			<point x="511" y="595"/>
			<point x="512" y="595" type="curve" smooth="yes"/>
			<point x="514" y="595"/>
			<point x="516" y="595"/>
			<point x="518" y="596" type="curve"/>
			<point x="489" y="662"/>
			<point x="439" y="707"/>
			<point x="346" y="707" type="curve" smooth="yes"/>
			<point x="220" y="707"/>
			<point x="151" y="621"/>
			<point x="151" y="495" type="curve" smooth="yes"/>
			<point x="151" y="334" type="line"/>
			<point x="55" y="334" type="line" smooth="yes"/>
			<point x="52" y="334"/>
			<point x="48" y="332"/>
			<point x="48" y="328" type="curve" smooth="yes"/>
			<point x="48" y="324" type="line"/>
			<point x="151" y="324" type="line"/>
			<point x="151" y="145" type="line" smooth="yes"/>
			<point x="151" y="73"/>
			<point x="112" y="34"/>
			<point x="61" y="11" type="curve"/>
		</contour>
		<component base="SerifUpLeftCaps" xOffset="556" yOffset="11"/>
	</outline>
</glyph>
<glyph name="currency" format="2">
	<advance width="523"/>
	<unicode hex="00A4"/>
	<note>
		currency
	</note>
	<outline>
		<contour>
			<point x="98" y="335" type="curve"/>
			<point x="98" y="335" type="line"/>
			<point x="98" y="291"/>
			<point x="115" y="253"/>
			<point x="143" y="222" type="curve"/>
			<point x="64" y="143" type="line"/>
			<point x="71" y="136" type="line"/>
			<point x="150" y="215" type="line"/>
			<point x="181" y="187"/>
			<point x="219" y="170"/>
			<point x="263" y="170" type="curve" smooth="yes"/>
			<point x="307" y="170"/>
			<point x="346" y="187"/>
			<point x="377" y="215" type="curve"/>
			<point x="455" y="136" type="line"/>
			<point x="462" y="143" type="line"/>
			<point x="384" y="222" type="line"/>
			<point x="412" y="251"/>
			<point x="429" y="291"/>
			<point x="429" y="335" type="curve" smooth="yes"/>
			<point x="429" y="379"/>
			<point x="412" y="420"/>
			<point x="384" y="449" type="curve"/>
			<point x="462" y="527" type="line"/>
			<point x="455" y="534" type="line"/>
			<point x="377" y="456" type="line"/>
			<point x="348" y="484"/>
			<point x="307" y="501"/>
			<point x="263" y="501" type="curve" smooth="yes"/>
			<point x="219" y="501"/>
			<point x="179" y="484"/>
			<point x="150" y="456" type="curve"/>
			<point x="71" y="534" type="line"/>
			<point x="64" y="527" type="line"/>
			<point x="143" y="449" type="line"/>
			<point x="115" y="418"/>
			<point x="98" y="379"/>
		</contour>
		<contour>
			<point x="108" y="335" type="curve"/>
			<point x="108" y="335" type="line"/>
			<point x="108" y="421"/>
			<point x="179" y="491"/>
			<point x="263" y="491" type="curve" smooth="yes"/>
			<point x="349" y="491"/>
			<point x="419" y="421"/>
			<point x="419" y="335" type="curve" smooth="yes"/>
			<point x="419" y="251"/>
			<point x="349" y="180"/>
			<point x="263" y="180" type="curve" smooth="yes"/>
			<point x="179" y="180"/>
			<point x="108" y="251"/>
		</contour>
	</outline>
</glyph>
<glyph name="yen" format="2">
	<advance width="486"/>
	<unicode hex="00A5"/>
	<note>
		yen
	</note>
	<outline>
		<contour>
			<point x="43" y="294" type="line"/>
			<point x="237" y="294" type="line"/>
			<point x="237" y="230" type="line"/>
			<point x="43" y="230" type="line"/>
			<point x="43" y="220" type="line"/>
			<point x="237" y="220" type="line"/>
			<point x="237" y="0" type="line"/>
			<point x="249" y="0" type="line"/>
			<point x="249" y="220" type="line"/>
			<point x="443" y="220" type="line"/>
			<point x="443" y="230" type="line"/>
			<point x="249" y="230" type="line"/>
			<point x="249" y="294" type="line"/>
			<point x="443" y="294" type="line"/>
			<point x="443" y="304" type="line"/>
			<point x="253" y="304" type="line"/>
			<point x="470" y="700" type="line"/>
			<point x="460" y="700" type="line" smooth="yes"/>
			<point x="457" y="700"/>
			<point x="455" y="699"/>
			<point x="453" y="696" type="curve"/>
			<point x="250" y="321" type="line" smooth="yes"/>
			<point x="247" y="316"/>
			<point x="246" y="312"/>
			<point x="243" y="307" type="curve"/>
			<point x="242" y="312"/>
			<point x="240" y="316"/>
			<point x="236" y="321" type="curve"/>
			<point x="33" y="696" type="line" smooth="yes"/>
			<point x="32" y="699"/>
			<point x="29" y="700"/>
			<point x="26" y="700" type="curve" smooth="yes"/>
			<point x="16" y="700" type="line"/>
			<point x="234" y="304" type="line"/>
			<point x="43" y="304" type="line"/>
			<point x="43" y="294" type="line"/>
		</contour>
	</outline>
</glyph>
<glyph name="brokenbar" format="2">
	<advance width="204"/>
	<unicode hex="00A6"/>
	<note>
		brokenbar
	</note>
	<outline>
		<contour>
			<point x="97" y="370" type="line"/>
			<point x="107" y="370" type="line"/>
			<point x="107" y="751" type="line"/>
			<point x="97" y="751" type="line"/>
			<point x="97" y="370" type="line"/>
		</contour>
		<contour>
			<point x="97" y="-180" type="line"/>
			<point x="107" y="-180" type="line"/>
			<point x="107" y="201" type="line"/>
			<point x="97" y="201" type="line"/>
			<point x="97" y="-180" type="line"/>
		</contour>
	</outline>
</glyph>
<glyph name="section" format="2">
	<advance width="436"/>
	<unicode hex="00A7"/>
	<note>
		section
	</note>
	<outline>
		<contour>
			<point x="214" y="-68" type="curve" smooth="yes"/>
			<point x="319" y="-68"/>
			<point x="376" y="-6"/>
			<point x="376" y="73" type="curve" smooth="yes"/>
			<point x="376" y="125"/>
			<point x="351" y="152"/>
			<point x="315" y="178" type="curve"/>
			<point x="364" y="202"/>
			<point x="396" y="241"/>
			<point x="396" y="298" type="curve" smooth="yes"/>
			<point x="396" y="382"/>
			<point x="325" y="417"/>
			<point x="247" y="452" type="curve" smooth="yes"/>
			<point x="180" y="482"/>
			<point x="99" y="512"/>
			<point x="99" y="584" type="curve" smooth="yes"/>
			<point x="99" y="647"/>
			<point x="160" y="698"/>
			<point x="243" y="698" type="curve" smooth="yes"/>
			<point x="307" y="698"/>
			<point x="350" y="667"/>
			<point x="366" y="654" type="curve"/>
			<point x="368" y="653"/>
			<point x="370" y="655"/>
			<point x="371" y="657" type="curve" smooth="yes"/>
			<point x="372" y="659" type="line"/>
			<point x="335" y="695"/>
			<point x="287" y="708"/>
			<point x="243" y="708" type="curve" smooth="yes"/>
			<point x="154" y="708"/>
			<point x="88" y="654"/>
			<point x="88" y="584" type="curve" smooth="yes"/>
			<point x="88" y="539"/>
			<point x="115" y="507"/>
			<point x="154" y="484" type="curve"/>
			<point x="85" y="458"/>
			<point x="51" y="418"/>
			<point x="51" y="365" type="curve" smooth="yes"/>
			<point x="51" y="287"/>
			<point x="126" y="254"/>
			<point x="210" y="218" type="curve" smooth="yes"/>
			<point x="294" y="182"/>
			<point x="365" y="152"/>
			<point x="365" y="71" type="curve" smooth="yes"/>
			<point x="365" y="-1"/>
			<point x="309" y="-58"/>
			<point x="215" y="-58" type="curve" smooth="yes"/>
			<point x="162" y="-58"/>
			<point x="118" y="-40"/>
			<point x="78" y="-6" type="curve" smooth="yes"/>
			<point x="75" y="-3"/>
			<point x="72" y="-4"/>
			<point x="70" y="-6" type="curve" smooth="yes"/>
			<point x="67" y="-9" type="line"/>
			<point x="104" y="-44"/>
			<point x="148" y="-68"/>
		</contour>
		<contour>
			<point x="305" y="184" type="curve"/>
			<point x="272" y="206"/>
			<point x="183" y="243"/>
			<point x="148" y="260" type="curve" smooth="yes"/>
			<point x="100" y="284"/>
			<point x="62" y="316"/>
			<point x="62" y="367" type="curve" smooth="yes"/>
			<point x="62" y="412"/>
			<point x="92" y="450"/>
			<point x="163" y="478" type="curve"/>
			<point x="195" y="460"/>
			<point x="281" y="424"/>
			<point x="308" y="410" type="curve" smooth="yes"/>
			<point x="347" y="390"/>
			<point x="385" y="351"/>
			<point x="385" y="295" type="curve" smooth="yes"/>
			<point x="385" y="247"/>
			<point x="358" y="208"/>
		</contour>
	</outline>
</glyph>
<glyph name="dieresis" format="2">
	<advance width="294"/>
	<unicode hex="00A8"/>
	<note>
		dieresis
	</note>
	<outline>
		<contour>
			<point x="93" y="640" type="curve"/>
			<point x="93" y="640" type="line"/>
			<point x="93" y="656"/>
			<point x="80" y="668"/>
			<point x="65" y="668" type="curve" smooth="yes"/>
			<point x="50" y="668"/>
			<point x="37" y="656"/>
			<point x="37" y="640" type="curve" smooth="yes"/>
			<point x="37" y="627"/>
			<point x="50" y="613"/>
			<point x="65" y="613" type="curve" smooth="yes"/>
			<point x="80" y="613"/>
			<point x="93" y="627"/>
		</contour>
		<contour>
			<point x="257" y="640" type="curve"/>
			<point x="257" y="640" type="line"/>
			<point x="257" y="656"/>
			<point x="244" y="668"/>
			<point x="229" y="668" type="curve" smooth="yes"/>
			<point x="214" y="668"/>
			<point x="201" y="656"/>
			<point x="201" y="640" type="curve" smooth="yes"/>
			<point x="201" y="627"/>
			<point x="214" y="613"/>
			<point x="229" y="613" type="curve" smooth="yes"/>
			<point x="244" y="613"/>
			<point x="257" y="627"/>
		</contour>
	</outline>
</glyph>
<glyph name="copyright" format="2">
	<advance width="800"/>
	<unicode hex="00A9"/>
	<note>
		copyright
	</note>
	<outline>
		<contour>
			<point x="199" y="350" type="curve" smooth="yes"/>
			<point x="199" y="285"/>
			<point x="219" y="229"/>
			<point x="256" y="189" type="curve" smooth="yes"/>
			<point x="293" y="149"/>
			<point x="344" y="128"/>
			<point x="404" y="128" type="curve" smooth="yes"/>
			<point x="468" y="128"/>
			<point x="517" y="151"/>
			<point x="556" y="189" type="curve"/>
			<point x="551" y="193" type="line" smooth="yes"/>
			<point x="550" y="194"/>
			<point x="550" y="195"/>
			<point x="549" y="195" type="curve" smooth="yes"/>
			<point x="547" y="195"/>
			<point x="546" y="194"/>
			<point x="545" y="193" type="curve" smooth="yes"/>
			<point x="514" y="162"/>
			<point x="471" y="138"/>
			<point x="405" y="138" type="curve" smooth="yes"/>
			<point x="284" y="138"/>
			<point x="211" y="228"/>
			<point x="211" y="350" type="curve" smooth="yes"/>
			<point x="211" y="475"/>
			<point x="285" y="563"/>
			<point x="414" y="563" type="curve" smooth="yes"/>
			<point x="468" y="563"/>
			<point x="516" y="547"/>
			<point x="541" y="530" type="curve"/>
			<point x="543" y="474" type="line" smooth="yes"/>
			<point x="543" y="472"/>
			<point x="545" y="469"/>
			<point x="547" y="469" type="curve" smooth="yes"/>
			<point x="553" y="469" type="line"/>
			<point x="553" y="534" type="line"/>
			<point x="527" y="556"/>
			<point x="470" y="573"/>
			<point x="411" y="573" type="curve" smooth="yes"/>
			<point x="345" y="573"/>
			<point x="294" y="551"/>
			<point x="257" y="512" type="curve" smooth="yes"/>
			<point x="220" y="472"/>
			<point x="199" y="416"/>
		</contour>
		<component base="largecircle" xOffset="-8"/>
	</outline>
</glyph>
<glyph name="ordfeminine" format="2">
	<advance width="289"/>
	<unicode hex="00AA"/>
	<anchor x="245" y="1" name="ogonek"/>
	<anchor x="133" y="0" name="bottom"/>
	<anchor x="139" y="285" name="top"/>
	<note>
		ordfeminine
	</note>
	<outline>
		<contour>
			<point x="103" y="411" type="curve" smooth="yes"/>
			<point x="149" y="411"/>
			<point x="181" y="429"/>
			<point x="217" y="466" type="curve"/>
			<point x="219" y="421" type="line" smooth="yes"/>
			<point x="219" y="419"/>
			<point x="220" y="416"/>
			<point x="224" y="416" type="curve" smooth="yes"/>
			<point x="227" y="416" type="line"/>
			<point x="227" y="604" type="line" smooth="yes"/>
			<point x="227" y="666"/>
			<point x="200" y="706"/>
			<point x="141" y="706" type="curve" smooth="yes"/>
			<point x="101" y="706"/>
			<point x="73" y="690"/>
			<point x="45" y="660" type="curve"/>
			<point x="47" y="657" type="line" smooth="yes"/>
			<point x="48" y="655"/>
			<point x="51" y="656"/>
			<point x="53" y="658" type="curve" smooth="yes"/>
			<point x="78" y="680"/>
			<point x="105" y="697"/>
			<point x="141" y="697" type="curve" smooth="yes"/>
			<point x="192" y="697"/>
			<point x="216" y="661"/>
			<point x="216" y="604" type="curve" smooth="yes"/>
			<point x="216" y="569" type="line"/>
			<point x="152" y="567"/>
			<point x="104" y="558"/>
			<point x="75" y="544" type="curve" smooth="yes"/>
			<point x="44" y="529"/>
			<point x="30" y="508"/>
			<point x="30" y="483" type="curve" smooth="yes"/>
			<point x="30" y="436"/>
			<point x="65" y="411"/>
		</contour>
		<contour>
			<point x="105" y="420" type="curve" smooth="yes"/>
			<point x="71" y="420"/>
			<point x="40" y="442"/>
			<point x="40" y="483" type="curve" smooth="yes"/>
			<point x="40" y="532"/>
			<point x="100" y="557"/>
			<point x="216" y="560" type="curve"/>
			<point x="216" y="475" type="line"/>
			<point x="185" y="444"/>
			<point x="156" y="420"/>
		</contour>
		<contour>
			<point x="224" y="416" type="line"/>
			<point x="274" y="416" type="line"/>
			<point x="274" y="421" type="line" smooth="yes"/>
			<point x="274" y="423"/>
			<point x="271" y="424"/>
			<point x="269" y="424" type="curve" smooth="yes"/>
			<point x="225" y="426" type="line"/>
		</contour>
	</outline>
</glyph>
<glyph name="guillemotleft" format="2">
	<advance width="414"/>
	<unicode hex="00AB"/>
	<note>
		guillemotleft
	</note>
	<outline>
		<contour>
			<point x="202" y="69" type="line"/>
			<point x="205" y="71" type="line" smooth="yes"/>
			<point x="207" y="72.333"/>
			<point x="208" y="74.333"/>
			<point x="208" y="77" type="curve" smooth="yes"/>
			<point x="208" y="79"/>
			<point x="207" y="81"/>
			<point x="206" y="83" type="curve" smooth="yes"/>
			<point x="104" y="244" type="line" smooth="yes"/>
			<point x="100" y="250"/>
			<point x="97" y="253.667"/>
			<point x="95" y="255" type="curve"/>
			<point x="96.333" y="255.667"/>
			<point x="100" y="259"/>
			<point x="104" y="266" type="curve" smooth="yes"/>
			<point x="206" y="427" type="line" smooth="yes"/>
			<point x="208" y="430"/>
			<point x="208" y="431.667"/>
			<point x="208" y="433" type="curve" smooth="yes"/>
			<point x="208" y="435.667"/>
			<point x="207" y="437.667"/>
			<point x="205" y="439" type="curve" smooth="yes"/>
			<point x="202" y="441" type="line"/>
			<point x="85" y="256" type="line"/>
			<point x="85" y="254" type="line"/>
			<point x="202" y="69" type="line"/>
		</contour>
		<contour>
			<point x="312" y="69" type="line"/>
			<point x="315" y="71" type="line" smooth="yes"/>
			<point x="317" y="72"/>
			<point x="318" y="74"/>
			<point x="318" y="77" type="curve" smooth="yes"/>
			<point x="318" y="79"/>
			<point x="317" y="81"/>
			<point x="316" y="83" type="curve" smooth="yes"/>
			<point x="214" y="244" type="line" smooth="yes"/>
			<point x="210" y="250"/>
			<point x="207" y="254"/>
			<point x="205" y="255" type="curve"/>
			<point x="206" y="256"/>
			<point x="210" y="259"/>
			<point x="214" y="266" type="curve" smooth="yes"/>
			<point x="316" y="427" type="line" smooth="yes"/>
			<point x="318" y="430"/>
			<point x="318" y="432"/>
			<point x="318" y="433" type="curve" smooth="yes"/>
			<point x="318" y="436"/>
			<point x="317" y="438"/>
			<point x="315" y="439" type="curve" smooth="yes"/>
			<point x="312" y="441" type="line"/>
			<point x="195" y="256" type="line"/>
			<point x="195" y="254" type="line"/>
			<point x="312" y="69" type="line"/>
		</contour>
	</outline>
</glyph>
<glyph name="logicalnot" format="2">
	<advance width="559"/>
	<unicode hex="00AC"/>
	<note>
		logicalnot
	</note>
	<outline>
		<contour>
			<point x="87" y="330" type="line"/>
			<point x="477" y="330" type="line"/>
			<point x="477" y="180" type="line"/>
			<point x="488" y="180" type="line"/>
			<point x="488" y="340" type="line"/>
			<point x="87" y="340" type="line"/>
			<point x="87" y="330" type="line"/>
		</contour>
	</outline>
</glyph>
<glyph name="uni00AD" format="2">
	<advance width="320"/>
	<unicode hex="00AD"/>
	<note>
		uni00AD
	</note>
	<outline>
		<contour>
			<point x="50" y="289" type="line"/>
			<point x="270" y="289" type="line"/>
			<point x="270" y="299" type="line"/>
			<point x="50" y="299" type="line"/>
			<point x="50" y="289" type="line"/>
		</contour>
	</outline>
</glyph>
<glyph name="registered" format="2">
	<advance width="800"/>
	<unicode hex="00AE"/>
	<anchor x="393" y="435" name="top"/>
	<anchor x="393" y="0" name="bottom"/>
	<note>
		registered
	</note>
	<outline>
		<contour>
			<point x="229" y="140" type="line"/>
			<point x="342" y="140" type="line"/>
			<point x="342" y="145" type="line" smooth="yes"/>
			<point x="342" y="147"/>
			<point x="339" y="149"/>
			<point x="337" y="149" type="curve" smooth="yes"/>
			<point x="291" y="151" type="line"/>
			<point x="291" y="347" type="line"/>
			<point x="357" y="347" type="line" smooth="yes"/>
			<point x="370" y="347"/>
			<point x="379" y="346"/>
			<point x="387" y="336" type="curve" smooth="yes"/>
			<point x="545" y="145" type="line" smooth="yes"/>
			<point x="548" y="141"/>
			<point x="551" y="140"/>
			<point x="555" y="140" type="curve" smooth="yes"/>
			<point x="608" y="140" type="line"/>
			<point x="608" y="145" type="line" smooth="yes"/>
			<point x="608" y="147"/>
			<point x="606" y="149"/>
			<point x="604" y="149" type="curve" smooth="yes"/>
			<point x="555" y="151" type="line"/>
			<point x="398" y="339" type="line" smooth="yes"/>
			<point x="395" y="343"/>
			<point x="391" y="346"/>
			<point x="387" y="348" type="curve"/>
			<point x="467" y="351"/>
			<point x="525" y="395"/>
			<point x="525" y="465" type="curve" smooth="yes"/>
			<point x="525" y="540"/>
			<point x="474" y="575"/>
			<point x="382" y="575" type="curve" smooth="yes"/>
			<point x="229" y="575" type="line"/>
			<point x="229" y="570" type="line" smooth="yes"/>
			<point x="229" y="568"/>
			<point x="231" y="566"/>
			<point x="234" y="566" type="curve" smooth="yes"/>
			<point x="279" y="564" type="line"/>
			<point x="279" y="151" type="line"/>
			<point x="234" y="149" type="line" smooth="yes"/>
			<point x="232" y="149"/>
			<point x="229" y="147"/>
			<point x="229" y="145" type="curve" smooth="yes"/>
		</contour>
		<contour>
			<point x="291" y="357" type="line"/>
			<point x="291" y="565" type="line"/>
			<point x="382" y="565" type="line" smooth="yes"/>
			<point x="467" y="565"/>
			<point x="513" y="534"/>
			<point x="513" y="465" type="curve" smooth="yes"/>
			<point x="513" y="397"/>
			<point x="459" y="357"/>
			<point x="377" y="357" type="curve" smooth="yes"/>
		</contour>
		<component base="largecircle" xOffset="-8"/>
	</outline>
</glyph>
<glyph name="degree" format="2">
	<advance width="338"/>
	<unicode hex="00B0"/>
	<note>
		degree
	</note>
	<outline>
		<contour>
			<point x="29" y="570" type="curve"/>
			<point x="29" y="570" type="line"/>
			<point x="29" y="493"/>
			<point x="92" y="431"/>
			<point x="169" y="431" type="curve" smooth="yes"/>
			<point x="246" y="431"/>
			<point x="309" y="493"/>
			<point x="309" y="570" type="curve" smooth="yes"/>
			<point x="309" y="648"/>
			<point x="246" y="708"/>
			<point x="169" y="708" type="curve" smooth="yes"/>
			<point x="92" y="708"/>
			<point x="29" y="648"/>
		</contour>
		<contour>
			<point x="41" y="570" type="curve"/>
			<point x="41" y="570" type="line"/>
			<point x="41" y="641"/>
			<point x="98" y="698"/>
			<point x="169" y="698" type="curve" smooth="yes"/>
			<point x="241" y="698"/>
			<point x="297" y="642"/>
			<point x="297" y="570" type="curve" smooth="yes"/>
			<point x="297" y="499"/>
			<point x="240" y="442"/>
			<point x="169" y="442" type="curve" smooth="yes"/>
			<point x="99" y="442"/>
			<point x="41" y="500"/>
		</contour>
	</outline>
</glyph>
<glyph name="plusminus" format="2">
	<advance width="647"/>
	<unicode hex="00B1"/>
	<note>
		plusminus
	</note>
	<outline>
		<contour>
			<point x="318" y="555" type="line"/>
			<point x="318" y="340" type="line"/>
			<point x="93" y="340" type="line"/>
			<point x="93" y="330" type="line"/>
			<point x="318" y="330" type="line"/>
			<point x="318" y="114" type="line"/>
			<point x="328" y="114" type="line"/>
			<point x="328" y="330" type="line"/>
			<point x="554" y="330" type="line"/>
			<point x="554" y="340" type="line"/>
			<point x="328" y="340" type="line"/>
			<point x="328" y="555" type="line"/>
			<point x="318" y="555" type="line"/>
		</contour>
		<contour>
			<point x="93" y="40" type="line"/>
			<point x="554" y="40" type="line"/>
			<point x="554" y="50" type="line"/>
			<point x="93" y="50" type="line"/>
			<point x="93" y="40" type="line"/>
		</contour>
	</outline>
</glyph>
<glyph name="twosuperior" format="2">
	<advance width="327"/>
	<unicode hex="00B2"/>
	<note>
		twosuperior
	</note>
	<outline>
		<contour>
			<point x="49" y="450" type="line"/>
			<point x="275" y="450" type="line"/>
			<point x="275" y="460" type="line"/>
			<point x="93" y="460" type="line" smooth="yes"/>
			<point x="82" y="460"/>
			<point x="71" y="459"/>
			<point x="63" y="458" type="curve"/>
			<point x="186" y="583" type="line" smooth="yes"/>
			<point x="228" y="626"/>
			<point x="265" y="662"/>
			<point x="265" y="718" type="curve" smooth="yes"/>
			<point x="265" y="780"/>
			<point x="220" y="812"/>
			<point x="166" y="812" type="curve" smooth="yes"/>
			<point x="108" y="812"/>
			<point x="68" y="777"/>
			<point x="59" y="718" type="curve"/>
			<point x="62" y="718"/>
			<point x="64" y="718"/>
			<point x="64" y="718" type="curve" smooth="yes"/>
			<point x="68" y="718"/>
			<point x="69" y="719"/>
			<point x="70" y="723" type="curve" smooth="yes"/>
			<point x="78" y="771"/>
			<point x="116" y="803"/>
			<point x="165" y="803" type="curve" smooth="yes"/>
			<point x="214" y="803"/>
			<point x="255" y="774"/>
			<point x="255" y="718" type="curve" smooth="yes"/>
			<point x="255" y="672"/>
			<point x="226" y="635"/>
			<point x="179" y="588" type="curve" smooth="yes"/>
			<point x="52" y="459" type="line" smooth="yes"/>
			<point x="51" y="458"/>
			<point x="49" y="456"/>
			<point x="49" y="454" type="curve" smooth="yes"/>
		</contour>
		<contour>
			<point x="265" y="456" type="line"/>
			<point x="275" y="460" type="line"/>
			<point x="275" y="507" type="line"/>
			<point x="270" y="507" type="line" smooth="yes"/>
			<point x="268" y="507"/>
			<point x="267" y="505"/>
			<point x="267" y="503" type="curve" smooth="yes"/>
			<point x="265" y="456" type="line"/>
		</contour>
	</outline>
</glyph>
<glyph name="threesuperior" format="2">
	<advance width="342"/>
	<unicode hex="00B3"/>
	<note>
		threesuperior
	</note>
	<outline>
		<contour>
			<point x="168" y="446" type="curve" smooth="yes"/>
			<point x="232" y="446"/>
			<point x="279" y="490"/>
			<point x="279" y="544" type="curve" smooth="yes"/>
			<point x="279" y="591"/>
			<point x="249" y="625"/>
			<point x="194" y="632" type="curve"/>
			<point x="235" y="640"/>
			<point x="269" y="672"/>
			<point x="269" y="717" type="curve" smooth="yes"/>
			<point x="269" y="776"/>
			<point x="225" y="805"/>
			<point x="173" y="805" type="curve" smooth="yes"/>
			<point x="117" y="805"/>
			<point x="76" y="771"/>
			<point x="68" y="713" type="curve"/>
			<point x="74" y="712" type="line" smooth="yes"/>
			<point x="77" y="712"/>
			<point x="79" y="714"/>
			<point x="80" y="717" type="curve" smooth="yes"/>
			<point x="90" y="766"/>
			<point x="124" y="795"/>
			<point x="173" y="795" type="curve" smooth="yes"/>
			<point x="220" y="795"/>
			<point x="258" y="769"/>
			<point x="258" y="716" type="curve" smooth="yes"/>
			<point x="258" y="668"/>
			<point x="222" y="637"/>
			<point x="159" y="634" type="curve"/>
			<point x="159" y="626" type="line"/>
			<point x="230" y="626"/>
			<point x="267" y="597"/>
			<point x="267" y="543" type="curve" smooth="yes"/>
			<point x="267" y="500"/>
			<point x="230" y="455"/>
			<point x="168" y="455" type="curve" smooth="yes"/>
			<point x="102" y="455"/>
			<point x="81" y="494"/>
			<point x="69" y="534" type="curve" smooth="yes"/>
			<point x="68" y="537"/>
			<point x="65" y="539"/>
			<point x="62" y="537" type="curve" smooth="yes"/>
			<point x="56" y="534" type="line"/>
			<point x="70" y="488"/>
			<point x="94" y="446"/>
		</contour>
	</outline>
</glyph>
<glyph name="acute" format="2">
	<advance width="216"/>
	<unicode hex="00B4"/>
	<note>
		acute
	</note>
	<outline>
		<contour>
			<point x="50" y="579" type="line"/>
			<point x="57" y="579" type="line" smooth="yes"/>
			<point x="60" y="579"/>
			<point x="63" y="580"/>
			<point x="65" y="583" type="curve" smooth="yes"/>
			<point x="166" y="708" type="line"/>
			<point x="153" y="708" type="line" smooth="yes"/>
			<point x="142" y="708"/>
			<point x="139" y="706"/>
			<point x="132" y="697" type="curve" smooth="yes"/>
		</contour>
	</outline>
</glyph>
<glyph name="mu" format="2">
	<advance width="560"/>
	<unicode hex="00B5"/>
	<note>
		mu
	</note>
	<outline>
		<contour>
			<point x="81" y="-180" type="curve" smooth="yes"/>
			<point x="87" y="-180" type="line"/>
			<point x="87" y="5" type="line" smooth="yes"/>
			<point x="87" y="40"/>
			<point x="86" y="96"/>
			<point x="83" y="201" type="curve" smooth="yes"/>
			<point x="75" y="490" type="line"/>
			<point x="75" y="-174" type="line" smooth="yes"/>
			<point x="75" y="-178"/>
			<point x="77" y="-180"/>
		</contour>
		<component base="u"/>
	</outline>
</glyph>
<glyph name="periodcentered" format="2">
	<advance width="198"/>
	<unicode hex="00B7"/>
	<note>
		periodcentered
	</note>
	<outline>
		<contour>
			<point x="69" y="295" type="curve"/>
			<point x="69" y="295" type="line"/>
			<point x="69" y="280"/>
			<point x="83" y="266"/>
			<point x="98" y="266" type="curve" smooth="yes"/>
			<point x="115" y="266"/>
			<point x="129" y="280"/>
			<point x="129" y="295" type="curve" smooth="yes"/>
			<point x="129" y="312"/>
			<point x="115" y="326"/>
			<point x="98" y="326" type="curve" smooth="yes"/>
			<point x="83" y="326"/>
			<point x="69" y="312"/>
		</contour>
	</outline>
</glyph>
<glyph name="cedilla" format="2">
	<advance width="250"/>
	<unicode hex="00B8"/>
	<note>
		cedilla
	</note>
	<outline>
		<contour>
			<point x="122" y="-179" type="curve" smooth="yes"/>
			<point x="167" y="-179"/>
			<point x="200" y="-158"/>
			<point x="200" y="-119" type="curve" smooth="yes"/>
			<point x="200" y="-77"/>
			<point x="158" y="-63"/>
			<point x="105" y="-55" type="curve"/>
			<point x="122" y="0" type="line"/>
			<point x="113" y="0" type="line"/>
			<point x="93" y="-63" type="line"/>
			<point x="144" y="-71"/>
			<point x="189" y="-77"/>
			<point x="189" y="-120" type="curve" smooth="yes"/>
			<point x="189" y="-152"/>
			<point x="165" y="-170"/>
			<point x="125" y="-170" type="curve" smooth="yes"/>
			<point x="100" y="-170"/>
			<point x="85" y="-166"/>
			<point x="61" y="-149" type="curve" smooth="yes"/>
			<point x="58" y="-147"/>
			<point x="55" y="-148"/>
			<point x="53" y="-150" type="curve" smooth="yes"/>
			<point x="50" y="-153" type="line"/>
			<point x="66" y="-169"/>
			<point x="95" y="-179"/>
		</contour>
	</outline>
</glyph>
<glyph name="onesuperior" format="2">
	<advance width="337"/>
	<unicode hex="00B9"/>
	<note>
		onesuperior
	</note>
	<outline>
		<contour>
			<point x="84" y="450" type="line"/>
			<point x="264" y="450" type="line"/>
			<point x="264" y="454" type="line" smooth="yes"/>
			<point x="264" y="456"/>
			<point x="262" y="458"/>
			<point x="260" y="458" type="curve" smooth="yes"/>
			<point x="181" y="460" type="line"/>
			<point x="181" y="810" type="line"/>
			<point x="173" y="810" type="line"/>
			<point x="72" y="719" type="line"/>
			<point x="74" y="716" type="line" smooth="yes"/>
			<point x="76" y="713"/>
			<point x="80" y="713"/>
			<point x="83" y="716" type="curve" smooth="yes"/>
			<point x="171" y="795" type="line"/>
			<point x="171" y="790"/>
			<point x="170" y="785"/>
			<point x="170" y="780" type="curve" smooth="yes"/>
			<point x="170" y="460" type="line"/>
			<point x="88" y="458" type="line" smooth="yes"/>
			<point x="86" y="458"/>
			<point x="84" y="456"/>
			<point x="84" y="454" type="curve" smooth="yes"/>
		</contour>
	</outline>
</glyph>
<glyph name="ordmasculine" format="2">
	<advance width="325"/>
	<unicode hex="00BA"/>
	<note>
		ordmasculine
	</note>
	<outline>
		<contour>
			<point x="163" y="706" type="curve"/>
			<point x="163" y="706" type="line"/>
			<point x="77" y="706"/>
			<point x="29" y="648"/>
			<point x="29" y="559" type="curve" smooth="yes"/>
			<point x="29" y="471"/>
			<point x="77" y="413"/>
			<point x="163" y="413" type="curve" smooth="yes"/>
			<point x="249" y="413"/>
			<point x="296" y="471"/>
			<point x="296" y="559" type="curve" smooth="yes"/>
			<point x="296" y="648"/>
			<point x="249" y="706"/>
		</contour>
		<contour>
			<point x="163" y="421" type="curve"/>
			<point x="163" y="421" type="line"/>
			<point x="81" y="421"/>
			<point x="39" y="476"/>
			<point x="39" y="559" type="curve" smooth="yes"/>
			<point x="39" y="642"/>
			<point x="81" y="698"/>
			<point x="163" y="698" type="curve" smooth="yes"/>
			<point x="245" y="698"/>
			<point x="286" y="642"/>
			<point x="286" y="559" type="curve" smooth="yes"/>
			<point x="286" y="476"/>
			<point x="245" y="421"/>
		</contour>
	</outline>
</glyph>
<glyph name="onequarter" format="2">
	<advance width="781"/>
	<unicode hex="00BC"/>
	<note>
		onequarter
	</note>
	<outline>
		<contour>
			<point x="614" y="0" type="line"/>
			<point x="625" y="0" type="line"/>
			<point x="625" y="106" type="line"/>
			<point x="691" y="106" type="line" smooth="yes"/>
			<point x="694" y="106"/>
			<point x="696" y="107"/>
			<point x="696" y="110" type="curve" smooth="yes"/>
			<point x="696" y="115" type="line"/>
			<point x="625" y="115" type="line"/>
			<point x="625" y="351" type="line"/>
			<point x="616" y="351" type="line"/>
			<point x="436" y="114" type="line"/>
			<point x="437" y="109" type="line" smooth="yes"/>
			<point x="437" y="107"/>
			<point x="440" y="106"/>
			<point x="443" y="106" type="curve" smooth="yes"/>
			<point x="614" y="106" type="line"/>
		</contour>
		<contour>
			<point x="97" y="349" type="line"/>
			<point x="274" y="349" type="line"/>
			<point x="274" y="352" type="line" smooth="yes"/>
			<point x="274" y="354"/>
			<point x="273" y="355"/>
			<point x="271" y="355" type="curve" smooth="yes"/>
			<point x="193" y="358" type="line"/>
			<point x="193" y="702" type="line"/>
			<point x="185" y="702" type="line"/>
			<point x="85" y="613" type="line"/>
			<point x="88" y="609" type="line" smooth="yes"/>
			<point x="90" y="607"/>
			<point x="93" y="606"/>
			<point x="95" y="608" type="curve" smooth="yes"/>
			<point x="183" y="688" type="line"/>
			<point x="182" y="682"/>
			<point x="181" y="676"/>
			<point x="181" y="670" type="curve" smooth="yes"/>
			<point x="181" y="358" type="line"/>
			<point x="100" y="355" type="line" smooth="yes"/>
			<point x="98" y="355"/>
			<point x="97" y="354"/>
			<point x="97" y="352" type="curve" smooth="yes"/>
		</contour>
		<contour>
			<point x="449" y="115" type="line"/>
			<point x="615" y="335" type="line"/>
			<point x="614" y="333"/>
			<point x="614" y="331"/>
			<point x="614" y="329" type="curve" smooth="yes"/>
			<point x="614" y="115" type="line"/>
		</contour>
		<component base="fraction" xOffset="386"/>
	</outline>
</glyph>
<glyph name="onehalf" format="2">
	<advance width="759"/>
	<unicode hex="00BD"/>
	<note>
		onehalf
	</note>
	<outline>
		<contour>
			<point x="453" y="0" type="line"/>
			<point x="674" y="0" type="line"/>
			<point x="674" y="6" type="line" smooth="yes"/>
			<point x="674" y="9"/>
			<point x="673" y="10"/>
			<point x="670" y="10" type="curve" smooth="yes"/>
			<point x="498" y="10" type="line" smooth="yes"/>
			<point x="485" y="10"/>
			<point x="475" y="9"/>
			<point x="467" y="8" type="curve"/>
			<point x="588" y="131" type="line" smooth="yes"/>
			<point x="629" y="173"/>
			<point x="665" y="208"/>
			<point x="665" y="262" type="curve" smooth="yes"/>
			<point x="665" y="324"/>
			<point x="622" y="355"/>
			<point x="567" y="355" type="curve" smooth="yes"/>
			<point x="511" y="355"/>
			<point x="470" y="321"/>
			<point x="462" y="263" type="curve"/>
			<point x="467" y="262" type="line" smooth="yes"/>
			<point x="471" y="261"/>
			<point x="473" y="264"/>
			<point x="474" y="267" type="curve" smooth="yes"/>
			<point x="485" y="314"/>
			<point x="518" y="345"/>
			<point x="567" y="345" type="curve" smooth="yes"/>
			<point x="614" y="345"/>
			<point x="654" y="318"/>
			<point x="654" y="262" type="curve" smooth="yes"/>
			<point x="654" y="212"/>
			<point x="620" y="177"/>
			<point x="580" y="136" type="curve" smooth="yes"/>
			<point x="456" y="10" type="line" smooth="yes"/>
			<point x="454" y="8"/>
			<point x="453" y="6"/>
			<point x="453" y="4" type="curve" smooth="yes"/>
		</contour>
		<contour>
			<point x="97" y="349" type="line"/>
			<point x="274" y="349" type="line"/>
			<point x="274" y="352" type="line" smooth="yes"/>
			<point x="274" y="354"/>
			<point x="273" y="355"/>
			<point x="271" y="355" type="curve" smooth="yes"/>
			<point x="193" y="358" type="line"/>
			<point x="193" y="702" type="line"/>
			<point x="185" y="702" type="line"/>
			<point x="85" y="613" type="line"/>
			<point x="88" y="609" type="line" smooth="yes"/>
			<point x="90" y="607"/>
			<point x="93" y="606"/>
			<point x="95" y="608" type="curve" smooth="yes"/>
			<point x="183" y="688" type="line"/>
			<point x="182" y="682"/>
			<point x="181" y="676"/>
			<point x="181" y="670" type="curve" smooth="yes"/>
			<point x="181" y="358" type="line"/>
			<point x="100" y="355" type="line" smooth="yes"/>
			<point x="98" y="355"/>
			<point x="97" y="354"/>
			<point x="97" y="352" type="curve" smooth="yes"/>
		</contour>
		<contour>
			<point x="664" y="6" type="line"/>
			<point x="674" y="4" type="line"/>
			<point x="674" y="57" type="line"/>
			<point x="669" y="57" type="line" smooth="yes"/>
			<point x="667" y="57"/>
			<point x="666" y="55"/>
			<point x="666" y="53" type="curve" smooth="yes"/>
			<point x="664" y="6" type="line"/>
		</contour>
		<component base="fraction" xOffset="342"/>
	</outline>
</glyph>
<glyph name="threequarters" format="2">
	<advance width="814"/>
	<unicode hex="00BE"/>
	<note>
		threequarters
	</note>
	<outline>
		<contour>
			<point x="197" y="345" type="curve" smooth="yes"/>
			<point x="261" y="345"/>
			<point x="308" y="389"/>
			<point x="308" y="443" type="curve" smooth="yes"/>
			<point x="308" y="490"/>
			<point x="278" y="524"/>
			<point x="223" y="531" type="curve"/>
			<point x="264" y="539"/>
			<point x="298" y="571"/>
			<point x="298" y="616" type="curve" smooth="yes"/>
			<point x="298" y="675"/>
			<point x="254" y="704"/>
			<point x="202" y="704" type="curve" smooth="yes"/>
			<point x="146" y="704"/>
			<point x="105" y="670"/>
			<point x="97" y="612" type="curve"/>
			<point x="103" y="611" type="line" smooth="yes"/>
			<point x="106" y="610"/>
			<point x="108" y="613"/>
			<point x="109" y="616" type="curve" smooth="yes"/>
			<point x="120" y="663"/>
			<point x="153" y="694"/>
			<point x="202" y="694" type="curve" smooth="yes"/>
			<point x="249" y="694"/>
			<point x="287" y="668"/>
			<point x="287" y="615" type="curve" smooth="yes"/>
			<point x="287" y="567"/>
			<point x="251" y="536"/>
			<point x="188" y="533" type="curve"/>
			<point x="188" y="525" type="line"/>
			<point x="259" y="525"/>
			<point x="296" y="496"/>
			<point x="296" y="442" type="curve" smooth="yes"/>
			<point x="296" y="399"/>
			<point x="259" y="354"/>
			<point x="197" y="354" type="curve" smooth="yes"/>
			<point x="128" y="354"/>
			<point x="109" y="398"/>
			<point x="99" y="428" type="curve" smooth="yes"/>
			<point x="98" y="432"/>
			<point x="97" y="436"/>
			<point x="93" y="436" type="curve" smooth="yes"/>
			<point x="91" y="436"/>
			<point x="89" y="435"/>
			<point x="87" y="434" type="curve" smooth="yes"/>
			<point x="85" y="433" type="line"/>
			<point x="99" y="387"/>
			<point x="123" y="345"/>
		</contour>
		<contour>
			<point x="647" y="0" type="line"/>
			<point x="658" y="0" type="line"/>
			<point x="658" y="106" type="line"/>
			<point x="724" y="106" type="line" smooth="yes"/>
			<point x="727" y="106"/>
			<point x="729" y="107"/>
			<point x="729" y="110" type="curve" smooth="yes"/>
			<point x="729" y="115" type="line"/>
			<point x="658" y="115" type="line"/>
			<point x="658" y="351" type="line"/>
			<point x="649" y="351" type="line"/>
			<point x="469" y="114" type="line"/>
			<point x="470" y="109" type="line" smooth="yes"/>
			<point x="470" y="107"/>
			<point x="473" y="106"/>
			<point x="476" y="106" type="curve" smooth="yes"/>
			<point x="647" y="106" type="line"/>
		</contour>
		<contour>
			<point x="482" y="115" type="line"/>
			<point x="648" y="335" type="line"/>
			<point x="647" y="333"/>
			<point x="647" y="331"/>
			<point x="647" y="329" type="curve" smooth="yes"/>
			<point x="647" y="115" type="line"/>
		</contour>
		<component base="fraction" xOffset="381"/>
	</outline>
</glyph>
<glyph name="AE" format="2">
	<advance width="957"/>
	<unicode hex="00C6"/>
	<anchor x="503" y="700" name="top"/>
	<anchor x="509" y="0" name="bottom"/>
	<note>
		AE
	</note>
	<outline>
		<contour>
			<point x="53" y="0" type="line"/>
			<point x="63" y="0" type="line" smooth="yes"/>
			<point x="66" y="0"/>
			<point x="68" y="1"/>
			<point x="70" y="4" type="curve"/>
			<point x="448" y="663" type="line"/>
			<point x="454" y="674"/>
			<point x="457" y="680"/>
			<point x="461" y="689" type="curve"/>
			<point x="550" y="0" type="line"/>
			<point x="908" y="0" type="line"/>
			<point x="909" y="11" type="line"/>
			<point x="560" y="11" type="line"/>
			<point x="516" y="350" type="line"/>
			<point x="820" y="350" type="line"/>
			<point x="820" y="361" type="line"/>
			<point x="514" y="361" type="line"/>
			<point x="472" y="689" type="line"/>
			<point x="908" y="689" type="line"/>
			<point x="908" y="700" type="line"/>
			<point x="455" y="700" type="line"/>
		</contour>
		<contour>
			<point x="205" y="250" type="line"/>
			<point x="523" y="250" type="line"/>
			<point x="521" y="260" type="line"/>
			<point x="207" y="260" type="line"/>
		</contour>
		<component base="SerifUpLeftCaps" xOffset="909" yOffset="11"/>
		<component base="SerifUpRightCaps" xScale="-1" yScale="-1" xOffset="908" yOffset="689"/>
		<component base="SerifSpurLeft" xOffset="455" yOffset="700"/>
		<component base="SerifBottomLeft" xOffset="550"/>
		<component base="SerifBottomRight" xOffset="75"/>
		<component base="SerifBottomLeft" xOffset="71"/>
	</outline>
</glyph>
<glyph name="multiply" format="2">
	<advance width="543"/>
	<unicode hex="00D7"/>
	<note>
		multiply
	</note>
	<outline>
		<contour>
			<point x="465" y="536" type="line"/>
			<point x="272" y="343" type="line"/>
			<point x="78" y="537" type="line"/>
			<point x="70" y="529" type="line"/>
			<point x="265" y="335" type="line"/>
			<point x="70" y="140" type="line"/>
			<point x="77" y="133" type="line"/>
			<point x="272" y="328" type="line"/>
			<point x="466" y="134" type="line"/>
			<point x="473" y="141" type="line"/>
			<point x="280" y="335" type="line"/>
			<point x="473" y="528" type="line"/>
			<point x="465" y="536" type="line"/>
		</contour>
	</outline>
</glyph>
<glyph name="Thorn" format="2">
	<advance width="553"/>
	<unicode hex="00DE"/>
	<anchor x="274" y="700" name="top"/>
	<anchor x="130" y="0" name="bottom"/>
	<note>
		Thorn
	</note>
	<outline>
		<contour>
			<point x="124" y="0" type="line"/>
			<point x="136" y="0" type="line"/>
			<point x="136" y="149" type="line"/>
			<point x="282" y="149" type="line" smooth="yes"/>
			<point x="419" y="149"/>
			<point x="519" y="230"/>
			<point x="519" y="349" type="curve" smooth="yes"/>
			<point x="519" y="484"/>
			<point x="435" y="549"/>
			<point x="282" y="549" type="curve" smooth="yes"/>
			<point x="136" y="549" type="line"/>
			<point x="136" y="700" type="line"/>
			<point x="124" y="700" type="line"/>
		</contour>
		<contour>
			<point x="136" y="159" type="line"/>
			<point x="136" y="539" type="line"/>
			<point x="282" y="539" type="line" smooth="yes"/>
			<point x="433" y="539"/>
			<point x="507" y="474"/>
			<point x="507" y="349" type="curve" smooth="yes"/>
			<point x="507" y="239"/>
			<point x="413" y="159"/>
			<point x="282" y="159" type="curve" smooth="yes"/>
		</contour>
		<component base="SerifBottomLeft" xOffset="124"/>
		<component base="SerifBottomRight" xOffset="136"/>
		<component base="SerifSpurLeft" xOffset="124" yOffset="700"/>
		<component base="SerifSpurRight" xOffset="136" yOffset="700"/>
	</outline>
</glyph>
<glyph name="germandbls" format="2">
	<advance width="557"/>
	<unicode hex="00DF"/>
	<note>
		germandbls
	</note>
	<outline>
		<contour>
			<point x="346" y="-8" type="curve" smooth="yes"/>
			<point x="444" y="-8"/>
			<point x="506" y="53"/>
			<point x="506" y="137" type="curve" smooth="yes"/>
			<point x="506" y="213"/>
			<point x="462" y="239"/>
			<point x="404" y="262" type="curve" smooth="yes"/>
			<point x="351" y="282"/>
			<point x="300" y="294"/>
			<point x="300" y="348" type="curve" smooth="yes"/>
			<point x="300" y="388"/>
			<point x="346" y="420"/>
			<point x="387" y="447" type="curve" smooth="yes"/>
			<point x="431" y="477"/>
			<point x="472" y="520"/>
			<point x="472" y="580" type="curve" smooth="yes"/>
			<point x="472" y="650"/>
			<point x="405" y="707"/>
			<point x="315" y="707" type="curve" smooth="yes"/>
			<point x="199" y="707"/>
			<point x="113" y="633"/>
			<point x="113" y="505" type="curve" smooth="yes"/>
			<point x="113" y="0" type="line"/>
			<point x="125" y="0" type="line"/>
			<point x="125" y="505" type="line" smooth="yes"/>
			<point x="125" y="635"/>
			<point x="209" y="697"/>
			<point x="315" y="697" type="curve" smooth="yes"/>
			<point x="411" y="697"/>
			<point x="462" y="635"/>
			<point x="462" y="581" type="curve" smooth="yes"/>
			<point x="462" y="522"/>
			<point x="421" y="481"/>
			<point x="376" y="451" type="curve" smooth="yes"/>
			<point x="335" y="424"/>
			<point x="289" y="390"/>
			<point x="289" y="348" type="curve" smooth="yes"/>
			<point x="289" y="290"/>
			<point x="338" y="274"/>
			<point x="393" y="255" type="curve" smooth="yes"/>
			<point x="451" y="234"/>
			<point x="495" y="210"/>
			<point x="495" y="136" type="curve" smooth="yes"/>
			<point x="495" y="58"/>
			<point x="438" y="2"/>
			<point x="346" y="2" type="curve" smooth="yes"/>
			<point x="283" y="2"/>
			<point x="238" y="29"/>
			<point x="209" y="55" type="curve" smooth="yes"/>
			<point x="206" y="57"/>
			<point x="203" y="57"/>
			<point x="200" y="54" type="curve" smooth="yes"/>
			<point x="197" y="51" type="line"/>
			<point x="239" y="15"/>
			<point x="280" y="-8"/>
		</contour>
		<component base="SerifBottomLeft" xOffset="113"/>
	</outline>
</glyph>
<glyph name="ae" format="2">
	<advance width="803"/>
	<unicode hex="00E6"/>
	<anchor x="381" y="490" name="top"/>
	<anchor x="381" y="0" name="bottom"/>
	<note>
		ae
	</note>
	<outline>
		<contour>
			<point x="185" y="-8" type="curve" smooth="yes"/>
			<point x="288" y="-8"/>
			<point x="367" y="62"/>
			<point x="374" y="174" type="curve"/>
			<point x="374" y="330" type="line" smooth="yes"/>
			<point x="374" y="432"/>
			<point x="326" y="498"/>
			<point x="232" y="498" type="curve" smooth="yes"/>
			<point x="164" y="498"/>
			<point x="116" y="471"/>
			<point x="68" y="420" type="curve"/>
			<point x="70" y="418" type="line" smooth="yes"/>
			<point x="72" y="416"/>
			<point x="74" y="415"/>
			<point x="75" y="415" type="curve" smooth="yes"/>
			<point x="87" y="415"/>
			<point x="127" y="488"/>
			<point x="232" y="488" type="curve" smooth="yes"/>
			<point x="322" y="488"/>
			<point x="365" y="426"/>
			<point x="365" y="324" type="curve" smooth="yes"/>
			<point x="365" y="281" type="line"/>
			<point x="254" y="278"/>
			<point x="174" y="262"/>
			<point x="122" y="235" type="curve" smooth="yes"/>
			<point x="69" y="207"/>
			<point x="43" y="169"/>
			<point x="43" y="125" type="curve" smooth="yes"/>
			<point x="43" y="31"/>
			<point x="103" y="-8"/>
		</contour>
		<contour>
			<point x="185" y="2" type="curve" smooth="yes"/>
			<point x="108" y="2"/>
			<point x="55" y="41"/>
			<point x="55" y="125" type="curve" smooth="yes"/>
			<point x="55" y="231"/>
			<point x="211" y="267"/>
			<point x="365" y="271" type="curve"/>
			<point x="365" y="185" type="line" smooth="yes"/>
			<point x="365" y="76"/>
			<point x="287" y="2"/>
		</contour>
		<component base="e" xOffset="324"/>
	</outline>
</glyph>
<glyph name="eth" format="2">
	<advance width="520"/>
	<unicode hex="00F0"/>
	<note>
		eth
	</note>
	<outline>
		<contour>
			<point x="248" y="-5" type="curve" smooth="yes"/>
			<point x="323" y="-5"/>
			<point x="376" y="27"/>
			<point x="412" y="80" type="curve" smooth="yes"/>
			<point x="447" y="132"/>
			<point x="464" y="208"/>
			<point x="464" y="297" type="curve" smooth="yes"/>
			<point x="464" y="450"/>
			<point x="410" y="556"/>
			<point x="316" y="620" type="curve"/>
			<point x="379" y="689" type="line" smooth="yes"/>
			<point x="381" y="692"/>
			<point x="381" y="694"/>
			<point x="379" y="696" type="curve" smooth="yes"/>
			<point x="376" y="699" type="line"/>
			<point x="308" y="625" type="line"/>
			<point x="256" y="660"/>
			<point x="197" y="677"/>
			<point x="140" y="686" type="curve"/>
			<point x="139" y="683" type="line" smooth="yes"/>
			<point x="138" y="680"/>
			<point x="140" y="677"/>
			<point x="144" y="676" type="curve" smooth="yes"/>
			<point x="204" y="666"/>
			<point x="256" y="649"/>
			<point x="302" y="619" type="curve"/>
			<point x="233" y="546" type="line"/>
			<point x="231" y="543"/>
			<point x="231" y="540"/>
			<point x="233" y="538" type="curve" smooth="yes"/>
			<point x="236" y="535" type="line"/>
			<point x="309" y="613" type="line"/>
			<point x="400" y="553"/>
			<point x="453" y="448"/>
			<point x="455" y="304" type="curve"/>
			<point x="423" y="408"/>
			<point x="335" y="458"/>
			<point x="253" y="458" type="curve" smooth="yes"/>
			<point x="119" y="458"/>
			<point x="41" y="357"/>
			<point x="41" y="223" type="curve" smooth="yes"/>
			<point x="41" y="89"/>
			<point x="131" y="-5"/>
		</contour>
		<contour>
			<point x="248" y="5" type="curve" smooth="yes"/>
			<point x="139" y="5"/>
			<point x="53" y="94"/>
			<point x="53" y="223" type="curve" smooth="yes"/>
			<point x="53" y="353"/>
			<point x="124" y="448"/>
			<point x="253" y="448" type="curve" smooth="yes"/>
			<point x="362" y="448"/>
			<point x="433" y="365"/>
			<point x="454" y="280" type="curve"/>
			<point x="449" y="124"/>
			<point x="385" y="5"/>
		</contour>
	</outline>
</glyph>
<glyph name="divide" format="2">
	<advance width="601"/>
	<unicode hex="00F7"/>
	<note>
		divide
	</note>
	<outline>
		<contour>
			<point x="70" y="330" type="line"/>
			<point x="531" y="330" type="line"/>
			<point x="531" y="340" type="line"/>
			<point x="70" y="340" type="line"/>
			<point x="70" y="330" type="line"/>
		</contour>
		<contour>
			<point x="268" y="512" type="curve"/>
			<point x="268" y="512" type="line"/>
			<point x="268" y="495"/>
			<point x="283" y="480"/>
			<point x="300" y="480" type="curve" smooth="yes"/>
			<point x="319" y="480"/>
			<point x="333" y="495"/>
			<point x="333" y="512" type="curve" smooth="yes"/>
			<point x="333" y="531"/>
			<point x="319" y="545"/>
			<point x="300" y="545" type="curve" smooth="yes"/>
			<point x="283" y="545"/>
			<point x="268" y="531"/>
		</contour>
		<contour>
			<point x="268" y="156" type="curve"/>
			<point x="268" y="156" type="line"/>
			<point x="268" y="139"/>
			<point x="283" y="124"/>
			<point x="300" y="124" type="curve" smooth="yes"/>
			<point x="319" y="124"/>
			<point x="333" y="139"/>
			<point x="333" y="156" type="curve" smooth="yes"/>
			<point x="333" y="175"/>
			<point x="319" y="189"/>
			<point x="300" y="189" type="curve" smooth="yes"/>
			<point x="283" y="189"/>
			<point x="268" y="175"/>
		</contour>
	</outline>
</glyph>
<glyph name="oslash" format="2">
	<advance width="527"/>
	<unicode hex="00F8"/>
	<outline>
		<contour>
			<point x="55" y="-37" type="line"/>
			<point x="62" y="-37" type="line" smooth="yes"/>
			<point x="67" y="-37"/>
			<point x="70" y="-35"/>
			<point x="73" y="-31" type="curve" smooth="yes"/>
			<point x="482" y="516" type="line"/>
			<point x="474" y="516" type="line" smooth="yes"/>
			<point x="471" y="516"/>
			<point x="467" y="514"/>
			<point x="465" y="511" type="curve" smooth="yes"/>
		</contour>
		<component base="o" xOffset="9"/>
	</outline>
</glyph>
<glyph name="thorn" format="2">
	<advance width="462"/>
	<unicode hex="00FE"/>
	<note>
		thorn
	</note>
	<outline>
		<contour>
			<point x="43" y="-180" type="line"/>
			<point x="43" y="82" type="line"/>
			<point x="80" y="23"/>
			<point x="134" y="-6"/>
			<point x="206" y="-6" type="curve" smooth="yes"/>
			<point x="347" y="-6"/>
			<point x="421" y="105"/>
			<point x="421" y="248" type="curve" smooth="yes"/>
			<point x="421" y="419"/>
			<point x="352" y="498"/>
			<point x="225" y="498" type="curve" smooth="yes"/>
			<point x="152" y="498"/>
			<point x="87" y="456"/>
			<point x="43" y="389" type="curve"/>
			<point x="43" y="720" type="line"/>
			<point x="31" y="720" type="line"/>
			<point x="31" y="-180" type="line"/>
			<point x="43" y="-180" type="line"/>
		</contour>
		<contour>
			<point x="225" y="488" type="curve"/>
			<point x="225" y="488" type="line"/>
			<point x="346" y="488"/>
			<point x="409" y="411"/>
			<point x="409" y="248" type="curve" smooth="yes"/>
			<point x="409" y="110"/>
			<point x="342" y="4"/>
			<point x="206" y="4" type="curve" smooth="yes"/>
			<point x="137" y="4"/>
			<point x="86" y="29"/>
			<point x="43" y="98" type="curve"/>
			<point x="43" y="373" type="line"/>
			<point x="88" y="445"/>
			<point x="153" y="488"/>
		</contour>
	</outline>
</glyph>
<glyph name="Hbar" format="2">
	<advance width="764"/>
	<unicode hex="0126"/>
	<outline>
		<contour>
			<point x="42" y="535" type="line"/>
			<point x="42" y="525" type="line"/>
			<point x="722" y="525" type="line"/>
			<point x="722" y="535" type="line"/>
		</contour>
		<component base="H"/>
	</outline>
</glyph>
<glyph name="idotless" format="2">
	<advance width="229"/>
	<unicode hex="0131"/>
	<anchor x="115" y="2" name="ogonek"/>
	<anchor x="119" y="0" name="bottom"/>
	<anchor x="119" y="490" name="top"/>
	<note>
		dotlessi
	</note>
	<outline>
		<contour>
			<point x="113" y="0" type="line"/>
			<point x="125" y="0" type="line"/>
			<point x="125" y="490" type="line"/>
			<point x="113" y="490" type="line"/>
		</contour>
		<component base="SerifBottomLeft" xOffset="113"/>
		<component base="SerifBottomRight" xOffset="125"/>
		<component base="SerifSpurLeft" xOffset="113" yOffset="490"/>
	</outline>
</glyph>
<glyph name="Lslash" format="2">
	<advance width="554"/>
	<unicode hex="0141"/>
	<note>
		Lslash
	</note>
	<outline>
		<contour>
			<point x="32" y="255" type="line"/>
			<point x="361" y="430" type="line" smooth="yes"/>
			<point x="367" y="433"/>
			<point x="367" y="436"/>
			<point x="367" y="440" type="curve" smooth="yes"/>
			<point x="367" y="443" type="line"/>
			<point x="38" y="269" type="line"/>
			<point x="33" y="266"/>
			<point x="32" y="264"/>
			<point x="32" y="259" type="curve" smooth="yes"/>
		</contour>
		<component base="L" xOffset="41"/>
	</outline>
</glyph>
<glyph name="lslash" format="2">
	<advance width="252"/>
	<unicode hex="0142"/>
	<note>
		lslash
	</note>
	<outline>
		<contour>
			<point x="23" y="347" type="line"/>
			<point x="239" y="452" type="line" smooth="yes"/>
			<point x="244" y="454"/>
			<point x="245" y="458"/>
			<point x="245" y="462" type="curve" smooth="yes"/>
			<point x="245" y="465" type="line"/>
			<point x="29" y="360" type="line" smooth="yes"/>
			<point x="24" y="357"/>
			<point x="23" y="355"/>
			<point x="23" y="350" type="curve" smooth="yes"/>
		</contour>
		<component base="l" xOffset="23"/>
	</outline>
</glyph>
<glyph name="Eng" format="2">
	<advance width="765"/>
	<unicode hex="014A"/>
	<outline>
		<contour>
			<point x="546" y="-188" type="curve" smooth="yes"/>
			<point x="576" y="-188"/>
			<point x="644" y="-174"/>
			<point x="644" y="-83" type="curve" smooth="yes"/>
			<point x="644" y="46" type="line"/>
			<point x="632" y="46" type="line"/>
			<point x="632" y="-82" type="line" smooth="yes"/>
			<point x="632" y="-119"/>
			<point x="618" y="-178"/>
			<point x="549" y="-178" type="curve" smooth="yes"/>
			<point x="515" y="-178"/>
			<point x="511" y="-165"/>
			<point x="507" y="-172" type="curve" smooth="yes"/>
			<point x="504" y="-177" type="line"/>
			<point x="513" y="-182"/>
			<point x="528" y="-188"/>
		</contour>
		<component base="N"/>
	</outline>
</glyph>
<glyph name="eng" format="2">
	<advance width="500"/>
	<unicode hex="014B"/>
	<anchor x="298" y="490" name="top"/>
	<anchor x="298" y="0" name="bottom"/>
	<outline>
		<contour>
			<point x="113" y="0" type="line"/>
			<point x="125" y="0" type="line"/>
			<point x="125" y="373" type="line"/>
			<point x="174" y="445"/>
			<point x="240" y="488"/>
			<point x="316" y="488" type="curve" smooth="yes"/>
			<point x="419" y="488"/>
			<point x="466" y="424"/>
			<point x="466" y="314" type="curve" smooth="yes"/>
			<point x="466" y="0" type="line"/>
			<point x="478" y="0" type="line"/>
			<point x="478" y="314" type="line" smooth="yes"/>
			<point x="478" y="430"/>
			<point x="425" y="498"/>
			<point x="316" y="498" type="curve" smooth="yes"/>
			<point x="238" y="498"/>
			<point x="171" y="455"/>
			<point x="125" y="388" type="curve"/>
			<point x="123" y="482" type="line" smooth="yes"/>
			<point x="123" y="487"/>
			<point x="121" y="490"/>
			<point x="116" y="490" type="curve" smooth="yes"/>
			<point x="113" y="490" type="line"/>
		</contour>
		<contour>
			<point x="380" y="-188" type="curve" smooth="yes"/>
			<point x="410" y="-188"/>
			<point x="478" y="-174"/>
			<point x="478" y="-83" type="curve" smooth="yes"/>
			<point x="478" y="36" type="line"/>
			<point x="466" y="36" type="line"/>
			<point x="466" y="-82" type="line" smooth="yes"/>
			<point x="466" y="-119"/>
			<point x="452" y="-178"/>
			<point x="383" y="-178" type="curve" smooth="yes"/>
			<point x="349" y="-178"/>
			<point x="345" y="-165"/>
			<point x="341" y="-172" type="curve" smooth="yes"/>
			<point x="338" y="-177" type="line"/>
			<point x="347" y="-182"/>
			<point x="362" y="-188"/>
		</contour>
		<component base="SerifBottomLeft" xOffset="113"/>
		<component base="SerifBottomRight" xOffset="125"/>
		<component base="SerifSpurLeft" xOffset="113" yOffset="490"/>
	</outline>
</glyph>
<glyph name="OE" format="2">
	<advance width="1075"/>
	<unicode hex="0152"/>
	<note>
		OE
	</note>
	<outline>
		<contour>
			<point x="334" y="-6" type="curve" smooth="yes"/>
			<point x="485" y="-6"/>
			<point x="589" y="92"/>
			<point x="618" y="250" type="curve"/>
			<point x="618" y="0" type="line"/>
			<point x="1026" y="0" type="line"/>
			<point x="1027" y="11" type="line"/>
			<point x="629" y="11" type="line"/>
			<point x="629" y="350" type="line"/>
			<point x="938" y="350" type="line"/>
			<point x="938" y="361" type="line"/>
			<point x="629" y="361" type="line"/>
			<point x="629" y="689" type="line"/>
			<point x="1026" y="689" type="line"/>
			<point x="1026" y="700" type="line"/>
			<point x="618" y="700" type="line"/>
			<point x="618" y="451" type="line"/>
			<point x="589" y="609"/>
			<point x="484" y="708"/>
			<point x="334" y="708" type="curve" smooth="yes"/>
			<point x="249" y="708"/>
			<point x="176" y="674"/>
			<point x="125" y="612" type="curve" smooth="yes"/>
			<point x="73" y="550"/>
			<point x="43" y="461"/>
			<point x="43" y="350" type="curve" smooth="yes"/>
			<point x="43" y="239"/>
			<point x="73" y="150"/>
			<point x="125" y="89" type="curve" smooth="yes"/>
			<point x="176" y="28"/>
			<point x="249" y="-6"/>
		</contour>
		<contour>
			<point x="336" y="4" type="curve" smooth="yes"/>
			<point x="158" y="4"/>
			<point x="55" y="152"/>
			<point x="55" y="350" type="curve" smooth="yes"/>
			<point x="55" y="546"/>
			<point x="155" y="698"/>
			<point x="336" y="698" type="curve" smooth="yes"/>
			<point x="517" y="698"/>
			<point x="617" y="550"/>
			<point x="617" y="350" type="curve" smooth="yes"/>
			<point x="617" y="153"/>
			<point x="519" y="4"/>
		</contour>
		<component base="SerifUpLeftCaps" xOffset="1027" yOffset="17"/>
		<component base="SerifUpRightCaps" xScale="-1" yScale="-1" xOffset="1027" yOffset="695"/>
	</outline>
</glyph>
<glyph name="oe" format="2">
	<advance width="867"/>
	<unicode hex="0153"/>
	<anchor x="434" y="490" name="top"/>
	<anchor x="434" y="0" name="bottom"/>
	<note>
		oe
	</note>
	<outline>
		<contour>
			<point x="241" y="-6" type="curve" smooth="yes"/>
			<point x="355" y="-6"/>
			<point x="422" y="73"/>
			<point x="435" y="196" type="curve"/>
			<point x="438.127" y="263.317" type="line"/>
			<point x="428" y="420.351"/>
			<point x="354" y="498"/>
			<point x="241" y="498" type="curve" smooth="yes"/>
			<point x="109" y="498"/>
			<point x="41" y="394"/>
			<point x="41" y="245" type="curve" smooth="yes"/>
			<point x="41" y="98"/>
			<point x="110" y="-6"/>
		</contour>
		<contour>
			<point x="241" y="4" type="curve"/>
			<point x="115" y="4"/>
			<point x="53" y="104"/>
			<point x="53" y="245" type="curve" smooth="yes"/>
			<point x="53" y="387"/>
			<point x="115" y="488"/>
			<point x="241" y="488" type="curve" smooth="yes"/>
			<point x="368" y="488"/>
			<point x="428" y="387"/>
			<point x="428" y="245" type="curve" smooth="yes"/>
			<point x="428" y="104"/>
			<point x="368" y="4"/>
		</contour>
		<component base="e" xOffset="388" yOffset="-1"/>
	</outline>
</glyph>
<glyph name="Bhook" format="2">
	<advance width="712"/>
	<unicode hex="0181"/>
	<anchor x="412" y="700" name="top"/>
	<anchor x="412" y="0" name="bottom"/>
	<outline>
		<contour>
			<point x="236" y="0" type="line"/>
			<point x="445" y="0" type="line" smooth="yes"/>
			<point x="585" y="0"/>
			<point x="672" y="62"/>
			<point x="672" y="184" type="curve" smooth="yes"/>
			<point x="672" y="286"/>
			<point x="594" y="349"/>
			<point x="479" y="357" type="curve"/>
			<point x="569" y="368"/>
			<point x="639" y="441"/>
			<point x="639" y="526" type="curve" smooth="yes"/>
			<point x="639" y="639"/>
			<point x="567" y="700"/>
			<point x="418" y="700" type="curve" smooth="yes"/>
			<point x="236" y="700" type="line"/>
		</contour>
		<contour>
			<point x="248" y="10" type="line"/>
			<point x="248" y="350" type="line"/>
			<point x="446" y="350" type="line" smooth="yes"/>
			<point x="572" y="350"/>
			<point x="660" y="290"/>
			<point x="660" y="184" type="curve" smooth="yes"/>
			<point x="660" y="67"/>
			<point x="577" y="10"/>
			<point x="445" y="10" type="curve" smooth="yes"/>
		</contour>
		<contour>
			<point x="248" y="360" type="line"/>
			<point x="248" y="690" type="line"/>
			<point x="418" y="690" type="line" smooth="yes"/>
			<point x="561" y="690"/>
			<point x="628" y="630"/>
			<point x="628" y="526" type="curve" smooth="yes"/>
			<point x="628" y="438"/>
			<point x="557" y="360"/>
			<point x="423" y="360" type="curve" smooth="yes"/>
		</contour>
		<component base="SerifBottomLeft" xOffset="236"/>
		<component base="hookleft_caps_part"/>
	</outline>
</glyph>
<glyph name="Chook" format="2">
	<advance width="658"/>
	<unicode hex="0187"/>
	<outline>
		<contour>
			<point x="613" y="626" type="line"/>
			<point x="613" y="687" type="line" smooth="yes"/>
			<point x="613" y="774"/>
			<point x="645" y="827"/>
			<point x="710" y="827" type="curve" smooth="yes"/>
			<point x="727" y="827"/>
			<point x="746" y="825"/>
			<point x="766" y="818" type="curve" smooth="yes"/>
			<point x="771" y="817"/>
			<point x="775" y="815"/>
			<point x="776" y="820" type="curve" smooth="yes"/>
			<point x="777" y="824" type="line"/>
			<point x="753" y="833"/>
			<point x="731" y="837"/>
			<point x="710" y="837" type="curve" smooth="yes"/>
			<point x="638" y="837"/>
			<point x="603" y="777"/>
			<point x="603" y="687" type="curve" smooth="yes"/>
			<point x="603" y="678"/>
			<point x="603" y="670"/>
			<point x="603" y="661" type="curve" smooth="yes"/>
			<point x="603" y="652"/>
			<point x="603" y="643"/>
			<point x="604" y="633" type="curve"/>
		</contour>
		<component base="C"/>
	</outline>
</glyph>
<glyph name="Dhook" format="2">
	<advance width="853"/>
	<unicode hex="018A"/>
	<anchor x="242" y="357" name="center"/>
	<anchor x="459" y="0" name="bottom"/>
	<anchor x="473" y="700" name="top"/>
	<outline>
		<contour>
			<point x="236" y="0" type="line"/>
			<point x="486" y="0" type="line" smooth="yes"/>
			<point x="582" y="0"/>
			<point x="663" y="32"/>
			<point x="720" y="92" type="curve" smooth="yes"/>
			<point x="777" y="152"/>
			<point x="810" y="239"/>
			<point x="810" y="350" type="curve" smooth="yes"/>
			<point x="810" y="461"/>
			<point x="777" y="548"/>
			<point x="720" y="608" type="curve" smooth="yes"/>
			<point x="663" y="668"/>
			<point x="582" y="700"/>
			<point x="486" y="700" type="curve" smooth="yes"/>
			<point x="236" y="700" type="line"/>
		</contour>
		<contour>
			<point x="248" y="10" type="line"/>
			<point x="248" y="690" type="line"/>
			<point x="486" y="690" type="line" smooth="yes"/>
			<point x="681" y="690"/>
			<point x="797" y="557"/>
			<point x="797" y="350" type="curve" smooth="yes"/>
			<point x="797" y="146"/>
			<point x="684" y="10"/>
			<point x="486" y="10" type="curve" smooth="yes"/>
		</contour>
		<component base="SerifBottomLeft" xOffset="236"/>
		<component base="hookleft_caps_part"/>
	</outline>
</glyph>
<glyph name="Schwa" format="2">
	<advance width="700"/>
	<unicode hex="018F"/>
	<outline>
		<contour>
			<point x="327" y="-5" type="curve"/>
			<point x="423" y="-5"/>
			<point x="498" y="31"/>
			<point x="550" y="91" type="curve" smooth="yes"/>
			<point x="602" y="151"/>
			<point x="630" y="237"/>
			<point x="630" y="340" type="curve" smooth="yes"/>
			<point x="630" y="457"/>
			<point x="601" y="548"/>
			<point x="548" y="611.5" type="curve" smooth="yes"/>
			<point x="495" y="675"/>
			<point x="417" y="709"/>
			<point x="324" y="709" type="curve" smooth="yes"/>
			<point x="216" y="709"/>
			<point x="139" y="672"/>
			<point x="83" y="619" type="curve"/>
			<point x="86" y="616" type="line" smooth="yes"/>
			<point x="87" y="615"/>
			<point x="89" y="614"/>
			<point x="90" y="614" type="curve" smooth="yes"/>
			<point x="92" y="614"/>
			<point x="94" y="615"/>
			<point x="96" y="617" type="curve" smooth="yes"/>
			<point x="152" y="668"/>
			<point x="227" y="699"/>
			<point x="324" y="699" type="curve" smooth="yes"/>
			<point x="411" y="699"/>
			<point x="484" y="666"/>
			<point x="536" y="605.5" type="curve" smooth="yes"/>
			<point x="588" y="545"/>
			<point x="618" y="454"/>
			<point x="618" y="340" type="curve" smooth="yes"/>
			<point x="618" y="327"/>
			<point x="617" y="314"/>
			<point x="616" y="301" type="curve"/>
			<point x="72" y="301" type="line" smooth="yes"/>
			<point x="68" y="301"/>
			<point x="63" y="298"/>
			<point x="63" y="294" type="curve" smooth="yes"/>
			<point x="63" y="198"/>
			<point x="93" y="124"/>
			<point x="140.5" y="73" type="curve" smooth="yes"/>
			<point x="188" y="22"/>
			<point x="254" y="-5"/>
		</contour>
		<contour>
			<point x="327" y="5" type="curve"/>
			<point x="176" y="5"/>
			<point x="74" y="125"/>
			<point x="74" y="290" type="curve"/>
			<point x="615" y="290" type="line"/>
			<point x="599" y="120"/>
			<point x="495" y="5"/>
		</contour>
	</outline>
</glyph>
<glyph name="Eopen" format="2">
	<advance width="591"/>
	<unicode hex="0190"/>
	<anchor x="321" y="700" name="top"/>
	<anchor x="296" y="0" name="bottom"/>
	<outline>
		<contour>
			<point x="323" y="-8" type="curve" smooth="yes"/>
			<point x="418.168" y="-8"/>
			<point x="503.649" y="35.158"/>
			<point x="538" y="82" type="curve"/>
			<point x="534" y="85" type="line" smooth="yes"/>
			<point x="533" y="86"/>
			<point x="531.333" y="88"/>
			<point x="530" y="88" type="curve" smooth="yes"/>
			<point x="528.667" y="88"/>
			<point x="528" y="88"/>
			<point x="526" y="85" type="curve" smooth="yes"/>
			<point x="489" y="32"/>
			<point x="389" y="2"/>
			<point x="323" y="2" type="curve" smooth="yes"/>
			<point x="183.105" y="2"/>
			<point x="82" y="77.988"/>
			<point x="82" y="194" type="curve" smooth="yes"/>
			<point x="82" y="304.607"/>
			<point x="180.444" y="382"/>
			<point x="327" y="382" type="curve" smooth="yes"/>
			<point x="439" y="382" type="line"/>
			<point x="439" y="392" type="line"/>
			<point x="327" y="392" type="line" smooth="yes"/>
			<point x="210.343" y="392"/>
			<point x="102" y="437.444"/>
			<point x="102" y="535" type="curve" smooth="yes"/>
			<point x="102" y="630.532"/>
			<point x="188.574" y="697"/>
			<point x="321" y="697" type="curve" smooth="yes"/>
			<point x="389" y="697"/>
			<point x="437" y="681"/>
			<point x="468" y="665" type="curve" smooth="yes"/>
			<point x="492" y="652"/>
			<point x="517" y="631"/>
			<point x="520" y="631" type="curve" smooth="yes"/>
			<point x="521.333" y="631"/>
			<point x="522.667" y="631.667"/>
			<point x="524" y="633" type="curve" smooth="yes"/>
			<point x="527" y="636" type="line"/>
			<point x="480.333" y="678.667"/>
			<point x="415.667" y="707"/>
			<point x="321" y="707" type="curve" smooth="yes"/>
			<point x="185.398" y="707"/>
			<point x="91" y="639.515"/>
			<point x="91" y="535" type="curve" smooth="yes"/>
			<point x="91" y="455.849"/>
			<point x="155.204" y="398.98"/>
			<point x="275" y="387" type="curve"/>
			<point x="144.428" y="372.218"/>
			<point x="70" y="288.569"/>
			<point x="70" y="194" type="curve" smooth="yes"/>
			<point x="70" y="69.74"/>
			<point x="173.18" y="-8"/>
		</contour>
		<contour>
			<point x="527" y="572" type="line"/>
			<point x="527" y="636" type="line"/>
			<point x="515" y="632" type="line"/>
		</contour>
		<component base="SerifUpRightCaps" xScale="-1" yScale="-1" xOffset="527" yOffset="636"/>
	</outline>
</glyph>
<glyph name="Fhook" format="2">
	<advance width="566"/>
	<unicode hex="0191"/>
	<outline>
		<contour>
			<point x="124" y="0" type="line"/>
			<point x="136" y="0" type="line"/>
			<point x="136" y="340" type="line"/>
			<point x="445" y="340" type="line"/>
			<point x="445" y="351" type="line"/>
			<point x="136" y="351" type="line"/>
			<point x="136" y="689" type="line"/>
			<point x="533" y="689" type="line"/>
			<point x="533" y="700" type="line"/>
			<point x="124" y="700" type="line"/>
		</contour>
		<contour>
			<point x="38" y="-188" type="curve" smooth="yes"/>
			<point x="68" y="-188"/>
			<point x="136" y="-174"/>
			<point x="136" y="-83" type="curve" smooth="yes"/>
			<point x="136" y="46" type="line"/>
			<point x="124" y="46" type="line"/>
			<point x="124" y="-82" type="line" smooth="yes"/>
			<point x="124" y="-119"/>
			<point x="110" y="-178"/>
			<point x="41" y="-178" type="curve" smooth="yes"/>
			<point x="7" y="-178"/>
			<point x="3" y="-165"/>
			<point x="-1" y="-172" type="curve" smooth="yes"/>
			<point x="-4" y="-177" type="line"/>
			<point x="5" y="-182"/>
			<point x="20" y="-188"/>
		</contour>
		<component base="SerifUpRightCaps" xScale="-1" yScale="-1" xOffset="533" yOffset="689"/>
		<component base="SerifSpurLeft" xOffset="124" yOffset="700"/>
	</outline>
</glyph>
<glyph name="florin" format="2">
	<advance width="384"/>
	<unicode hex="0192"/>
	<note>
		florin
	</note>
	<outline>
		<contour>
			<point x="-88" y="-184" type="line"/>
			<point x="12" y="-184"/>
			<point x="85" y="-123"/>
			<point x="98" y="-4" type="curve" smooth="yes"/>
			<point x="149" y="411" type="line"/>
			<point x="342" y="411" type="line"/>
			<point x="342" y="421" type="line"/>
			<point x="150" y="421" type="line"/>
			<point x="163" y="527" type="line" smooth="yes"/>
			<point x="178" y="645"/>
			<point x="243" y="697"/>
			<point x="329" y="697" type="curve" smooth="yes"/>
			<point x="334" y="697"/>
			<point x="337" y="699"/>
			<point x="337" y="702" type="curve" smooth="yes"/>
			<point x="337" y="707" type="line"/>
			<point x="231" y="707"/>
			<point x="166" y="647"/>
			<point x="151" y="527" type="curve" smooth="yes"/>
			<point x="138" y="421" type="line"/>
			<point x="18" y="421" type="line"/>
			<point x="18" y="417" type="line" smooth="yes"/>
			<point x="18" y="414"/>
			<point x="20" y="413"/>
			<point x="24" y="413" type="curve" smooth="yes"/>
			<point x="137" y="411" type="line"/>
			<point x="86" y="-4" type="line" smooth="yes"/>
			<point x="74" y="-119"/>
			<point x="3" y="-174"/>
			<point x="-80" y="-174" type="curve" smooth="yes"/>
			<point x="-85" y="-174"/>
			<point x="-88" y="-176"/>
			<point x="-88" y="-179" type="curve" smooth="yes"/>
		</contour>
	</outline>
</glyph>
<glyph name="Ghook" format="2">
	<advance width="718"/>
	<unicode hex="0193"/>
	<outline>
		<contour>
			<point x="638" y="626" type="line"/>
			<point x="638" y="687" type="line" smooth="yes"/>
			<point x="638" y="774"/>
			<point x="670" y="827"/>
			<point x="735" y="827" type="curve" smooth="yes"/>
			<point x="752" y="827"/>
			<point x="771" y="825"/>
			<point x="791" y="818" type="curve" smooth="yes"/>
			<point x="796" y="817"/>
			<point x="800" y="815"/>
			<point x="801" y="820" type="curve" smooth="yes"/>
			<point x="802" y="824" type="line"/>
			<point x="778" y="833"/>
			<point x="756" y="837"/>
			<point x="735" y="837" type="curve" smooth="yes"/>
			<point x="663" y="837"/>
			<point x="628" y="777"/>
			<point x="628" y="687" type="curve" smooth="yes"/>
			<point x="628" y="678"/>
			<point x="628" y="670"/>
			<point x="628" y="661" type="curve" smooth="yes"/>
			<point x="628" y="652"/>
			<point x="628" y="643"/>
			<point x="629" y="633" type="curve"/>
		</contour>
		<component base="G"/>
	</outline>
</glyph>
